<svg width="180" height="196" viewBox="0 0 180 196" fill="none" xmlns="http://www.w3.org/2000/svg">
<g opacity="0.5">
<path d="M66.1174 64.5807L78.034 62.618C78.902 62.475 79.7815 62.4035 80.6657 62.4035H80.6864C85.9914 62.4035 91.0171 64.9382 93.6488 69.2373C95.334 71.9888 96.6429 75.6929 96.6429 80.5617C96.6429 84.75 95.4702 88.8669 93.2448 92.5018L89.8351 98.0671C88.2191 100.706 87.208 103.637 86.9287 106.665C86.28 113.681 83.9969 120.499 80.2178 126.634L77.9485 130.32C77.3691 131.261 76.2933 131.842 75.1298 131.842C73.3338 131.842 71.8771 130.481 71.8771 128.804V122.985C71.8771 120.019 71.3092 117.076 70.2035 114.297L69.3031 112.035C68.793 110.755 67.4863 109.908 66.025 109.908C64.5314 109.908 63.204 110.794 62.7192 112.113L61.8166 114.565C60.8563 117.173 60.3669 119.911 60.3669 122.667V128.807C60.3669 130.483 58.9102 131.844 57.1142 131.844C55.9507 131.844 54.8749 131.263 54.2955 130.322L52.0262 126.636C48.2471 120.501 45.964 113.686 45.3153 106.668C45.036 103.639 44.0249 100.708 42.4089 98.0694L38.9992 92.5041C36.7715 88.8692 35.6011 84.7524 35.6011 80.564C35.6011 75.686 36.9146 71.975 38.6045 69.2212C41.2385 64.929 46.2572 62.4058 51.5552 62.4058H51.576C52.4579 62.4058 53.3374 62.4773 54.2077 62.6203L66.1174 64.5807Z" stroke="#E8F3FF" stroke-width="10" stroke-miterlimit="10" stroke-linecap="round" stroke-linejoin="round"/>
<path d="M89.4351 190.258V167.916C89.4351 157.191 98.0481 148.464 108.78 148.307C121.639 148.12 138.521 147.495 149.083 147.064C155.062 146.819 159.51 141.506 158.755 135.576C158.298 131.989 157.483 128.308 156.13 125.799C155.168 124.016 154.838 122.072 154.817 120.291C154.78 117.222 156.594 114.429 159.358 113.084L159.457 113.036C160.477 112.54 160.965 111.536 161.152 110.392C161.652 107.339 159.889 104.354 157.125 102.964L141.04 94.8659C141.04 94.8659 163.933 85.6058 162.714 82.9811C161.495 80.3564 157.903 71.3062 157.903 71.3062C157.899 70.3283 164.755 66.5066 164.755 66.5066C173.08 61.6309 175.076 56.8936 174.998 53.3787C174.991 53.0835 174.961 52.7167 174.89 52.2947C174.458 49.7646 172.798 47.6243 170.549 46.3811C167.463 44.6744 163.488 42.3403 159.025 39.3582C149.611 33.0687 144.835 29.8121 141.4 24.3252C139.537 21.3499 136.356 15.0627 136.672 5" stroke="#E8F3FF" stroke-width="10" stroke-miterlimit="10" stroke-linecap="round" stroke-linejoin="round"/>
<path d="M20.6519 84.5933C20.8642 88.2743 21.8338 92.2251 23.6206 96.0952C25.2389 99.6032 27.3373 102.638 29.6943 105.076" stroke="#E8F3FF" stroke-width="10" stroke-miterlimit="10" stroke-linecap="round" stroke-linejoin="round"/>
<path d="M6.25201 78.7096C4.04045 85.4074 4.70299 94.3492 8.68519 102.975C12.6812 111.626 19.0597 117.934 25.5951 120.603" stroke="#E8F3FF" stroke-width="10" stroke-miterlimit="10" stroke-linecap="round" stroke-linejoin="round"/>
<path d="M110.606 84.5933C110.394 88.2743 109.424 92.2251 107.637 96.0952C106.019 99.6032 103.918 102.638 101.563 105.076" stroke="#E8F3FF" stroke-width="10" stroke-miterlimit="10" stroke-linecap="round" stroke-linejoin="round"/>
<path d="M125.004 78.7096C127.216 85.4074 126.553 94.3492 122.571 102.975C118.575 111.626 112.197 117.934 105.661 120.603" stroke="#E8F3FF" stroke-width="10" stroke-miterlimit="10" stroke-linecap="round" stroke-linejoin="round"/>
</g>
</svg>
