<svg width="20" height="21" viewBox="0 0 20 21" fill="#fff" xmlns="http://www.w3.org/2000/svg">
<path class="consultation-phone" d="M17.5379 16.0684V18.7087C17.5389 18.9538 17.4886 19.1964 17.3902 19.4209C17.2918 19.6455 17.1475 19.8471 16.9666 20.0128C16.7856 20.1785 16.5719 20.3047 16.3393 20.3832C16.1066 20.4617 15.8601 20.4909 15.6155 20.4688C12.902 20.1746 10.2955 19.2492 8.00535 17.767C5.8747 16.4157 4.06828 14.6129 2.71437 12.4865C1.22406 10.1905 0.296612 7.57649 0.00715755 4.85616C-0.0148789 4.61279 0.0141019 4.36751 0.0922544 4.13593C0.170407 3.90435 0.296019 3.69154 0.461093 3.51107C0.626167 3.33059 0.827086 3.18639 1.05106 3.08766C1.27503 2.98892 1.51715 2.93782 1.762 2.93759H4.40748C4.83544 2.93338 5.25033 3.08463 5.57482 3.36313C5.8993 3.64164 6.11125 4.0284 6.17114 4.45133C6.2828 5.29626 6.48988 6.12588 6.78842 6.92436C6.90707 7.23936 6.93274 7.5817 6.86241 7.91082C6.79208 8.23994 6.62869 8.54204 6.3916 8.78133L5.27168 9.89903C6.52701 12.1024 8.35495 13.9267 10.5627 15.1795L11.6826 14.0618C11.9223 13.8252 12.225 13.6621 12.5548 13.5919C12.8846 13.5217 13.2276 13.5474 13.5432 13.6658C14.3433 13.9637 15.1746 14.1704 16.0212 14.2818C16.4495 14.3422 16.8407 14.5575 17.1204 14.8869C17.4001 15.2163 17.5486 15.6368 17.5379 16.0684Z" fill="#509FF3"/>
<path class="consultation-phone" d="M11.6921 5.1529C12.59 5.32807 13.4151 5.76717 14.0619 6.41399C14.7087 7.06082 15.1478 7.88595 15.323 8.78377M11.6921 1.47607C13.5575 1.6833 15.2969 2.51862 16.6248 3.84488C17.9528 5.17114 18.7903 6.90951 18.9998 8.77457" stroke="#509FF3" stroke-width="2" stroke-linecap="round" stroke-linejoin="round"/>
</svg>
