<svg width="80" height="87" viewBox="0 0 80 87" fill="none" xmlns="http://www.w3.org/2000/svg">
<path d="M29.3945 65.3457H28.123L27.9473 64.209C27.7793 64.041 27.5664 63.9082 27.3086 63.8105C27.0547 63.7129 26.7539 63.6641 26.4062 63.6641C25.6641 63.6641 25.0918 63.9336 24.6895 64.4727C24.291 65.0117 24.0918 65.7148 24.0918 66.582V66.8809C24.0918 67.748 24.291 68.4531 24.6895 68.9961C25.0879 69.5391 25.6504 69.8105 26.377 69.8105C26.7129 69.8105 27.0195 69.7617 27.2969 69.6641C27.5781 69.5664 27.7949 69.4336 27.9473 69.2656L28.123 68.1289H29.3945V69.8164C29.0508 70.2148 28.6113 70.5332 28.0762 70.7715C27.5449 71.0059 26.9492 71.123 26.2891 71.123C25.1445 71.123 24.207 70.7266 23.4766 69.9336C22.7461 69.1406 22.3809 68.123 22.3809 66.8809V66.5938C22.3809 65.3555 22.7441 64.3379 23.4707 63.541C24.1973 62.7441 25.1367 62.3457 26.2891 62.3457C26.9492 62.3457 27.5449 62.4668 28.0762 62.709C28.6074 62.9473 29.0469 63.2637 29.3945 63.6582V65.3457ZM37.5215 62.4688V64.7422H36.209L36.1387 63.7871H34.5684V69.7988L35.4824 69.9746V71H31.9434V69.9746L32.8574 69.7988V63.7871H31.293L31.2227 64.7422H29.916V62.4688H37.5215ZM36.9414 69.9746L37.5508 69.8867L40.1465 62.4688H41.8984L44.4766 69.8867L45.0859 69.9746V71H42.1797V69.9746L42.7715 69.8691L42.3965 68.6973H39.6309L39.2559 69.8691L39.8477 69.9746V71H36.9414V69.9746ZM40.0352 67.4375H41.9922L41.0312 64.4316H40.9961L40.0352 67.4375ZM49.7383 67.5078L48.4492 69.9102L48.7773 69.9746V71H45.5547V69.9746L46.4043 69.8516L48.4316 66.3652L47.3477 64.6191C47.1562 64.3418 46.9922 64.1523 46.8555 64.0508C46.7188 63.9492 46.5684 63.8984 46.4043 63.8984C46.3184 63.8984 46.2422 63.9062 46.1758 63.9219C46.1133 63.9336 46.043 63.9492 45.9648 63.9688L45.7129 62.6855C45.8496 62.5957 46.0059 62.5234 46.1816 62.4688C46.3613 62.4141 46.5547 62.3867 46.7617 62.3867C47.1836 62.3867 47.5234 62.4805 47.7812 62.668C48.0391 62.8516 48.3086 63.1797 48.5898 63.6523L49.9141 65.9551H50.7988V63.6758L49.8848 63.5V62.4688H52.5039H53.418V63.5L52.5039 63.6758V65.9551H53.3887L54.6895 63.6523C54.959 63.1797 55.2227 62.8516 55.4805 62.668C55.7383 62.4805 56.0801 62.3867 56.5059 62.3867C56.709 62.3867 56.8984 62.4141 57.0742 62.4688C57.25 62.5234 57.4121 62.5957 57.5605 62.6855L57.3203 63.9688C57.2383 63.9492 57.1641 63.9336 57.0977 63.9219C57.0312 63.9062 56.959 63.8984 56.8809 63.8984C56.7129 63.8984 56.5605 63.9492 56.4238 64.0508C56.2871 64.1523 56.127 64.3418 55.9434 64.6191L54.8535 66.3887L56.834 69.8516L57.7188 69.9746V71H54.4551V69.9746L54.7949 69.9102L53.5293 67.5078H52.5039V69.7988L53.418 69.9746V71H49.8848V69.9746L50.7988 69.7988V67.5078H49.7383ZM18.9941 77.4688C19.9707 77.4688 20.7402 77.7207 21.3027 78.2246C21.8691 78.7246 22.1523 79.3809 22.1523 80.1934C22.1523 81.0098 21.8691 81.666 21.3027 82.1621C20.7402 82.6582 19.9707 82.9062 18.9941 82.9062H17.5527V84.7988L18.4668 84.9746V86H14.9336V84.9746L15.8418 84.7988V78.6758L14.9336 78.5V77.4688H15.8418H18.9941ZM17.5527 81.5879H18.9941C19.4707 81.5879 19.8301 81.459 20.0723 81.2012C20.3184 80.9395 20.4414 80.6074 20.4414 80.2051C20.4414 79.7949 20.3184 79.457 20.0723 79.1914C19.8301 78.9219 19.4707 78.7871 18.9941 78.7871H17.5527V81.5879ZM21.2324 84.9746L21.8418 84.8867L24.4375 77.4688H26.1895L28.7676 84.8867L29.377 84.9746V86H26.4707V84.9746L27.0625 84.8691L26.6875 83.6973H23.9219L23.5469 84.8691L24.1387 84.9746V86H21.2324V84.9746ZM24.3262 82.4375H26.2832L25.3223 79.4316H25.2871L24.3262 82.4375ZM29.9922 84.9746L30.9004 84.7988V78.6758L29.9922 78.5V77.4688H36.4609V79.6309H35.1484L35.0781 78.7871H32.6348V80.627H34.0996C35.0879 80.627 35.8691 80.8691 36.4434 81.3535C37.0176 81.834 37.3047 82.4766 37.3047 83.2812C37.3047 84.0977 37.0156 84.7559 36.4375 85.2559C35.8594 85.752 35.0801 86 34.0996 86H29.9922V84.9746ZM32.6348 81.9453V84.6875H34.0996C34.5801 84.6875 34.9492 84.5547 35.207 84.2891C35.4688 84.0195 35.5996 83.6797 35.5996 83.2695C35.5996 82.8789 35.4707 82.5605 35.2129 82.3145C34.9551 82.0684 34.584 81.9453 34.0996 81.9453H32.6348ZM45.7598 81.7988C45.7598 83.0488 45.4023 84.082 44.6875 84.8984C43.9727 85.7148 43.0371 86.123 41.8809 86.123C40.7285 86.123 39.7969 85.7148 39.0859 84.8984C38.3789 84.082 38.0254 83.0488 38.0254 81.7988V81.6699C38.0254 80.4277 38.3789 79.3965 39.0859 78.5762C39.793 77.7559 40.7227 77.3457 41.875 77.3457C43.0312 77.3457 43.9668 77.7559 44.6816 78.5762C45.4004 79.3965 45.7598 80.4277 45.7598 81.6699V81.7988ZM44.0547 81.6582C44.0547 80.7754 43.8711 80.0586 43.5039 79.5078C43.1367 78.957 42.5938 78.6816 41.875 78.6816C41.1562 78.6816 40.6191 78.9551 40.2637 79.502C39.9121 80.0488 39.7363 80.7676 39.7363 81.6582V81.7988C39.7363 82.6973 39.9141 83.4219 40.2695 83.9727C40.6289 84.5195 41.166 84.793 41.8809 84.793C42.6035 84.793 43.1465 84.5195 43.5098 83.9727C43.873 83.4219 44.0547 82.6973 44.0547 81.7988V81.6582ZM53.793 77.4688V79.7422H52.4805L52.4102 78.7871H50.8398V84.7988L51.7539 84.9746V86H48.2148V84.9746L49.1289 84.7988V78.7871H47.5645L47.4941 79.7422H46.1875V77.4688H53.793ZM56.9336 77.4688V80.627H58.3984C59.3867 80.627 60.168 80.8691 60.7422 81.3535C61.3164 81.834 61.6035 82.4766 61.6035 83.2812C61.6035 84.0977 61.3145 84.7559 60.7363 85.2559C60.1582 85.752 59.3789 86 58.3984 86H54.3086V84.9746L55.2227 84.7988V78.6758L54.3086 78.5V77.4688H55.2227H56.9336ZM61.5977 84.9746L62.5117 84.7988V78.6758L61.5977 78.5V77.4688H65.1309V78.5L64.2168 78.6758V84.7988L65.1309 84.9746V86H61.5977V84.9746ZM56.9336 81.9453V84.6875H58.3984C58.8789 84.6875 59.248 84.5547 59.5059 84.2891C59.7676 84.0195 59.8984 83.6797 59.8984 83.2695C59.8984 82.8789 59.7695 82.5605 59.5117 82.3145C59.2539 82.0684 58.8828 81.9453 58.3984 81.9453H56.9336ZM57.8477 77.4688V78.5L56.9336 78.6758V77.4688H57.8477Z" fill="white"/>
<path d="M27.8594 36.2656L31.7031 35.7969V20.3906H27.8125V17.7812L36.25 16.25V35.7969L40.0938 36.2656V39H27.8594V36.2656ZM42.0156 36.2656L45.8594 35.7969V20.3906H41.9688V17.7812L50.4062 16.25V35.7969L54.25 36.2656V39H42.0156V36.2656Z" fill="white"/>
<path d="M13.9745 14.6158C9.65489 24.6277 12.7203 43.9551 29.5766 49.4424" stroke="#73B2F9" stroke-width="2" stroke-miterlimit="10" stroke-linecap="round" stroke-linejoin="round"/>
<path d="M14.1601 15.0026L17.0621 12.1346C19.4785 9.74535 19.7956 6.02593 18.0082 3.28762L15.108 6.15435C13.7721 7.47654 13.0309 9.23681 13.0186 11.1169C13.008 12.5171 13.4087 13.8576 14.1601 15.0026Z" fill="#73B2F9"/>
<path d="M11.7331 23.5297L11.0416 19.5082C10.4657 16.1593 7.59614 13.7701 4.32666 13.6682L5.0177 17.6867C5.33659 19.5383 6.35649 21.1547 7.89182 22.2406C9.03592 23.0501 10.3645 23.4898 11.7331 23.5297Z" fill="#73B2F9"/>
<path d="M6.06505 42.3719L9.48233 44.5998C12.3286 46.4543 16.0312 45.9765 18.3282 43.65L14.9132 41.4239C13.3385 40.3986 11.4606 40.0468 9.62119 40.434C8.25008 40.7204 7.02517 41.3954 6.06505 42.3719Z" fill="#73B2F9"/>
<path d="M2.3983 29.8147L5.00671 32.9513C7.17926 35.5632 10.8582 36.1985 13.739 34.6519L11.1319 31.5171C9.92954 30.0735 8.23888 29.1834 6.36702 29.0111C4.97356 28.8809 3.60401 29.1641 2.3983 29.8147Z" fill="#73B2F9"/>
<path d="M14.5913 54.76L18.6688 54.8929C22.0645 55.0034 24.9821 52.6749 25.7401 49.4943L21.6657 49.361C19.7882 49.3009 17.9999 49.9739 16.6268 51.2589C15.6031 52.2157 14.9056 53.428 14.5913 54.76Z" fill="#73B2F9"/>
<path d="M66.162 14.616C70.4816 24.628 67.4162 43.9555 50.5598 49.4429" stroke="#73B2F9" stroke-width="2" stroke-miterlimit="10" stroke-linecap="round" stroke-linejoin="round"/>
<path d="M65.9764 15.0019L63.0744 12.1338C60.658 9.74461 60.3409 6.02519 62.1283 3.28689L65.0285 6.15362C66.3644 7.4758 67.1056 9.23608 67.1179 11.1162C67.1285 12.5164 66.7278 13.8569 65.9764 15.0019Z" fill="#73B2F9"/>
<path d="M68.4036 23.5297L69.0951 19.5082C69.671 16.1593 72.5406 13.7701 75.8101 13.6682L75.119 17.6867C74.8001 19.5383 73.7802 21.1547 72.2449 22.2406C71.1008 23.0501 69.7721 23.4898 68.4036 23.5297Z" fill="#73B2F9"/>
<path d="M74.0714 42.3715L70.6542 44.5993C67.8079 46.4539 64.1053 45.976 61.8083 43.6495L65.2233 41.4234C66.7981 40.3981 68.6759 40.0463 70.5153 40.4335C71.8864 40.7199 73.1113 41.3949 74.0714 42.3715Z" fill="#73B2F9"/>
<path d="M77.7382 29.8142L75.1298 32.9508C72.9572 35.5627 69.2783 36.198 66.3975 34.6514L69.0046 31.5167C70.207 30.0731 71.8976 29.1829 73.7695 29.0106C75.1629 28.8805 76.5325 29.1636 77.7382 29.8142Z" fill="#73B2F9"/>
<path d="M65.5452 54.7603L61.4677 54.8931C58.072 55.0037 55.1544 52.6751 54.3963 49.4945L58.4708 49.3612C60.3483 49.3012 62.1366 49.9741 63.5096 51.2592C64.5334 52.2159 65.2309 53.4283 65.5452 54.7603Z" fill="#73B2F9"/>
</svg>
