<svg width="291" height="62" viewBox="0 0 291 62" fill="none" xmlns="http://www.w3.org/2000/svg">
<path fill-rule="evenodd" clip-rule="evenodd" d="M43.7517 8.11698H42.6967C42.2965 8.58868 41.9691 9.38695 41.4962 9.42324C40.5504 9.56838 40.7323 8.51611 41.3143 7.60899C27.4908 4.66991 25.0171 11.9632 24.5442 13.8137C24.0712 15.6643 21.4884 22.7761 34.8755 30.7951C48.2625 38.8141 56.1565 32.7908 56.1565 32.7908C56.1565 32.7908 56.3748 33.6253 55.5381 36.1653C54.4831 39.3221 50.0814 40.7009 46.8438 47.8127C45.425 44.6922 36.4033 38.5964 33.0202 37.2175C29.6371 35.8387 22.798 34.1333 18.942 28.9446C12.3576 20.0185 20.6154 9.31438 20.6154 9.31438L22.3615 7.86298C21.3793 6.19387 19.7423 4.41591 21.925 1.47683C24.144 -1.46226 29.2369 0.569702 31.0194 2.52909L34.7663 2.05739C38.4405 2.09367 40.9142 2.38395 44.1154 3.65393C45.2795 4.08935 45.7888 5.06904 45.8616 5.90359C45.9343 5.86731 45.4614 7.68156 43.7517 8.11698ZM36.5852 7.8267C36.5852 7.8267 28.0001 6.95586 25.6719 13.6323C23.3801 20.2724 28.2911 24.3001 30.3646 25.6063C30.5465 24.3364 30.8739 21.3247 31.4196 21.0707C35.2029 19.4016 38.8043 19.6556 42.0783 20.8167C42.0055 19.0388 41.5326 17.3696 42.1874 15.7005C43.0241 13.596 41.8236 12.1809 41.4235 10.4755C40.0411 10.2215 38.9498 9.85866 36.5852 7.8267ZM42.1146 10.4392C42.7695 12.0358 43.6425 13.5234 43.0241 15.5917C42.442 17.6236 42.5512 19.075 42.9877 20.9256C44.4792 24.8081 53.7192 27.7834 55.9746 27.6746C58.23 27.5294 58.8121 26.2232 59.9034 24.9169C60.9948 23.6107 61.7587 21.0344 61.6132 19.4016C61.8314 18.2042 59.3577 18.6396 57.9754 17.8776C54.9197 16.1722 53.028 13.7049 50.2997 11.3101C48.4808 9.89494 46.7346 9.13296 44.5883 8.33469C43.788 8.98782 42.9513 9.71352 42.1146 10.4392ZM46.8438 6.73815L45.1704 8.00812C47.6805 8.87896 49.7904 9.96751 51.9003 11.7818C54.0102 13.6323 55.9746 16.136 58.4847 17.8051C58.5574 17.3696 57.9754 16.8979 58.7393 16.4988C59.5033 16.0634 60.3399 18.3493 61.2494 18.2768C61.7223 18.2405 61.9406 17.4785 61.9406 16.9705C61.9406 13.5234 57.1751 11.1649 54.4104 9.71352C52.0094 8.40726 49.5357 7.75413 46.8438 6.73815ZM43.9699 32.7182C47.2075 31.9562 49.9723 29.9243 52.9552 27.7472C51.1727 27.4206 49.8268 27.0215 48.2989 26.1869C47.2439 28.7268 45.8252 30.9039 43.9699 32.7182ZM5.4458 12.326C7.11918 15.3377 11.8483 15.374 14.6494 17.4785C16.9776 11.5641 18.3235 10.3666 20.6517 8.04441C19.3421 6.30273 19.1602 5.10533 19.0875 2.85566C13.6308 4.77876 9.99302 7.64527 5.4458 12.326ZM0.389277 25.6063C4.39084 28.1826 9.66562 24.8081 15.8862 25.9329C14.904 23.5744 14.6494 21.2159 14.904 19.1476C10.0658 15.8457 7.81035 19.1476 3.37226 16.0271C1.55337 19.075 0.49841 22.3044 0.389277 25.6063ZM0.0254983 30.2871C-0.156391 33.1173 0.643921 36.129 2.13541 38.8866C5.22753 40.1929 8.3924 39.7938 11.7392 38.3787C9.0472 40.5558 6.28249 41.8983 2.79021 42.6603C3.84517 44.4745 4.93651 46.2162 6.50075 47.9579C10.5023 46.8693 14.1037 44.3657 17.8506 43.3497C14.4675 46.4339 12.3212 50.1713 8.68342 50.9695C11.4118 54.4529 14.2856 56.4849 17.9598 58.3717C22.9799 57.2468 23.562 50.3164 27.2725 46.9782C24.0712 50.9695 25.5264 56.2309 22.2524 60.0771C33.0566 63.887 42.915 60.6213 52.0094 57.646C41.4599 35.4396 19.7423 38.1609 16.2136 27.4206C9.73838 26.078 5.26391 31.6659 0.0254983 30.2871Z" fill="#5596DF"/>
<path d="M77.2192 19.3628H84.2402V27.3092H87.8779L95.8083 19.3628H105.448L94.0985 30.1757L106.94 42.0409H96.7905L87.8779 33.1511H84.2038V42.0046H77.1829V19.3628H77.2192Z" fill="#5596DF"/>
<path d="M108.541 19.2903H125.674C129.421 19.2903 131.859 19.762 133.059 20.6691C134.551 21.7939 135.278 24.1887 135.278 27.8898C135.278 31.5546 134.551 33.9494 133.096 35.0742C131.895 36.0176 129.421 36.4893 125.674 36.4893H115.525V42.0409H108.504V19.2903H108.541ZM115.525 30.5749H125.638C126.475 30.5749 127.093 30.3935 127.53 30.0306C128.039 29.5952 128.294 28.8695 128.294 27.8535C128.294 26.8375 128.039 26.1118 127.53 25.6764C127.093 25.3136 126.475 25.1321 125.638 25.1321H115.525V30.5749Z" fill="#5596DF"/>
<path d="M146.119 19.3628H158.16L169.437 42.0409H161.252L159.069 38.231H145.173L142.99 42.0409H134.805L146.119 19.3628ZM152.703 24.479H151.612L147.829 32.3528H156.45L152.703 24.479Z" fill="#5596DF"/>
<path d="M170.019 19.3629H177.04V27.3093H192.173V19.3629H199.194V42.041H192.173V33.1874H177.04V42.041H170.019V19.3629Z" fill="#5596DF"/>
<path d="M227.86 20.8868C229.133 22.0117 229.788 25.2773 229.788 30.6838C229.788 36.0902 229.097 39.3922 227.751 40.5896C226.369 41.787 222.44 42.3675 215.892 42.3675C210.399 42.3675 206.797 42.041 205.124 41.3879C203.014 40.5533 201.923 38.7028 201.923 35.8725V33.3326H208.944C208.944 34.8928 209.271 35.8363 209.926 36.0902C210.581 36.3805 212.545 36.4894 215.892 36.4894C219.238 36.4894 221.203 36.3442 221.858 36.054C222.512 35.7637 222.84 34.784 222.84 33.1512H212.29V28.2527H222.803C222.803 26.6199 222.476 25.6765 221.821 25.3499C221.166 25.0596 219.166 24.9145 215.855 24.9145C212.545 24.9145 210.544 25.0596 209.889 25.3499C209.235 25.6402 208.907 26.5473 208.907 28.1076H201.886V25.6039C201.886 22.7374 202.941 20.8868 205.087 20.0523C206.761 19.3992 210.362 19.0726 215.855 19.0726C222.44 19.0363 226.441 19.6531 227.86 20.8868Z" fill="#5596DF"/>
<path d="M231.934 19.3629H238.955V27.3093H242.629L250.56 19.3629H260.2L248.85 30.1758L261.691 42.041H251.542L242.666 33.1874H238.991V42.041H231.934V19.3629Z" fill="#5596DF"/>
<path d="M276.497 19C283.009 19 286.974 19.5443 288.502 20.6328C289.811 21.5762 290.466 24.0436 290.466 28.0712H283.445C283.445 26.765 283.081 25.9304 282.39 25.5676C281.517 25.1322 279.553 24.9144 276.497 24.9144C273.077 24.9144 271.077 25.1684 270.495 25.7127C269.913 26.257 269.585 27.9261 269.585 30.72C269.585 33.514 269.876 35.1831 270.495 35.6911C271.077 36.2354 273.077 36.4893 276.497 36.4893C279.589 36.4893 281.517 36.3079 282.317 35.9451C283.081 35.5822 283.481 34.7114 283.481 33.3326H290.502C290.502 37.3602 289.848 39.8638 288.574 40.771C287.083 41.8595 283.045 42.4038 276.497 42.4038C269.949 42.4038 266.02 41.8232 264.638 40.6258C263.255 39.4284 262.601 36.1265 262.601 30.72C262.601 25.3136 263.255 22.0479 264.565 20.9231C265.984 19.6168 269.949 19 276.497 19Z" fill="#5596DF"/>
</svg>
