<svg width="18" height="19" viewBox="0 0 18 19" fill="none" xmlns="http://www.w3.org/2000/svg">
<path class="social-icon" fill-rule="evenodd" clip-rule="evenodd" d="M12.9373 4.81981C12.9373 5.45106 13.4501 5.96283 14.0828 5.96283C14.7155 5.96283 15.2284 5.45106 15.2284 4.81981C15.2284 4.18853 14.7155 3.67676 14.0828 3.67676C13.4501 3.67676 12.9373 4.18853 12.9373 4.81981ZM5.80469 9.90445C5.80469 8.15086 7.22942 6.72933 8.98686 6.72933C10.7443 6.72933 12.169 8.15086 12.169 9.90445C12.169 11.658 10.7443 13.0795 8.98686 13.0795C7.22942 13.0795 5.80469 11.658 5.80469 9.90445ZM8.98717 14.7964C6.27975 14.7964 4.08496 12.6064 4.08496 9.90502C4.08496 7.20359 6.27975 5.01367 8.98717 5.01367C11.6946 5.01367 13.8894 7.20359 13.8894 9.90502C13.8894 12.6064 11.6946 14.7964 8.98717 14.7964ZM16.7368 2.20069C16.3527 1.81654 15.9869 1.57863 15.4745 1.37951C15.0877 1.22914 14.5064 1.05033 13.436 1.00149C12.2784 0.948678 11.9312 0.9375 8.99998 0.9375C6.06873 0.9375 5.72152 0.948678 4.56389 1.00149C3.49358 1.05033 2.9123 1.22914 2.52547 1.37951C2.01303 1.57863 1.64735 1.81654 1.26319 2.20069C0.879044 2.58485 0.641133 2.95057 0.441966 3.46297C0.291639 3.8498 0.112825 4.43112 0.0639851 5.50143C0.0111784 6.65902 0 7.00623 0 9.93748C0 12.8688 0.0111784 13.2159 0.0639851 14.3736C0.112825 15.4439 0.291639 16.0252 0.441966 16.412C0.641133 16.9244 0.879044 17.2902 1.26319 17.6743C1.64735 18.0585 2.01303 18.2964 2.52547 18.4955C2.9123 18.6458 3.49358 18.8247 4.56393 18.8735C5.72136 18.9263 6.06853 18.9375 8.99998 18.9375C11.9314 18.9375 12.2786 18.9263 13.436 18.8735C14.5064 18.8247 15.0877 18.6458 15.4745 18.4955C15.9869 18.2964 16.3527 18.0585 16.7368 17.6743C17.1209 17.2902 17.3589 16.9244 17.558 16.412C17.7083 16.0252 17.8872 15.4439 17.936 14.3736C17.9888 13.2159 18 12.8688 18 9.93748C18 7.00623 17.9888 6.65902 17.936 5.50143C17.8872 4.43112 17.7083 3.8498 17.558 3.46297C17.3589 2.95057 17.1209 2.58485 16.7368 2.20069Z" fill="#262626"/>
</svg>
