<svg width="62" height="62" viewBox="0 0 62 62" fill="none" xmlns="http://www.w3.org/2000/svg">
<path class="logo" d="M43.7517 8.11698H42.6967C42.2965 8.58868 41.9691 9.38695 41.4962 9.42324C40.5504 9.56838 40.7323 8.51611 41.3143 7.60899C27.4908 4.66991 25.0171 11.9632 24.5442 13.8137C24.0712 15.6643 21.4884 22.7761 34.8755 30.7951C48.2625 38.8141 56.1565 32.7908 56.1565 32.7908C56.1565 32.7908 56.3748 33.6253 55.5381 36.1653C54.4831 39.3221 50.0814 40.7009 46.8438 47.8127C45.425 44.6922 36.4033 38.5964 33.0202 37.2175C29.6371 35.8387 22.798 34.1333 18.942 28.9446C12.3576 20.0185 20.6154 9.31438 20.6154 9.31438L22.3615 7.86298C21.3793 6.19387 19.7423 4.41591 21.925 1.47683C24.144 -1.46226 29.2369 0.569702 31.0194 2.52909L34.7663 2.05739C38.4405 2.09367 40.9142 2.38395 44.1154 3.65393C45.2795 4.08935 45.7888 5.06904 45.8616 5.90359C45.9343 5.86731 45.4614 7.68156 43.7517 8.11698ZM36.5852 7.8267C36.5852 7.8267 28.0001 6.95586 25.6719 13.6323C23.3801 20.2724 28.2911 24.3001 30.3646 25.6063C30.5465 24.3364 30.8739 21.3247 31.4196 21.0707C35.2029 19.4016 38.8043 19.6556 42.0783 20.8167C42.0055 19.0388 41.5326 17.3696 42.1874 15.7005C43.0241 13.596 41.8236 12.1809 41.4235 10.4755C40.0411 10.2215 38.9498 9.85866 36.5852 7.8267ZM42.1146 10.4392C42.7695 12.0358 43.6425 13.5234 43.0241 15.5917C42.442 17.6236 42.5512 19.075 42.9877 20.9256C44.4792 24.8081 53.7192 27.7834 55.9746 27.6746C58.23 27.5294 58.8121 26.2232 59.9034 24.9169C60.9948 23.6107 61.7587 21.0344 61.6132 19.4016C61.8314 18.2042 59.3577 18.6396 57.9754 17.8776C54.9197 16.1722 53.028 13.7049 50.2997 11.3101C48.4808 9.89494 46.7346 9.13296 44.5883 8.33469C43.788 8.98782 42.9513 9.71352 42.1146 10.4392ZM46.8438 6.73815L45.1704 8.00812C47.6805 8.87896 49.7904 9.96751 51.9003 11.7818C54.0102 13.6323 55.9746 16.136 58.4847 17.8051C58.5574 17.3696 57.9754 16.8979 58.7393 16.4988C59.5033 16.0634 60.3399 18.3493 61.2494 18.2768C61.7223 18.2405 61.9406 17.4785 61.9406 16.9705C61.9406 13.5234 57.1751 11.1649 54.4104 9.71352C52.0094 8.40726 49.5357 7.75413 46.8438 6.73815ZM43.9699 32.7182C47.2075 31.9562 49.9723 29.9243 52.9552 27.7472C51.1727 27.4206 49.8268 27.0215 48.2989 26.1869C47.2439 28.7268 45.8252 30.9039 43.9699 32.7182ZM5.4458 12.326C7.11918 15.3377 11.8483 15.374 14.6494 17.4785C16.9776 11.5641 18.3235 10.3666 20.6517 8.04441C19.3421 6.30273 19.1602 5.10533 19.0875 2.85566C13.6308 4.77876 9.99302 7.64527 5.4458 12.326ZM0.389277 25.6063C4.39084 28.1826 9.66562 24.8081 15.8862 25.9329C14.904 23.5744 14.6494 21.2159 14.904 19.1476C10.0658 15.8457 7.81035 19.1476 3.37226 16.0271C1.55337 19.075 0.49841 22.3044 0.389277 25.6063ZM0.0254983 30.2871C-0.156391 33.1173 0.643921 36.129 2.13541 38.8866C5.22753 40.1929 8.3924 39.7938 11.7392 38.3787C9.0472 40.5558 6.28249 41.8983 2.79021 42.6603C3.84517 44.4745 4.93651 46.2162 6.50075 47.9579C10.5023 46.8693 14.1037 44.3657 17.8506 43.3497C14.4675 46.4339 12.3212 50.1713 8.68342 50.9695C11.4118 54.4529 14.2856 56.4849 17.9598 58.3717C22.9799 57.2468 23.562 50.3164 27.2725 46.9782C24.0712 50.9695 25.5264 56.2309 22.2524 60.0771C33.0566 63.887 42.915 60.6213 52.0094 57.646C41.4599 35.4396 19.7423 38.1609 16.2136 27.4206C9.73838 26.078 5.26391 31.6659 0.0254983 30.2871Z" fill="#5596DF"/>
</svg>
