<svg width="60" height="81" viewBox="0 0 60 81" fill="none" xmlns="http://www.w3.org/2000/svg">
<ellipse cx="29.9998" cy="77.9761" rx="8.33333" ry="2.5" fill="black" fill-opacity="0.2"/>
<path d="M60 30.6598C60 52.9761 33.6 77.1427 30 77.1427C26.4 77.1427 0 53.8094 0 30.6598C0 13.9898 13.4315 0.476074 30 0.476074C46.5685 0.476074 60 13.9898 60 30.6598Z" fill="#509FF3"/>
<path fill-rule="evenodd" clip-rule="evenodd" d="M39.4312 16.1674H38.7215C38.4524 16.4981 38.2321 17.0578 37.914 17.0833C37.2778 17.185 37.4001 16.4472 37.7917 15.8112C28.4927 13.7504 26.8287 18.8642 26.5106 20.1617C26.1924 21.4592 24.455 26.4457 33.4603 32.0683C42.4656 37.6909 47.7758 33.4676 47.7758 33.4676C47.7758 33.4676 47.9226 34.0527 47.3598 35.8336C46.6501 38.047 43.6891 39.0138 41.5112 44.0004C40.5569 41.8124 34.4881 37.5382 32.2123 36.5714C29.9365 35.6047 25.336 34.4089 22.742 30.7708C18.3128 24.5122 23.8677 17.0069 23.8677 17.0069L25.0423 15.9893C24.3816 14.819 23.2804 13.5723 24.7486 11.5116C26.2414 9.4508 29.6673 10.8755 30.8664 12.2494L33.3869 11.9186C35.8584 11.9441 37.5225 12.1476 39.6759 13.0381C40.459 13.3434 40.8016 14.0303 40.8505 14.6154C40.8995 14.59 40.5813 15.8621 39.4312 16.1674ZM34.6104 15.9638C34.6104 15.9638 28.8353 15.3532 27.2692 20.0345C25.7275 24.6903 29.0311 27.5143 30.4259 28.4302C30.5483 27.5397 30.7685 25.4281 31.1356 25.25C33.6805 24.0797 36.1032 24.2578 38.3055 25.0719C38.2566 23.8252 37.9385 22.6549 38.379 21.4846C38.9418 20.009 38.1342 19.0168 37.8651 17.8211C36.9352 17.643 36.201 17.3885 34.6104 15.9638ZM38.33 17.7956C38.7705 18.915 39.3578 19.9581 38.9418 21.4083C38.5503 22.833 38.6237 23.8507 38.9173 25.1482C39.9206 27.8704 46.1362 29.9566 47.6534 29.8803C49.1706 29.7786 49.5622 28.8627 50.2963 27.9468C51.0304 27.0309 51.5443 25.2245 51.4464 24.0797C51.5933 23.2401 49.9292 23.5454 48.9993 23.0111C46.9438 21.8154 45.6713 20.0853 43.836 18.4062C42.6124 17.414 41.4378 16.8797 39.994 16.32C39.4557 16.778 38.8928 17.2868 38.33 17.7956ZM41.5112 15.2006L40.3856 16.091C42.0741 16.7016 43.4934 17.4649 44.9127 18.7369C46.332 20.0345 47.6534 21.7899 49.3419 22.9602C49.3909 22.6549 48.9993 22.3242 49.5132 22.0443C50.0271 21.739 50.59 23.3419 51.2017 23.291C51.5198 23.2655 51.6667 22.7313 51.6667 22.3751C51.6667 19.9581 48.461 18.3044 46.6012 17.2868C44.9861 16.3709 43.3221 15.9129 41.5112 15.2006ZM39.578 33.4167C41.7559 32.8824 43.6157 31.4577 45.6223 29.9312C44.4233 29.7022 43.5178 29.4224 42.4901 28.8372C41.7804 30.6181 40.826 32.1446 39.578 33.4167ZM13.6633 19.1186C14.789 21.2302 17.9702 21.2557 19.8545 22.7313C21.4206 18.5843 22.326 17.7447 23.8922 16.1165C23.0112 14.8953 22.8889 14.0557 22.8399 12.4783C19.1693 13.8267 16.7222 15.8366 13.6633 19.1186ZM10.2619 28.4302C12.9537 30.2365 16.5019 27.8704 20.6865 28.6591C20.0258 27.0054 19.8545 25.3517 20.0258 23.9016C16.7711 21.5864 15.2539 23.9016 12.2685 21.7136C11.0449 23.8507 10.3353 26.115 10.2619 28.4302ZM10.0172 31.7121C9.8948 33.6965 10.4332 35.8082 11.4365 37.7417C13.5165 38.6576 15.6455 38.3778 17.8968 37.3856C16.0859 38.9121 14.2262 39.8534 11.8769 40.3877C12.5866 41.6597 13.3207 42.8809 14.373 44.1021C17.0648 43.3389 19.4874 41.5834 22.0079 40.871C19.7321 43.0336 18.2883 45.654 15.8412 46.2138C17.6766 48.6561 19.6098 50.0809 22.0813 51.4038C25.4583 50.6151 25.8498 45.7558 28.3459 43.4152C26.1924 46.2138 27.1713 49.9028 24.9689 52.5996C32.2368 55.2709 38.8684 52.9812 44.9861 50.895C37.8895 35.3248 23.2804 37.2329 20.9067 29.7022C16.5509 28.7609 13.541 32.6789 10.0172 31.7121Z" fill="white"/>
</svg>
