<svg width="440" height="441" viewBox="0 0 440 441" fill="none" xmlns="http://www.w3.org/2000/svg">
<path fill-rule="evenodd" clip-rule="evenodd" d="M310.793 58.7264H303.3C300.457 62.0847 298.131 67.7679 294.772 68.0262C288.053 69.0596 289.345 61.568 293.48 55.1098C195.283 34.1851 177.711 86.1093 174.351 99.284C170.992 112.459 152.645 163.091 247.741 220.182C342.837 277.273 398.912 234.39 398.912 234.39C398.912 234.39 400.463 240.332 394.519 258.415C387.025 280.889 355.757 290.706 332.759 341.338C322.681 319.122 258.594 275.723 234.562 265.906C210.529 256.09 161.948 243.948 134.556 207.007C87.7831 143.458 146.443 67.2512 146.443 67.2512L158.847 56.9181C151.87 45.035 140.241 32.3768 155.746 11.4522C171.509 -9.47246 207.687 4.99396 220.349 18.9437L246.965 15.5854C273.065 15.8438 290.637 17.9104 313.378 26.9519C321.647 30.0519 325.265 37.0267 325.781 42.9683C326.298 42.71 322.939 55.6264 310.793 58.7264ZM259.886 56.6598C259.886 56.6598 198.901 50.4599 182.362 97.9924C166.082 145.267 200.968 173.941 215.698 183.241C216.99 174.199 219.315 152.758 223.192 150.95C250.066 139.067 275.649 140.875 298.907 149.142C298.39 136.483 295.03 124.6 299.682 112.717C305.625 97.7341 297.098 87.6592 294.255 75.5178C284.435 73.7095 276.683 71.1262 259.886 56.6598ZM299.165 75.2594C303.816 86.6259 310.018 97.2174 305.625 111.942C301.491 126.409 302.266 136.742 305.367 149.917C315.962 177.558 381.599 198.741 397.62 197.966C413.642 196.932 417.776 187.633 425.529 178.333C433.281 169.033 438.708 150.692 437.674 139.067C439.225 130.542 421.653 133.642 411.833 128.217C390.126 116.075 376.689 98.5091 357.308 81.4593C344.387 71.3845 331.983 65.9596 316.737 60.2764C311.052 64.9263 305.108 70.0929 299.165 75.2594ZM332.759 48.9099L320.872 57.9514C338.702 64.1513 353.69 71.9012 368.678 84.8176C383.666 97.9924 397.62 115.817 415.451 127.7C415.968 124.6 411.833 121.242 417.26 118.4C422.686 115.3 428.63 131.575 435.09 131.059C438.45 130.8 440 125.375 440 121.759C440 97.2174 406.148 80.426 386.509 70.0929C369.453 60.793 351.881 56.1431 332.759 48.9099ZM312.344 233.873C335.343 228.449 354.982 213.982 376.172 198.482C363.51 196.157 353.948 193.316 343.095 187.374C335.601 205.457 325.523 220.957 312.344 233.873ZM38.6847 88.6926C50.5717 110.134 84.1653 110.392 104.063 125.375C120.602 83.2676 130.163 74.7428 146.701 58.2097C137.398 45.8099 136.106 37.2851 135.59 21.2687C96.8276 34.9601 70.9863 55.3681 38.6847 88.6926ZM2.76526 183.241C31.1907 201.582 68.6606 177.558 112.849 185.566C105.872 168.775 104.063 151.983 105.872 137.258C71.5031 113.75 55.4815 137.258 23.9551 115.042C11.0345 136.742 3.5405 159.733 2.76526 183.241ZM0.181129 216.565C-1.11094 236.715 4.57415 258.156 15.1691 277.789C37.1342 287.089 59.6161 284.248 83.3901 274.173C64.2675 289.673 44.6282 299.231 19.8205 304.656C27.3145 317.572 35.0669 329.972 46.1786 342.372C74.6041 334.622 100.187 316.797 126.803 309.564C102.771 331.522 87.5247 358.13 61.6834 363.813C81.0644 388.613 101.479 403.079 127.579 416.512C163.24 408.504 167.374 359.163 193.732 335.397C170.992 363.813 181.329 401.271 158.071 428.654C234.82 455.778 304.85 432.528 369.453 411.345C294.513 253.248 140.241 272.623 115.175 196.157C69.1774 186.599 37.3926 226.382 0.181129 216.565Z" fill="#F8FBFE"/>
</svg>
