<svg width="12" height="19" viewBox="0 0 12 19" fill="none" xmlns="http://www.w3.org/2000/svg">
<path class="social-icon" fill-rule="evenodd" clip-rule="evenodd" d="M10.6749 4.48393C11.3343 7.17153 9.28373 9.34017 7.04784 9.80958C1.11347 11.0601 -1.44775 2.77027 4.88436 1.10077C7.78735 0.336744 10.1584 2.38736 10.6749 4.48393ZM8.27198 4.89919C7.97946 3.87749 6.83159 2.94408 5.39989 3.32068C2.32023 4.12255 3.60519 8.31839 6.60472 7.56787C7.66184 7.30389 8.64559 6.20921 8.27198 4.89919ZM2.76048 10.5678C4.74928 11.6229 7.35721 11.6012 9.32112 10.5189C9.42529 10.462 9.52508 10.3959 9.62591 10.3291C9.93266 10.1258 10.2492 9.91608 10.7286 9.93926C11.5856 9.98364 13.3176 11.3503 10.2707 12.7768C9.16107 13.2951 8.7536 13.3729 8.22265 13.4743C7.95298 13.5258 7.65145 13.5834 7.20989 13.7078C7.3764 14.0122 8.72395 15.2062 9.69474 16.0664C10.0413 16.3735 10.3399 16.6381 10.5196 16.8044C11.6553 17.855 10.6888 19.0487 9.52418 18.9291C8.7846 18.8521 6.46334 16.5662 6.04229 16.0961C5.62141 16.2918 5.05748 16.8445 4.48033 17.4102C3.75938 18.1168 3.0178 18.8436 2.50864 18.9201C1.29824 19.1021 0.288913 17.8233 1.51922 16.7183L4.79009 13.7287C4.6162 13.6429 4.22948 13.5672 3.85255 13.4933C3.58866 13.4416 3.32957 13.3909 3.15167 13.3383C-1.61627 11.9191 0.0828667 9.8179 1.44855 9.94379C1.80732 9.97749 2.13959 10.1867 2.43996 10.3758C2.55127 10.4459 2.6582 10.5132 2.76048 10.5678Z" fill="#262626"/>
</svg>
