<svg width="209" height="31" viewBox="0 0 209 31" fill="none" xmlns="http://www.w3.org/2000/svg">
<rect y="0.9375" width="55" height="30" rx="3" fill="white"/>
<rect y="0.9375" width="55" height="30" rx="3" fill="white"/>
<rect y="0.9375" width="55" height="30" rx="3" fill="white"/>
<path d="M30.8694 9.69336H23.1338V22.6018H30.8694V9.69336Z" fill="#FF5F00"/>
<path d="M23.9306 16.1491C23.9296 14.9062 24.2054 13.6793 24.7371 12.5613C25.2688 11.4433 26.0424 10.4635 26.9994 9.69605C25.8141 8.74433 24.3906 8.15251 22.8917 7.98824C21.3927 7.82396 19.8788 8.09385 18.5228 8.76707C17.1669 9.44028 16.0237 10.4897 15.2239 11.7953C14.4241 13.1009 14 14.61 14 16.1503C14 17.6905 14.4241 19.1997 15.2239 20.5053C16.0237 21.8109 17.1669 22.8603 18.5228 23.5335C19.8788 24.2067 21.3927 24.4766 22.8917 24.3123C24.3906 24.148 25.8141 23.5562 26.9994 22.6045C26.0421 21.8368 25.2683 20.8567 24.7366 19.7383C24.2049 18.6198 23.9293 17.3925 23.9306 16.1491Z" fill="#EB001B"/>
<path d="M40.0001 16.1485C40.0001 17.6888 39.5758 19.1981 38.7759 20.5037C37.976 21.8094 36.8326 22.8587 35.4765 23.5318C34.1204 24.205 32.6063 24.4747 31.1073 24.3102C29.6082 24.1457 28.1847 23.5535 26.9995 22.6015C27.9562 21.8334 28.7296 20.8534 29.2614 19.7353C29.7932 18.6172 30.0695 17.3904 30.0695 16.1473C30.0695 14.9042 29.7932 13.6774 29.2614 12.5593C28.7296 11.4413 27.9562 10.4612 26.9995 9.6931C28.1847 8.74108 29.6082 8.14897 31.1073 7.98446C32.6063 7.81994 34.1204 8.08966 35.4765 8.76278C36.8326 9.4359 37.976 10.4853 38.7759 11.7909C39.5758 13.0966 40.0001 14.6058 40.0001 16.1462V16.1485Z" fill="#F79E1B"/>
<rect x="77" y="0.9375" width="55" height="30" rx="3" fill="white"/>
<rect x="77" y="0.9375" width="55" height="30" rx="3" fill="white"/>
<rect x="77" y="0.9375" width="55" height="30" rx="3" fill="white"/>
<g clip-path="url(#clip0)">
<path d="M97.5576 22.7358L99.9369 9.17285H103.742L101.361 22.7358H97.5576Z" fill="#0058A0"/>
<path d="M115.162 9.50701C114.408 9.23239 113.227 8.9375 111.752 8.9375C107.992 8.9375 105.343 10.777 105.321 13.4136C105.3 15.3624 107.211 16.4495 108.655 17.0985C110.136 17.7633 110.634 18.1871 110.627 18.781C110.618 19.6901 109.444 20.1055 108.35 20.1055C106.827 20.1055 106.018 19.9 104.768 19.3937L104.278 19.178L103.744 22.2139C104.633 22.5925 106.276 22.9206 107.983 22.9375C111.983 22.9375 114.58 21.1191 114.609 18.3037C114.623 16.7607 113.61 15.5866 111.414 14.6186C110.084 13.9911 109.269 13.5726 109.278 12.9371C109.278 12.3733 109.968 11.7705 111.457 11.7705C112.702 11.7518 113.603 12.0152 114.305 12.2901L114.646 12.4468L115.162 9.50701Z" fill="#0058A0"/>
<path d="M124.92 9.18652H121.98C121.069 9.18652 120.387 9.42815 119.987 10.3113L114.336 22.7409H118.331C118.331 22.7409 118.985 21.0696 119.133 20.7027C119.569 20.7027 123.451 20.7084 124.006 20.7084C124.12 21.1831 124.469 22.7407 124.469 22.7407H128L124.92 9.18652ZM120.228 17.9284C120.543 17.1469 121.744 14.137 121.744 14.137C121.722 14.1731 122.056 13.3518 122.249 12.8426L122.506 14.012C122.506 14.012 123.235 17.2495 123.387 17.9284H120.228Z" fill="#0058A0"/>
<path d="M94.366 9.18262L90.6404 18.4317L90.2436 16.5522C89.5501 14.3854 87.3893 12.038 84.9736 10.8626L88.3801 22.724L92.4063 22.7196L98.3967 9.18262H94.366Z" fill="#0058A0"/>
<path d="M87.1845 9.1748H81.0487L81 9.45696C85.7739 10.5796 88.9325 13.2928 90.2437 16.5527L88.9095 10.3198C88.6789 9.46112 88.0109 9.20468 87.1845 9.1748Z" fill="#FAA61A"/>
</g>
<rect x="154" y="0.9375" width="55" height="30" rx="3" fill="white"/>
<rect x="154" y="0.9375" width="55" height="30" rx="3" fill="white"/>
<rect x="154" y="0.9375" width="55" height="30" rx="3" fill="white"/>
<path d="M187.074 7.23996L187.933 8.05732L177.086 14.5451L171.834 11.3779L172.325 10.356L177.086 13.1915L187.074 7.23996ZM184.89 5.9375L186.043 6.55089L177.086 11.9146L172.914 9.43696L173.626 8.54292L177.086 10.6116L184.89 5.9375ZM188.693 8.90024L189.331 9.79427L177.086 17.1249L171.172 13.5999L171.442 12.4759L177.086 15.8475L188.693 8.90024Z" fill="#006236"/>
<path d="M190.46 12.1949C190.82 13.2508 191 14.3573 191 15.5155C191 16.6736 190.82 17.7971 190.46 18.8866L190.215 19.5772C189.708 20.8195 188.996 21.9265 188.079 22.8977C187.147 23.8504 186.084 24.5831 184.889 25.0942C183.63 25.6565 182.329 25.9371 180.987 25.9371C179.629 25.9371 178.329 25.6555 177.085 25.0942C175.924 24.5831 174.869 23.8504 173.92 22.8977C172.987 21.9265 172.275 20.82 171.785 19.5772C171.262 18.2652 171 16.9116 171 15.5155V14.8254L177.086 18.4271L189.92 10.7646L190.46 12.1949Z" fill="#006236"/>
<defs>
<clipPath id="clip0">
<rect width="47" height="14" fill="white" transform="translate(81 8.9375)"/>
</clipPath>
</defs>
</svg>
