<svg width="15" height="14" viewBox="0 0 15 14" fill="white" xmlns="http://www.w3.org/2000/svg">
<path d="M12.579 10.2163V11.8838C12.5797 12.0386 12.5479 12.1918 12.4857 12.3337C12.4236 12.4755 12.3325 12.6028 12.2182 12.7075C12.1039 12.8121 11.9689 12.8918 11.822 12.9414C11.6751 12.991 11.5194 13.0094 11.3649 12.9955C9.65107 12.8096 8.00483 12.2252 6.55845 11.2891C5.21278 10.4357 4.07188 9.29702 3.21678 7.95401C2.27553 6.50394 1.68978 4.85297 1.50696 3.13487C1.49304 2.98116 1.51135 2.82624 1.56071 2.67998C1.61007 2.53372 1.6894 2.39932 1.79366 2.28533C1.89792 2.17135 2.02481 2.08028 2.16627 2.01792C2.30772 1.95556 2.46064 1.92328 2.61528 1.92313H4.28612C4.5564 1.92048 4.81844 2.016 5.02338 2.1919C5.22832 2.3678 5.36218 2.61207 5.40001 2.87918C5.47053 3.41283 5.60131 3.9368 5.78987 4.4411C5.8648 4.64004 5.88102 4.85626 5.8366 5.06413C5.79218 5.27199 5.68898 5.46279 5.53924 5.61392L4.83192 6.31984C5.62476 7.71141 6.77925 8.86361 8.17359 9.65489L8.88091 8.94897C9.03234 8.79952 9.22352 8.69653 9.43179 8.6522C9.64007 8.60787 9.85672 8.62405 10.0561 8.69884C10.5614 8.88702 11.0864 9.01755 11.6211 9.08793C11.8916 9.12602 12.1387 9.26202 12.3153 9.47007C12.492 9.67811 12.5858 9.94369 12.579 10.2163Z" stroke="#818B96" stroke-width="1.5" stroke-linecap="round" stroke-linejoin="round"/>
<path d="M8.88696 3.32221C9.45401 3.43284 9.97514 3.71016 10.3837 4.11869C10.7922 4.52721 11.0695 5.04834 11.1801 5.61538M8.88696 1C10.0651 1.13088 11.1636 1.65845 12.0023 2.49609C12.841 3.33372 13.37 4.43165 13.5023 5.60958" stroke="#5596DF" stroke-width="1.5" stroke-linecap="round" stroke-linejoin="round"/>
</svg>
