<svg width="38" height="38" viewBox="0 0 38 38" fill="none" xmlns="http://www.w3.org/2000/svg">
<circle cx="19" cy="19" r="19" fill="#F3F7FC"/>
<path d="M19.5 9.08135L23.0139 8.45923C23.2701 8.41391 23.5296 8.39111 23.7896 8.39111H23.7957C25.3598 8.39111 26.8415 9.19396 27.6175 10.5566C28.114 11.4287 28.5 12.6023 28.5 14.1443C28.5 15.4712 28.1546 16.7753 27.4979 17.927L26.4925 19.6904C26.0156 20.5264 25.7181 21.4548 25.6354 22.4145C25.4441 24.6377 24.7707 26.7976 23.6566 28.7409L22.9873 29.9085C22.8162 30.2071 22.4993 30.3911 22.156 30.3911C21.6263 30.3911 21.1971 29.9604 21.1971 29.429V27.5848C21.1971 26.6452 21.0299 25.713 20.7036 24.8321L20.4378 24.1152C20.2875 23.7101 19.9021 23.4412 19.4715 23.4412C19.0314 23.4412 18.6397 23.7216 18.4965 24.1394L18.2304 24.9159C17.9474 25.7418 17.8031 26.6095 17.8031 27.4829V29.4284C17.8031 29.9599 17.3737 30.3906 16.8443 30.3906C16.501 30.3906 16.184 30.2065 16.0129 29.908L15.3437 28.7404C14.2296 26.7971 13.5565 24.6371 13.3649 22.414C13.2822 21.4543 12.9847 20.5259 12.5078 19.6898L11.5024 17.9265C10.8454 16.7753 10.5 15.4712 10.5 14.1443C10.5 12.5987 10.8876 11.4232 11.3858 10.5505C12.1624 9.19094 13.6427 8.39111 15.2043 8.39111H15.2104C15.4704 8.39111 15.7299 8.41391 15.9861 8.45923L19.5 9.08135Z" stroke="#89AEC4" stroke-width="1.2" stroke-miterlimit="10" stroke-linecap="round" stroke-linejoin="round"/>
<path d="M18.6544 11.1481L16.5286 10.6792C15.5949 10.4732 14.5966 10.7605 13.9788 11.4925C13.9345 11.545 13.8912 11.6002 13.8488 11.6587C13.4864 12.158 13.3232 12.7741 13.3232 13.3921" stroke="#89AEC4" stroke-width="1.2" stroke-miterlimit="10" stroke-linecap="round" stroke-linejoin="round"/>
</svg>
