<svg width="38" height="38" viewBox="0 0 38 38" fill="none" xmlns="http://www.w3.org/2000/svg">
<circle cx="19" cy="19" r="19" fill="#F0F8F7"/>
<path d="M15.7305 10.2559V19.9082H19.9961C21.6549 19.9082 22.9674 19.4753 23.9336 18.6094C24.9089 17.7435 25.3965 16.5677 25.3965 15.082C25.3965 13.5872 24.9134 12.4115 23.9473 11.5547C22.9811 10.6888 21.6641 10.2559 19.9961 10.2559H15.7305ZM21.6914 24.9668H15.7305V29H14.6367V24.9668H11.9023V24.0781H14.6367V20.8789H11.9023V19.9082H14.6367V9.27148H20.1738C22.0879 9.27148 23.6191 9.80469 24.7676 10.8711C25.9251 11.9284 26.5039 13.332 26.5039 15.082C26.5039 16.832 25.9251 18.2357 24.7676 19.293C23.61 20.3503 22.0742 20.8789 20.1602 20.8789H15.7305V24.0781H21.6914V24.9668Z" fill="#00BEB4"/>
</svg>
