<svg width="20" height="23" viewBox="0 0 20 23" fill="none" xmlns="http://www.w3.org/2000/svg">
<path class="service_path" d="M5.7649 4.33996L7.62559 4.03349C7.76113 4.01116 7.89846 4 8.03652 4H8.03976C8.86809 4 9.65281 4.39578 10.0637 5.06705C10.3269 5.49668 10.5312 6.07504 10.5312 6.83527C10.5312 7.48925 10.3481 8.13208 10.0007 8.69963L9.46826 9.56862C9.21594 9.9806 9.05805 10.4383 9.01444 10.9112C8.91315 12.0067 8.55666 13.0712 7.96659 14.0291L7.61225 14.6046C7.52178 14.7515 7.35381 14.8423 7.17214 14.8423C6.8917 14.8423 6.66425 14.6298 6.66425 14.368V13.4594C6.66425 12.9963 6.57558 12.5368 6.40292 12.1028L6.26234 11.7495C6.18268 11.5497 5.97866 11.4175 5.75049 11.4175C5.51727 11.4175 5.31001 11.5558 5.23431 11.7618L5.09337 12.1446C4.94342 12.5519 4.867 12.9794 4.867 13.4097V14.3684C4.867 14.6302 4.63955 14.8427 4.35911 14.8427C4.17744 14.8427 4.00947 14.7519 3.919 14.605L3.56466 14.0295C2.97459 13.0716 2.6181 12.0074 2.51681 10.9115C2.47319 10.4387 2.31531 9.98096 2.06299 9.56898L1.53059 8.69999C1.18275 8.13244 1 7.48961 1 6.83563C1 6.07396 1.2051 5.49452 1.46896 5.06453C1.88024 4.39434 2.66388 4.00036 3.49113 4.00036H3.49437C3.63207 4.00036 3.7694 4.01152 3.9053 4.03385L5.7649 4.33996Z" stroke="#033067" stroke-width="1.5" stroke-miterlimit="10" stroke-linecap="round" stroke-linejoin="round"/>
<path class="service_path" d="M8.5708 22V19.4674C8.5708 18.2517 9.54714 17.2624 10.7637 17.2446C12.2213 17.2235 14.135 17.1526 15.3322 17.1037C16.0099 17.076 16.5142 16.4737 16.4286 15.8015C16.3768 15.395 16.2844 14.9777 16.1311 14.6932C16.022 14.4911 15.9846 14.2708 15.9822 14.0689C15.978 13.7209 16.1837 13.4043 16.4969 13.2519L16.5082 13.2464C16.6238 13.1902 16.6791 13.0765 16.7003 12.9468C16.757 12.6007 16.5571 12.2624 16.2439 12.1047L14.4205 11.1868C14.4205 11.1868 17.0156 10.1371 16.8774 9.83959C16.7392 9.54207 16.3321 8.51617 16.3321 8.51617C16.3315 8.40532 17.1087 7.97211 17.1087 7.97211C18.0524 7.41943 18.2787 6.88243 18.2698 6.48399C18.269 6.45053 18.2656 6.40896 18.2575 6.36111C18.2086 6.07431 18.0204 5.83169 17.7656 5.69078C17.4157 5.49731 16.9651 5.23273 16.4592 4.89469C15.3921 4.18174 14.8507 3.81258 14.4613 3.19062C14.2501 2.85336 13.8895 2.14067 13.9254 1" stroke="#3B434B" stroke-width="1.5" stroke-miterlimit="10" stroke-linecap="round" stroke-linejoin="round"/>
</svg>
