<svg width="115" height="19" viewBox="0 0 115 19" fill="none" xmlns="http://www.w3.org/2000/svg">
<path d="M9.50018 0L12.4355 5.92516L19 6.87556L14.2499 11.4874L15.3712 18L9.50018 14.9253L3.62879 18L4.75009 11.4874L0 6.87556L6.56448 5.92516L9.50018 0Z" fill="#FFD749"/>
<path d="M33.5002 0.21582L36.4355 6.14098L43 7.09138L38.2499 11.7032L39.3712 18.2158L33.5002 15.1412L27.6288 18.2158L28.7501 11.7032L24 7.09138L30.5645 6.14098L33.5002 0.21582Z" fill="#FFD749"/>
<path d="M57.5002 0.21582L60.4355 6.14098L67 7.09138L62.2499 11.7032L63.3712 18.2158L57.5002 15.1412L51.6288 18.2158L52.7501 11.7032L48 7.09138L54.5645 6.14098L57.5002 0.21582Z" fill="#FFD749"/>
<path d="M81.5002 0.431641L84.4355 6.3568L91 7.3072L86.2499 11.919L87.3712 18.4316L81.5002 15.357L75.6288 18.4316L76.7501 11.919L72 7.3072L78.5645 6.3568L81.5002 0.431641Z" fill="#FFD749"/>
<path d="M105.5 0.21582L108.436 6.14098L115 7.09138L110.25 11.7032L111.371 18.2158L105.5 15.1412L99.6288 18.2158L100.75 11.7032L96 7.09138L102.564 6.14098L105.5 0.21582Z" fill="#EAEAEA"/>
</svg>
