<svg width="36" height="34" viewBox="0 0 36 34" fill="none" xmlns="http://www.w3.org/2000/svg">
<path d="M13.1463 23.254C12.9469 23.4246 12.791 23.6475 12.7017 23.9072L12.3124 25.0367C11.8982 26.2384 11.6871 27.5001 11.6871 28.7706V31.6005C11.6871 32.3735 11.0586 33 10.2839 33C9.7816 33 9.31774 32.7323 9.06739 32.298L8.08801 30.5996C6.45771 27.773 5.47271 24.6311 5.19232 21.3974C5.07135 20.0014 4.63553 18.651 3.93815 17.4349L2.46687 14.8699C1.50551 13.1955 1 11.2986 1 9.36846C1 7.12033 1.5672 5.41036 2.29623 4.14147C3.43263 2.16342 5.59889 1 7.88412 1H7.89293C8.27347 1 8.65321 1.03316 9.02813 1.09908L14.1702 2.00401" stroke="#818B96" stroke-width="1.5" stroke-miterlimit="10" stroke-linecap="round" stroke-linejoin="round"/>
<path d="M14.1702 2.00401L19.3122 1.09908C19.6872 1.03316 20.0669 1 20.4474 1H20.4562C22.7451 1 24.9133 2.16781 26.0489 4.14986C26.7756 5.41835 27.3404 7.12553 27.3404 9.36846" stroke="#818B96" stroke-width="1.5" stroke-miterlimit="10" stroke-linecap="round" stroke-linejoin="round"/>
<path d="M12.933 5.01007L9.82221 4.32808C8.45588 4.02844 6.99502 4.44634 6.09095 5.51108C6.02605 5.58739 5.96277 5.66769 5.90068 5.75279C5.36993 6.47913 5.13159 7.37566 5.13159 8.2742" stroke="#818B96" stroke-width="1.5" stroke-miterlimit="10" stroke-linecap="round" stroke-linejoin="round"/>
<path d="M34.9996 25.6803V22.2224H31.9661C31.3428 22.2224 30.7676 21.898 30.4372 21.3702C28.0674 17.5544 26.8152 16.9431 25.8102 16.3857C25.195 16.0453 24.6846 15.2119 24.3594 14.5607C24.131 14.0997 24.0049 13.6014 23.9296 13.0921C23.787 12.1004 23.3251 11.6825 22.9057 11.5111C22.5324 11.3585 22.0998 11.4065 21.7397 11.5914C21.0086 11.9638 20.665 12.4248 20.5039 12.6849C19.6147 14.1428 20.1574 16.512 22.0409 18.4385C22.2023 18.6047 22.2989 18.8216 22.2989 19.0522C22.2989 19.5344 21.9091 19.9255 21.4256 19.9255H17.1941C16.173 20.0786 15.3695 20.8392 15.2004 21.7961C14.9773 23.037 15.9499 23.9024 15.9984 23.9428C15.9339 23.9883 15.2461 24.4733 15.2409 25.3363C15.2329 25.9795 15.6062 26.5772 16.1974 26.8773C15.7596 27.3731 15.6222 28.0643 15.8373 28.6779C16.1546 29.5733 17.0462 29.8142 17.1135 29.833C17.0731 29.8785 16.5359 30.511 16.7562 31.304C16.9281 31.9313 17.5033 32.3947 18.1911 32.4563H30.3462C30.6819 32.4563 31.0152 32.3919 31.3216 32.2713C31.628 32.1506 31.9128 31.9712 32.16 31.7407H35V30.3779" stroke="#818B96" stroke-width="1.5" stroke-miterlimit="10" stroke-linecap="round" stroke-linejoin="round"/>
<path d="M15.9163 23.8732H17.5133" stroke="#818B96" stroke-width="1.5" stroke-miterlimit="10" stroke-linecap="round" stroke-linejoin="round"/>
<path d="M16.0818 26.7838H17.8727" stroke="#818B96" stroke-width="1.5" stroke-miterlimit="10" stroke-linecap="round" stroke-linejoin="round"/>
<path d="M16.9771 29.819H18.5224" stroke="#818B96" stroke-width="1.5" stroke-miterlimit="10" stroke-linecap="round" stroke-linejoin="round"/>
<path d="M31.9663 22.2224V25.6803" stroke="#818B96" stroke-width="1.5" stroke-miterlimit="10" stroke-linecap="round" stroke-linejoin="round"/>
<path d="M32.1599 31.7415V29.819" stroke="#818B96" stroke-width="1.5" stroke-miterlimit="10" stroke-linecap="round" stroke-linejoin="round"/>
</svg>
