<svg width="59" height="53" viewBox="0 0 59 53" fill="none" xmlns="http://www.w3.org/2000/svg">
<path class="type-path" d="M17.3252 24.4131L14.6647 23.8675C13.4959 23.628 12.2465 23.9623 11.4732 24.8141C11.4176 24.8752 11.3632 24.9394 11.3101 25.0074C10.8566 25.5886 10.6523 26.3058 10.6523 27.0248" stroke="#509FF3" stroke-width="2" stroke-miterlimit="10" stroke-linecap="round" stroke-linejoin="round"/>
<path class="type-path" d="M19.8546 20.3043L25.3456 19.4001C25.746 19.334 26.1514 19.3009 26.5574 19.3009H26.5668C29.0112 19.3009 31.3262 20.4677 32.5387 22.4476C33.3146 23.7148 33.918 25.4203 33.918 27.6609C33.918 29.5891 33.3783 31.4842 32.3519 33.1579L30.7809 35.7203C30.0356 36.9351 29.5709 38.2846 29.4416 39.6789C29.1423 42.9092 28.0904 46.0478 26.3494 48.8721L25.3037 50.5689C25.0363 51.0023 24.541 51.2698 24.005 51.2698C23.1773 51.2698 22.5064 50.6437 22.5064 49.8717V47.1921C22.5064 45.8264 22.2453 44.4719 21.7349 43.1923L21.3195 42.1509C21.0846 41.5622 20.4824 41.1718 19.8097 41.1718C19.1219 41.1718 18.5097 41.5797 18.2861 42.1864L17.8707 43.3152C17.4284 44.5156 17.2029 45.7759 17.2029 47.0455V49.873C17.2029 50.645 16.532 51.2711 15.7043 51.2711C15.1683 51.2711 14.6729 51.0035 14.4056 50.5701L13.3599 48.8733C11.6189 46.0497 10.5669 42.9104 10.2677 39.6802C10.1384 38.2858 9.67363 36.9363 8.92839 35.7216L7.35733 33.1592C6.33098 31.4854 5.79126 29.5903 5.79126 27.6621C5.79126 25.4166 6.3972 23.7085 7.17555 22.4401C8.38867 20.4645 10.7019 19.3022 13.1425 19.3022H13.1518C13.5585 19.3022 13.9639 19.3352 14.3643 19.4013L19.8546 20.3043Z" stroke="#509FF3" stroke-width="2" stroke-miterlimit="10" stroke-linecap="round" stroke-linejoin="round"/>
<path class="type-path" d="M25.871 13.8194C23.1037 13.6236 20.9248 11.3069 20.9248 8.5013C20.9248 5.68449 23.1037 3.36781 25.871 3.172" stroke="#3B434B" stroke-width="2" stroke-miterlimit="10" stroke-linecap="round" stroke-linejoin="round"/>
<path class="type-path" d="M40.2979 12.1226L43.5307 3.23873L55.2883 12.125C54.1321 12.2298 52.1868 12.5971 50.2509 13.8917C46.0631 16.6904 45.4322 21.5096 45.3447 22.3228C43.2333 20.215 41.1132 18.0985 39.0017 15.9908H29.8377C27.6476 15.9908 25.8691 14.2154 25.8691 12.029V4.96174C25.8691 2.77539 27.6476 1 29.8377 1H39.9656C41.5423 1 42.9004 1.90983 43.5313 3.23873" stroke="#3B434B" stroke-width="2" stroke-miterlimit="10" stroke-linecap="round" stroke-linejoin="round"/>
<path class="type-path" d="M45.3421 22.3209C45.1173 23.3611 43.9373 52 43.9373 52" stroke="#3B434B" stroke-width="2" stroke-miterlimit="10" stroke-linecap="round" stroke-linejoin="round"/>
<path class="type-path" d="M55.2852 12.1226L57.8713 50.9124" stroke="#3B434B" stroke-width="2" stroke-miterlimit="10" stroke-linecap="round" stroke-linejoin="round"/>
<path class="type-path" d="M20.9247 8.50134H1" stroke="#3B434B" stroke-width="2" stroke-miterlimit="10" stroke-linecap="round" stroke-linejoin="round"/>
<path class="type-path" d="M17.0317 6.94727V10.3434" stroke="#3B434B" stroke-width="2" stroke-miterlimit="10" stroke-linecap="round" stroke-linejoin="round"/>
</svg>
