<svg width="66" height="53" viewBox="0 0 66 53" fill="none" xmlns="http://www.w3.org/2000/svg">
<path class="type-path" d="M27.1679 4.69629L21.8982 5.59409" stroke="#3B434B" stroke-width="2" stroke-miterlimit="10" stroke-linecap="round" stroke-linejoin="round"/>
<path class="type-path" d="M21.8982 5.59414L14.0949 4.26503C13.5259 4.16821 12.9496 4.11951 12.3722 4.11951H12.3588C8.88539 4.11951 5.59497 5.83472 3.87165 8.74584C2.76836 10.6083 1.91187 13.1157 1.91187 16.41C1.91187 19.2449 2.679 22.031 4.13729 24.492L6.37001 28.2587C7.42832 30.0449 8.08969 32.0283 8.27327 34.0786C8.69878 38.8282 10.1935 43.4428 12.6676 47.5944L14.1538 50.0889C14.5338 50.7267 15.2377 51.1199 16 51.1199C17.1762 51.1199 18.1293 50.1998 18.1293 49.0643V45.1245C18.1293 43.1171 18.5007 41.1255 19.2253 39.2436L19.8156 37.7121C20.1493 36.8465 21.0052 36.2721 21.9614 36.2721C22.9388 36.2721 23.8087 36.8712 24.1266 37.7637L24.7175 39.4226C25.346 41.1871 25.6664 43.0408 25.6664 44.9068V49.0637C25.6664 50.1992 26.6201 51.1193 27.7957 51.1193C28.558 51.1193 29.2619 50.7261 29.6419 50.0889L31.1281 47.5944C31.7889 46.4847 32.3803 45.3422 32.9001 44.1733" stroke="#3B434B" stroke-width="2" stroke-miterlimit="10" stroke-linecap="round" stroke-linejoin="round"/>
<path class="type-path" d="M64.0883 5.38464V29.3478C64.0883 35.5949 60.9711 41.4987 55.6273 45.3628L47.6635 51.1205L39.7052 45.3622C34.3614 41.4981 31.24 35.5943 31.24 29.3472V5.38464C34.3432 3.99451 40.2554 1.82217 47.9814 1.88144C55.3574 1.9407 61.0185 4.008 64.0883 5.38464Z" stroke="#3B434B" stroke-width="2" stroke-miterlimit="10" stroke-linecap="round" stroke-linejoin="round"/>
<path class="type-path" d="M35.3164 29.1589V8.57334C39.2378 7.08286 43.4698 6.30066 47.6708 6.30066L47.9383 6.30183C52.0457 6.33469 56.1811 7.11631 60.0119 8.57275V29.1589C60.0119 34.1244 57.5628 38.7437 53.2925 41.8314L50.6057 43.7737" stroke="#509FF3" stroke-width="2" stroke-miterlimit="10" stroke-linecap="round" stroke-linejoin="round"/>
<path class="type-path" d="M44.0224 20.9172C42.4316 20.9172 41.1423 22.1618 41.1423 23.6975V26.5224C41.1423 26.9959 41.1946 27.4618 41.2949 27.9037C41.5295 28.9705 42.0365 29.9299 42.7301 30.6904C43.7477 31.8129 45.175 32.5095 46.7518 32.5095H48.5748C51.6719 32.5095 54.1842 29.8266 54.1842 26.5224V23.6975C54.1842 22.1618 52.895 20.9172 51.3041 20.9172H44.0224Z" stroke="#509FF3" stroke-width="2" stroke-miterlimit="10" stroke-linecap="round" stroke-linejoin="round"/>
<path class="type-path" d="M42.9787 20.9179C42.7598 17.988 44.9603 15.4712 47.6283 15.4712C50.2962 15.4712 52.4967 17.988 52.2779 20.9179" stroke="#509FF3" stroke-width="2" stroke-miterlimit="10" stroke-linecap="round" stroke-linejoin="round"/>
<path class="type-path" d="M49.4246 26.2736L48.8811 27.3955L49.6464 29.3343H45.6807L46.446 27.3955L45.9013 26.2712C45.3074 25.0454 46.1822 23.5808 47.5833 23.5526C47.5973 23.5526 47.6119 23.552 47.6259 23.552C47.6532 23.552 47.6806 23.552 47.7079 23.552C49.1243 23.5684 50.0251 25.0348 49.4246 26.2736Z" stroke="#509FF3" stroke-width="2" stroke-miterlimit="10" stroke-linecap="round" stroke-linejoin="round"/>
</svg>
