<svg width="53" height="47" viewBox="0 0 53 47" fill="none" xmlns="http://www.w3.org/2000/svg">
<path class="type-path" d="M15.4304 4.27454L11.8017 3.64603C11.2972 3.55874 10.7863 3.51483 10.2743 3.51483H10.2624C7.18285 3.51483 4.2655 5.06123 2.73758 7.68583C1.75992 9.36555 1 11.6262 1 14.5962C1 17.152 1.68016 19.6639 2.9731 21.8822L4.95267 25.2787C5.89152 26.8891 6.47736 28.6773 6.64012 30.5258C7.01739 34.8073 8.34267 38.9678 10.5362 42.7113L11.8539 44.9603C12.1908 45.5353 12.8149 45.8898 13.4907 45.8898C14.5336 45.8898 15.3787 45.0603 15.3787 44.0365V40.4845C15.3787 38.6741 15.708 36.8791 16.3504 35.1824L16.8732 33.8016C17.1691 33.0213 17.9279 32.5034 18.7757 32.5034C19.6423 32.5034 20.4136 33.0435 20.6954 33.8482L21.2193 35.3438C21.7766 36.9352 22.0606 38.6059 22.0606 40.2883V44.0355C22.0606 45.0592 22.9062 45.8887 23.9485 45.8887C24.6244 45.8887 25.2485 45.5343 25.5853 44.9592L26.9031 42.7102C29.0966 38.9672 30.4219 34.8068 30.7991 30.5247C30.9619 28.6762 31.5477 26.8881 32.4866 25.2776" stroke="#3B434B" stroke-width="2" stroke-miterlimit="10" stroke-linecap="round" stroke-linejoin="round"/>
<path class="type-path" d="M40.7589 19.7776L41.3092 20.2538L44.5219 23.0371L47.0064 25.1861L50.6632 28.3545C51.7007 29.2539 51.9001 30.8061 51.0432 31.8753C50.9866 31.951 50.9214 32.0245 50.8529 32.0954L50.8254 32.1261C49.8515 33.117 48.2347 33.1355 47.1816 32.2234L43.5496 29.0762L41.0677 26.9245L37.855 24.1412L37.2832 23.646L37.8583 23.0048L40.1159 20.495L40.7589 19.7776Z" stroke="#5596db" stroke-width="2" stroke-miterlimit="10" stroke-linecap="round" stroke-linejoin="round"/>
<path class="type-path" d="M39.0042 13.5005C39.1756 12.1964 39.1093 10.8733 38.8091 9.59195C38.6118 8.7386 38.309 7.908 37.9042 7.11443C37.2774 5.87805 36.4054 4.73637 35.2827 3.76769C34.1299 2.76727 32.8278 2.0393 31.4503 1.58908C29.4879 0.933594 27.3774 0.826727 25.3741 1.26054C23.1149 1.74885 20.9973 2.91646 19.3546 4.74113C17.9592 6.29124 17.0888 8.12438 16.7321 10.0231C16.6571 10.4009 16.6049 10.7828 16.5731 11.1664C16.5057 11.9779 16.5316 12.7916 16.6469 13.5947C17.0037 16.1331 18.2465 18.5598 20.3468 20.3818C22.7953 22.5007 25.9239 23.3863 28.9355 23.0879C31.6766 22.825 34.3218 21.5838 36.2803 19.4026C37.8277 17.6826 38.7288 15.621 39.0042 13.5005Z" stroke="#5596db" stroke-width="2" stroke-miterlimit="10" stroke-linecap="round" stroke-linejoin="round"/>
<path class="type-path" d="M22.4847 18.0006C21.05 16.7563 20.1139 15.0364 19.8498 13.1604C19.7657 12.5768 19.7485 11.9954 19.7954 11.4225C19.818 11.1489 19.8557 10.8807 19.9053 10.63C20.1726 9.20629 20.8172 7.90801 21.7765 6.84305C22.9143 5.57916 24.398 4.72052 26.0682 4.36024C26.64 4.23644 27.2264 4.17401 27.8128 4.17401C28.701 4.17401 29.5741 4.31527 30.4084 4.59354" stroke="#5596db" stroke-width="2" stroke-miterlimit="10" stroke-linecap="round" stroke-linejoin="round"/>
<path class="type-path" d="M33.1415 6.14575C33.9214 6.81923 34.5482 7.61914 35.009 8.52804C35.2995 9.09783 35.5156 9.6893 35.6552 10.2935C35.8729 11.2214 35.9198 12.1605 35.7969 13.0937C35.5932 14.6629 34.9222 16.1156 33.8567 17.2996C32.5088 18.8011 30.6505 19.7332 28.6213 19.9279C28.3405 19.956 28.0667 19.9692 27.7962 19.9692H27.7957" stroke="#5596db" stroke-width="2" stroke-miterlimit="10" stroke-linecap="round" stroke-linejoin="round"/>
<path class="type-path" d="M36.2539 19.4925L38.9751 21.8346" stroke="#5596db" stroke-width="2" stroke-miterlimit="10" stroke-linecap="round" stroke-linejoin="round"/>
<path class="type-path" d="M30.0269 9.52477C30.5835 9.52477 31.0347 9.08184 31.0347 8.53546C31.0347 7.98907 30.5835 7.54614 30.0269 7.54614C29.4703 7.54614 29.019 7.98907 29.019 8.53546C29.019 9.08184 29.4703 9.52477 30.0269 9.52477Z" stroke="#5596db" stroke-width="2" stroke-miterlimit="10" stroke-linecap="round" stroke-linejoin="round"/>
<path class="type-path" d="M27.4712 16.9473C28.0278 16.9473 28.4791 16.5043 28.4791 15.9579C28.4791 15.4116 28.0278 14.9686 27.4712 14.9686C26.9146 14.9686 26.4634 15.4116 26.4634 15.9579C26.4634 16.5043 26.9146 16.9473 27.4712 16.9473Z" stroke="#5596db" stroke-width="2" stroke-miterlimit="10" stroke-linecap="round" stroke-linejoin="round"/>
<path class="type-path" d="M30.0269 13.4307C30.0436 13.3445 30.223 12.5033 31.0563 12.1203C31.9789 11.696 32.8321 12.2351 32.8768 12.2642" stroke="#5596db" stroke-width="2" stroke-miterlimit="10" stroke-linecap="round" stroke-linejoin="round"/>
<path class="type-path" d="M24.876 8.2778C24.9654 8.27621 25.8407 8.2741 26.3953 8.99466C27.0097 9.79299 26.6491 10.7236 26.6292 10.7728" stroke="#5596db" stroke-width="2" stroke-miterlimit="10" stroke-linecap="round" stroke-linejoin="round"/>
<path class="type-path" d="M11.806 7.92177C9.96763 7.52498 8.00207 8.07837 6.78566 9.48827C6.69835 9.58932 6.6132 9.69566 6.52966 9.80834C5.81555 10.7701 5.49487 11.9568 5.49487 13.1472" stroke="#3b434b" stroke-width="2" stroke-miterlimit="10" stroke-linecap="round" stroke-linejoin="round"/>
</svg>
