<svg width="52" height="52" viewBox="0 0 52 52" fill="none" xmlns="http://www.w3.org/2000/svg">
<path class="type-path" d="M18.3401 39.5222C19.1008 42.2087 20.1919 44.8031 21.5959 47.2441L23.092 49.8445C23.4742 50.5089 24.1831 50.9188 24.9498 50.9188C26.1336 50.9188 27.0929 49.9595 27.0929 48.7757V44.6689C27.0929 42.5758 27.4666 40.4995 28.196 38.5382L28.79 36.9416C29.1258 36.0389 29.987 35.4407 30.9499 35.4407C31.9339 35.4407 32.8095 36.0654 33.1291 36.9958L33.7237 38.7254C34.3562 40.5651 34.6788 42.497 34.6788 44.4426V48.7757C34.6788 49.9595 35.6381 50.9188 36.8218 50.9188C37.5885 50.9188 38.2969 50.5089 38.6796 49.8445L40.1757 47.2441C42.6655 42.9158 44.17 38.1055 44.5979 33.1544C44.7826 31.0167 45.4476 28.9495 46.5135 27.0869L48.76 23.16C50.2279 20.5945 51 17.6908 51 14.7352C51 11.2929 50.134 8.67496 49.02 6.7317C47.285 3.70337 43.9768 1.922 40.4863 1.922H40.473C39.8917 1.922 39.3121 1.97255 38.7392 2.07365L32.1247 3.24118C31.3008 3.38681 30.4655 3.45963 29.6283 3.45963C28.6793 3.45963 27.7332 3.36575 26.8028 3.17919L22.6232 2.34086" stroke="#3B434B" stroke-width="2" stroke-miterlimit="10" stroke-linecap="round" stroke-linejoin="round"/>
<path class="type-path" d="M32.7747 8.06168L37.526 7.01753C39.6125 6.55894 41.8434 7.19867 43.2246 8.82899C43.3233 8.94574 43.4208 9.06911 43.5152 9.19911C44.3253 10.3113 44.69 11.6834 44.6894 13.0597" stroke="#3B434B" stroke-width="2" stroke-miterlimit="10" stroke-linecap="round" stroke-linejoin="round"/>
<path class="type-path" d="M20.5006 24.4167L20.4928 26.3437L7.68433 23.7673L7.7078 9.12636L20.5319 6.87317L20.5241 8.82907L17.8231 10.7236L20.5162 12.9003L20.5084 18.7018" stroke="#509FF3" stroke-width="2" stroke-miterlimit="10" stroke-linecap="round" stroke-linejoin="round"/>
<path class="type-path" d="M7.71143 7.69941C7.71143 7.69941 15.0542 5.56898 17.8231 1" stroke="#509FF3" stroke-width="2" stroke-miterlimit="10" stroke-linecap="round" stroke-linejoin="round"/>
<path class="type-path" d="M7.67896 25.3795C7.67896 25.3795 15.9756 28.8406 17.4795 32.6248" stroke="#509FF3" stroke-width="2" stroke-miterlimit="10" stroke-linecap="round" stroke-linejoin="round"/>
<path class="type-path" d="M1 50.9886L1.07703 4.99306C1.08064 3.17257 2.5575 1.69812 4.37799 1.69812C6.20089 1.69812 7.67894 3.17618 7.67894 4.99908V9.12452" stroke="#509FF3" stroke-width="2" stroke-miterlimit="10" stroke-linecap="round" stroke-linejoin="round"/>
<path class="type-path" d="M7.68178 23.7637L7.63965 50.8736" stroke="#509FF3" stroke-width="2" stroke-miterlimit="10" stroke-linecap="round" stroke-linejoin="round"/>
<path class="type-path" d="M17.8231 10.7235L14.1279 11.5733" stroke="#509FF3" stroke-width="2" stroke-miterlimit="10" stroke-linecap="round" stroke-linejoin="round"/>
<path class="type-path" d="M20.5005 24.4166L16.6038 21.2577L20.5083 18.7018" stroke="#509FF3" stroke-width="2" stroke-miterlimit="10" stroke-linecap="round" stroke-linejoin="round"/>
<path class="type-path" d="M16.6039 21.2577L10.8301 20.7684" stroke="#509FF3" stroke-width="2" stroke-miterlimit="10" stroke-linecap="round" stroke-linejoin="round"/>
<path class="type-path" d="M23.3906 35.8035C24.9694 35.8035 26.2492 34.5237 26.2492 32.9449C26.2492 31.3662 24.9694 30.0863 23.3906 30.0863C21.8118 30.0863 20.532 31.3662 20.532 32.9449C20.532 34.5237 21.8118 35.8035 23.3906 35.8035Z" stroke="#509FF3" stroke-width="2" stroke-miterlimit="10" stroke-linecap="round" stroke-linejoin="round"/>
<path class="type-path" d="M29.7944 29.6554C32.4866 29.6554 34.6691 27.4729 34.6691 24.7807C34.6691 22.0885 32.4866 19.906 29.7944 19.906C27.1022 19.906 24.9197 22.0885 24.9197 24.7807C24.9197 27.4729 27.1022 29.6554 29.7944 29.6554Z" stroke="#509FF3" stroke-width="2" stroke-miterlimit="10" stroke-linecap="round" stroke-linejoin="round"/>
</svg>
