<svg width="50" height="50" viewBox="0 0 50 50" fill="none" xmlns="http://www.w3.org/2000/svg">
<path class="type-path" d="M20.1917 2.99223L12.7557 1.67422C12.2135 1.57821 11.6643 1.52991 11.114 1.52991H11.1013C7.79657 1.52991 4.66389 3.22441 3.02051 6.10483C1.96624 7.95353 1.146 10.4441 1.146 13.7184C1.146 16.5296 1.87703 19.2925 3.26669 21.733L5.39434 25.4682C6.40285 27.2395 7.03309 29.2064 7.20803 31.2395C7.61294 35.9494 9.03793 40.5255 11.3956 44.6425L12.8119 47.1162C13.1739 47.7487 13.8447 48.1386 14.5711 48.1386C15.692 48.1386 16.6003 47.2256 16.6003 46.1002V41.978C16.6003 40.1275 16.9061 38.2893 17.5045 36.5395L18.0676 34.8945C18.3705 34.0094 19.1994 33.4153 20.1309 33.4153C21.0427 33.4153 21.8583 33.9849 22.1763 34.8433L22.7382 36.362C23.4293 38.2282 23.7826 40.2032 23.7826 42.1938V46.1007C23.7826 47.2267 24.6915 48.1391 25.8118 48.1391C26.5382 48.1391 27.209 47.7493 27.571 47.1167L28.9873 44.6431C29.84 43.154 30.571 41.6044 31.1752 40.0105" stroke="#3B434B" stroke-width="2" stroke-miterlimit="10" stroke-linecap="round" stroke-linejoin="round"/>
<path class="type-path" d="M20.1917 2.99223L27.6277 1.67422C28.1699 1.57821 28.7191 1.52991 29.2694 1.52991H29.2821C30.0398 1.52991 30.7888 1.61894 31.5129 1.79118" stroke="#3B434B" stroke-width="2" stroke-miterlimit="10" stroke-linecap="round" stroke-linejoin="round"/>
<path class="type-path" d="M18.4022 7.37057L13.9036 6.37726C11.9277 5.94084 9.81511 6.54951 8.50771 8.10028C8.41387 8.21142 8.32234 8.32838 8.23255 8.45233C7.46503 9.51023 7.12036 10.8154 7.12036 12.1247" stroke="#3B434B" stroke-width="2" stroke-miterlimit="10" stroke-linecap="round" stroke-linejoin="round"/>
<path class="type-path" d="M35.825 1.14575C33.4697 4.47133 23.4988 18.9363 23.4988 25.0451C23.4988 31.8749 29.0262 37.4274 35.825 37.4274C42.6192 37.4274 48.146 31.8749 48.146 25.0451C48.146 18.9363 38.1757 4.47133 35.825 1.14575ZM42.7281 26.064H37.5078V31.1591H34.1382V26.064H28.9178V22.6738H34.1382V17.2906H37.5078V22.6738H42.7281V26.064Z" stroke="#509FF3" stroke-width="2" stroke-miterlimit="10" stroke-linecap="round" stroke-linejoin="round"/>
<path class="type-path" d="M42.7284 22.6738V26.064H37.508V31.1591H34.1378V26.064H28.9175V22.6738H34.1378V17.2906H37.508V22.6738H42.7284Z" stroke="#509FF3" stroke-width="2" stroke-miterlimit="10" stroke-linecap="round" stroke-linejoin="round"/>
<path class="type-path" d="M42.7284 22.6738V26.064H37.508V31.1591H34.1378V26.064H28.9175V22.6738H34.1378V17.2906H37.508V22.6738H42.7284Z" stroke="#509FF3" stroke-width="2" stroke-miterlimit="10" stroke-linecap="round" stroke-linejoin="round"/>
</svg>
