<svg width="50" height="58" viewBox="0 0 50 58" fill="none" xmlns="http://www.w3.org/2000/svg">
<path class="type-path" d="M36.7572 33.8764C36.1392 35.3089 35.7473 36.8321 35.6126 38.3918C35.186 43.3234 33.6873 48.1148 31.2069 52.4255L29.7168 55.0156C29.3358 55.6779 28.6301 56.0855 27.8658 56.0855C26.6865 56.0855 25.7309 55.1301 25.7309 53.9511V49.8604C25.7309 47.776 25.3585 45.7081 24.6321 43.7542L24.0403 42.1639C23.7057 41.2652 22.8476 40.6687 21.8889 40.6687C20.9089 40.6687 20.0368 41.2908 19.718 42.2175L19.1257 43.94C18.4955 45.7721 18.1743 47.6968 18.1743 49.6344V53.9499C18.1743 55.1289 17.2181 56.0843 16.0394 56.0843C15.2751 56.0843 14.5694 55.676 14.1885 55.0144L12.6984 52.4243C10.2179 48.1136 8.71923 43.3222 8.29261 38.3906C8.10855 36.2618 7.44547 34.2024 6.38441 32.3477L4.14588 28.4361C2.68319 25.8826 1.91406 22.9903 1.91406 20.0463C1.91406 16.6178 2.77705 14.0101 3.88626 12.075C5.61467 9.05903 8.91121 7.28479 12.3881 7.28479H12.4015C12.9805 7.28479 13.5583 7.33536 14.1287 7.43589L21.9523 8.81592" stroke="#3B434B" stroke-width="2" stroke-miterlimit="10" stroke-linecap="round" stroke-linejoin="round"/>
<path class="type-path" d="M20.0696 13.4002L15.3359 12.3602C13.2571 11.9032 11.0344 12.5405 9.65886 14.1643C9.56013 14.2806 9.46384 14.4031 9.36937 14.5329C8.56184 15.6406 8.19922 17.0078 8.19922 18.3781" stroke="#3B434B" stroke-width="2" stroke-miterlimit="10" stroke-linecap="round" stroke-linejoin="round"/>
<path class="type-path" d="M36.8745 23.2286V7.98975" stroke="#509FF3" stroke-width="2" stroke-miterlimit="10" stroke-linecap="round" stroke-linejoin="round"/>
<path class="type-path" d="M30.2998 11.7551L43.4494 19.4632" stroke="#509FF3" stroke-width="2" stroke-miterlimit="10" stroke-linecap="round" stroke-linejoin="round"/>
<path class="type-path" d="M43.4494 11.7551L30.2998 19.4632" stroke="#509FF3" stroke-width="2" stroke-miterlimit="10" stroke-linecap="round" stroke-linejoin="round"/>
<path class="type-path" d="M33.5029 5.45813L36.875 7.98971L40.1838 5.45813" stroke="#509FF3" stroke-width="2" stroke-miterlimit="10" stroke-linecap="round" stroke-linejoin="round"/>
<path class="type-path" d="M26.2617 12.9603L30.3 11.7466L30.2226 7.58154" stroke="#509FF3" stroke-width="2" stroke-miterlimit="10" stroke-linecap="round" stroke-linejoin="round"/>
<path class="type-path" d="M47.609 12.9603L43.5708 11.7466L43.6482 7.58154" stroke="#509FF3" stroke-width="2" stroke-miterlimit="10" stroke-linecap="round" stroke-linejoin="round"/>
<path class="type-path" d="M30.2644 23.6867L30.3437 19.6807V19.5229L30.1943 19.479L26.3018 18.3019" stroke="#509FF3" stroke-width="2" stroke-miterlimit="10" stroke-linecap="round" stroke-linejoin="round"/>
<path class="type-path" d="M47.6492 18.3055L43.6104 19.5192L43.6878 23.6843" stroke="#509FF3" stroke-width="2" stroke-miterlimit="10" stroke-linecap="round" stroke-linejoin="round"/>
<path class="type-path" d="M33.5029 26.362L36.875 23.8304L40.1838 26.362" stroke="#509FF3" stroke-width="2" stroke-miterlimit="10" stroke-linecap="round" stroke-linejoin="round"/>
<path class="type-path" d="M36.8748 2.78644C37.1158 2.78644 37.3112 2.59112 37.3112 2.35019C37.3112 2.10926 37.1158 1.91394 36.8748 1.91394C36.6338 1.91394 36.4385 2.10926 36.4385 2.35019C36.4385 2.59112 36.6338 2.78644 36.8748 2.78644Z" stroke="#509FF3" stroke-width="2" stroke-miterlimit="10" stroke-linecap="round" stroke-linejoin="round"/>
<path class="type-path" d="M47.6092 9.21319C47.8502 9.21319 48.0456 9.01788 48.0456 8.77695C48.0456 8.53601 47.8502 8.3407 47.6092 8.3407C47.3682 8.3407 47.1729 8.53601 47.1729 8.77695C47.1729 9.01788 47.3682 9.21319 47.6092 9.21319Z" stroke="#509FF3" stroke-width="2" stroke-miterlimit="10" stroke-linecap="round" stroke-linejoin="round"/>
<path class="type-path" d="M47.6493 22.6984C47.8903 22.6984 48.0856 22.5031 48.0856 22.2622C48.0856 22.0212 47.8903 21.8259 47.6493 21.8259C47.4083 21.8259 47.2129 22.0212 47.2129 22.2622C47.2129 22.5031 47.4083 22.6984 47.6493 22.6984Z" stroke="#509FF3" stroke-width="2" stroke-miterlimit="10" stroke-linecap="round" stroke-linejoin="round"/>
<path class="type-path" d="M36.9554 29.5523C37.1964 29.5523 37.3918 29.357 37.3918 29.1161C37.3918 28.8751 37.1964 28.6798 36.9554 28.6798C36.7144 28.6798 36.519 28.8751 36.519 29.1161C36.519 29.357 36.7144 29.5523 36.9554 29.5523Z" stroke="#509FF3" stroke-width="2" stroke-miterlimit="10" stroke-linecap="round" stroke-linejoin="round"/>
<path class="type-path" d="M25.8656 22.6984C26.1066 22.6984 26.3019 22.5031 26.3019 22.2622C26.3019 22.0212 26.1066 21.8259 25.8656 21.8259C25.6246 21.8259 25.4292 22.0212 25.4292 22.2622C25.4292 22.5031 25.6246 22.6984 25.8656 22.6984Z" stroke="#509FF3" stroke-width="2" stroke-miterlimit="10" stroke-linecap="round" stroke-linejoin="round"/>
<path class="type-path" d="M26.2611 9.21319C26.5021 9.21319 26.6974 9.01788 26.6974 8.77695C26.6974 8.53601 26.5021 8.3407 26.2611 8.3407C26.0201 8.3407 25.8247 8.53601 25.8247 8.77695C25.8247 9.01788 26.0201 9.21319 26.2611 9.21319Z" stroke="#509FF3" stroke-width="2" stroke-miterlimit="10" stroke-linecap="round" stroke-linejoin="round"/>
</svg>
