<svg width="59" height="50" viewBox="0 0 59 50" fill="none" xmlns="http://www.w3.org/2000/svg">
<path class="type-path" d="M16.7773 27.1973V22.8903H23.6708V26.9129" stroke="#509FF3" stroke-width="2" stroke-miterlimit="10" stroke-linecap="round" stroke-linejoin="round"/>
<path class="type-path" d="M35.6914 26.9622V22.8951H42.5835V26.9164" stroke="#509FF3" stroke-width="2" stroke-miterlimit="10" stroke-linecap="round" stroke-linejoin="round"/>
<path class="type-path" d="M23.683 32.1656C25.2958 32.2432 26.6426 33.4338 27.0828 34.9885L29.0624 41.9815C29.4709 43.5878 29.5888 44.9308 29.5718 45.9943C29.5457 47.6344 28.1975 48.9414 26.5579 48.9414H20.3622C18.7226 48.9414 17.3743 47.6344 17.3482 45.9943C17.3313 44.9301 17.4498 43.5871 17.8576 41.9815L19.8803 34.8368C20.3092 33.323 21.6532 32.2489 23.2237 32.1656C23.3817 32.1578 23.5348 32.1585 23.683 32.1656Z" stroke="#3B434B" stroke-width="2" stroke-miterlimit="10" stroke-linecap="round" stroke-linejoin="round"/>
<path class="type-path" d="M18.8447 38.496C17.8478 36.1021 13.8123 33.1212 12.893 33.2418C12.0189 33.3562 11.3261 34.0379 11.0404 34.8721C10.5021 36.4458 9.40501 39.786 9.11857 41.6746C8.82579 43.6089 8.98029 45.947 9.06989 46.9407C9.11293 47.422 9.33305 47.8758 9.71896 48.1672C10.3673 48.657 17.3469 48.6669 17.3469 48.6669" stroke="#3B434B" stroke-width="2" stroke-miterlimit="10" stroke-linecap="round" stroke-linejoin="round"/>
<path class="type-path" d="M9.94743 38.2836C8.80592 36.9025 4.3436 33.6533 2.60312 33.6992C2.60312 33.6992 0.993152 34.1593 1.07005 36.8432L1.4609 44.602C1.52087 45.7897 1.94488 46.9506 2.75198 47.8243C2.79784 47.8744 2.85216 47.9245 2.91142 47.9739C3.61693 48.5618 10.866 48.4164 10.866 48.4164" stroke="#3B434B" stroke-width="2" stroke-miterlimit="10" stroke-linecap="round" stroke-linejoin="round"/>
<path class="type-path" d="M40.2339 38.2546C42.5832 34.5305 45.1957 33.1212 46.115 33.2418C46.9891 33.3562 47.6819 34.0379 47.9676 34.8721C48.5059 36.4458 49.603 39.786 49.8894 41.6746C50.1822 43.609 50.0277 45.947 49.9381 46.9407C49.8951 47.422 49.675 47.8758 49.289 48.1672C48.64 48.657 41.8001 48.6669 41.8001 48.6669" stroke="#3B434B" stroke-width="2" stroke-miterlimit="10" stroke-linecap="round" stroke-linejoin="round"/>
<path class="type-path" d="M49.103 38.4283C50.2445 37.0472 54.6645 33.6541 56.4056 33.6999C56.4056 33.6999 58.0156 34.1601 57.9387 36.8439L57.5479 44.602C57.4879 45.7897 57.0639 46.9506 56.2568 47.8243C56.2109 47.8744 56.1566 47.9245 56.0973 47.9739C55.3918 48.5618 48.4102 48.4214 48.4102 48.4214" stroke="#3B434B" stroke-width="2" stroke-miterlimit="10" stroke-linecap="round" stroke-linejoin="round"/>
<path class="type-path" d="M35.4641 32.1656C33.8514 32.2432 32.5045 33.4338 32.0643 34.9885L30.0847 41.9815C29.6769 43.5878 29.5584 44.9308 29.5753 45.9943C29.6014 47.6344 30.9496 48.9414 32.5892 48.9414H38.7849C40.4245 48.9414 41.7728 47.6344 41.7989 45.9943C41.8158 44.9301 41.6973 43.5871 41.2895 41.9815L39.2668 34.8368C38.8379 33.323 37.4939 32.2489 35.9234 32.1656C35.7654 32.1578 35.613 32.1585 35.4641 32.1656Z" stroke="#3B434B" stroke-width="2" stroke-miterlimit="10" stroke-linecap="round" stroke-linejoin="round"/>
<path class="type-path" d="M1.11736 35.9412L1.08984 35.6293C0.741325 32.0484 3.3016 28.8353 6.87217 28.3674C13.8934 27.4584 21.8324 26.843 30.5517 26.8705C38.2707 26.898 45.3744 27.4309 51.7529 28.2199C55.1943 28.6419 57.6269 31.589 57.5994 34.8946V34.9038" stroke="#3B434B" stroke-width="2" stroke-miterlimit="10" stroke-linecap="round" stroke-linejoin="round"/>
<path class="type-path" d="M22.7955 10.4476V15.5197C22.7955 15.8246 22.6714 16.1153 22.452 16.3263L20.9986 17.7208C20.5661 18.1358 19.8839 18.1358 19.4514 17.7208L17.9981 16.3263C17.7787 16.1153 17.6538 15.8239 17.6538 15.5197V10.4476" stroke="#509FF3" stroke-width="2" stroke-miterlimit="10" stroke-linecap="round" stroke-linejoin="round"/>
<path class="type-path" d="M41.7086 10.4476V15.5197C41.7086 15.8246 41.5845 16.1153 41.365 16.3263L39.9117 17.7208C39.4792 18.1358 38.7963 18.1358 38.3638 17.7208L36.9105 16.3263C36.6911 16.1153 36.5669 15.8239 36.5669 15.5197V10.4476" stroke="#509FF3" stroke-width="2" stroke-miterlimit="10" stroke-linecap="round" stroke-linejoin="round"/>
<path class="type-path" d="M1.06885 1.05859V7.17936C1.06885 10.4511 4.08629 12.888 7.28082 12.1837C13.2226 10.8731 20.4646 9.83077 28.7176 9.78067C37.5047 9.72774 45.1806 10.8138 51.3996 12.1858C54.5892 12.8894 57.601 10.4462 57.601 7.17936V1.05859" stroke="#3B434B" stroke-width="2" stroke-miterlimit="10" stroke-linecap="round" stroke-linejoin="round"/>
</svg>
