<svg width="49" height="53" viewBox="0 0 49 53" fill="none" xmlns="http://www.w3.org/2000/svg">
<path class="type-path" d="M17.7366 17.3158L20.9999 16.7783C21.2376 16.7392 21.4784 16.7196 21.7205 16.7196H21.7262C23.179 16.7196 24.5552 17.4137 25.2759 18.591C25.7374 19.3445 26.0958 20.3588 26.0958 21.6921C26.0958 22.8391 25.7747 23.9665 25.1653 24.9618L24.2315 26.4859C23.789 27.2084 23.5121 28.0112 23.4356 28.8404C23.258 30.7617 22.6328 32.6287 21.5979 34.3087L20.9765 35.318C20.8178 35.5757 20.5232 35.7349 20.2046 35.7349C19.7128 35.7349 19.3139 35.3622 19.3139 34.9031V33.3095C19.3139 32.4973 19.1583 31.6914 18.8555 30.9304L18.609 30.3108C18.4693 29.9602 18.1115 29.7284 17.7113 29.7284C17.3023 29.7284 16.9388 29.971 16.806 30.3322L16.5588 31.0036C16.2959 31.7179 16.1618 32.4676 16.1618 33.2224V34.9037C16.1618 35.3628 15.7629 35.7355 15.2711 35.7355C14.9525 35.7355 14.6579 35.5763 14.4992 35.3186L13.8778 34.3094C12.8429 32.6293 12.2177 30.763 12.0401 28.8411C11.9636 28.0118 11.6867 27.209 11.2442 26.4865L10.3104 24.9625C9.70039 23.9671 9.37988 22.8397 9.37988 21.6927C9.37988 20.3569 9.73959 19.3407 10.2023 18.5866C10.9237 17.4112 12.298 16.7202 13.7488 16.7202H13.7545C13.996 16.7202 14.2369 16.7398 14.4752 16.779L17.7366 17.3158Z" stroke="#5596DF" stroke-width="2" stroke-miterlimit="10" stroke-linecap="round" stroke-linejoin="round"/>
<path class="type-path" d="M24.1221 51.7317V45.6135C24.1221 42.6767 26.4807 40.2867 29.4197 40.2438C32.9409 40.1926 37.564 40.0215 40.4562 39.9033C42.0935 39.8364 43.3117 38.3812 43.105 36.7574C42.9798 35.7753 42.7567 34.7673 42.3862 34.0801C42.1226 33.5919 42.0322 33.0595 42.0265 32.5719C42.0164 31.7312 42.5133 30.9664 43.27 30.5981L43.2972 30.5849C43.5766 30.4491 43.71 30.1744 43.7612 29.8611C43.8984 29.0249 43.4154 28.2076 42.6587 27.8267L38.2537 25.6092C38.2537 25.6092 44.523 23.0734 44.1892 22.3547C43.8554 21.6359 42.8717 19.1575 42.8717 19.1575C42.8705 18.8898 44.748 17.8432 44.748 17.8432C47.0276 16.508 47.5745 15.2107 47.553 14.2482C47.5511 14.1674 47.5429 14.0669 47.5233 13.9514C47.405 13.2585 46.9505 12.6724 46.3348 12.332C45.4895 11.8646 44.4009 11.2254 43.179 10.4088C40.6009 8.68644 39.293 7.79463 38.3523 6.29208C37.8421 5.47733 36.971 3.75562 37.0576 1" stroke="#3B434B" stroke-width="2" stroke-miterlimit="10" stroke-linecap="round" stroke-linejoin="round"/>
<path class="type-path" d="M5.28589 22.7961C5.34405 23.8042 5.60956 24.8861 6.09886 25.9459C6.54202 26.9065 7.11666 27.7377 7.76211 28.4053" stroke="#5596DF" stroke-width="2" stroke-miterlimit="10" stroke-linecap="round" stroke-linejoin="round"/>
<path class="type-path" d="M1.34285 21.1849C0.737232 23.0191 0.918666 25.4677 2.00917 27.8299C3.10346 30.199 4.85015 31.9264 6.63984 32.6571" stroke="#5596DF" stroke-width="2" stroke-miterlimit="10" stroke-linecap="round" stroke-linejoin="round"/>
<path class="type-path" d="M29.9196 22.7961C29.8614 23.8042 29.5959 24.8861 29.1066 25.9459C28.6635 26.9065 28.0882 27.7377 27.4434 28.4053" stroke="#5596DF" stroke-width="2" stroke-miterlimit="10" stroke-linecap="round" stroke-linejoin="round"/>
<path class="type-path" d="M33.8624 21.1849C34.468 23.0191 34.2866 25.4677 33.1961 27.8299C32.1018 30.199 30.3551 31.9264 28.5654 32.6571" stroke="#5596DF" stroke-width="2" stroke-miterlimit="10" stroke-linecap="round" stroke-linejoin="round"/>
</svg>
