<svg width="40" height="53" viewBox="0 0 40 53" fill="none" xmlns="http://www.w3.org/2000/svg">
<path class="type-path" d="M20.5791 20.2906L17.3189 20.8299C17.0811 20.8691 16.8403 20.8891 16.599 20.8891H16.5931C15.1422 20.8891 13.7671 20.1933 13.0472 19.0121C12.5861 18.2559 12.2285 17.2389 12.2285 15.9018C12.2285 14.7512 12.5493 13.621 13.1582 12.6221L14.0909 11.0934C14.5332 10.3688 14.8091 9.56343 14.8862 8.73164C15.0638 6.80426 15.6885 4.932 16.7223 3.2473L17.3435 2.23497C17.5024 1.97646 17.7963 1.81702 18.1148 1.81702C18.6063 1.81702 19.0042 2.19042 19.0042 2.65116V4.24968C19.0042 5.06447 19.1591 5.87223 19.4624 6.63603L19.709 7.25738C19.848 7.60851 20.2057 7.84181 20.6054 7.84181C21.0138 7.84181 21.3773 7.59854 21.51 7.23628L21.7566 6.56334C22.0195 5.84703 22.1539 5.09495 22.1539 4.33761V2.65116C22.1539 2.19042 22.5525 1.81702 23.0433 1.81702C23.3618 1.81702 23.6557 1.97646 23.8147 2.23555L24.4359 3.24789C25.4696 4.93258 26.0943 6.80485 26.2719 8.73222C26.3485 9.56402 26.6249 10.3688 27.0673 11.094L27.9999 12.6227C28.6094 13.6216 28.9296 14.7517 28.9296 15.9024C28.9296 17.2424 28.5702 18.2612 28.1074 19.018C27.3869 20.1968 26.0137 20.8903 24.565 20.8903H24.5592C24.3178 20.8903 24.0771 20.8703 23.8392 20.831L20.5791 20.2906Z" stroke="#509FF3" stroke-width="2" stroke-miterlimit="10" stroke-linecap="round" stroke-linejoin="round"/>
<path class="type-path" d="M10.1205 33.1661C10.1205 33.1661 6.27187 31.5494 4.40424 26.1506C3.60834 23.8493 3.40089 21.3733 3.71586 18.9582C4.03434 16.5156 4.91439 13.3431 7.25535 11.3536C7.25535 11.3536 9.75058 11.1954 9.85402 14.9469C9.93291 17.8028 9.70325 21.0139 11.9098 24.4994" stroke="#3B434B" stroke-width="2" stroke-miterlimit="10" stroke-linecap="round" stroke-linejoin="round"/>
<path class="type-path" d="M31.0705 33.1661C31.0705 33.1661 34.9191 31.5495 36.7867 26.1507C37.5826 23.8494 37.7901 21.3733 37.4751 18.9582C37.1566 16.5156 36.2766 13.3432 33.9356 11.3537C33.9356 11.3537 31.4404 11.1954 31.337 14.947C31.2557 17.8767 31.4994 21.1799 29.1064 24.7685" stroke="#3B434B" stroke-width="2" stroke-miterlimit="10" stroke-linecap="round" stroke-linejoin="round"/>
<path class="type-path" d="M13.0424 45.0011C14.9334 46.7925 17.483 47.9262 20.285 47.9895C26.2771 48.1243 31.2518 43.3528 31.3862 37.3426C31.5206 31.3319 26.7638 26.3417 20.7718 26.2069C16.0133 26.0996 11.8824 29.1009 10.3257 33.3443" stroke="#3B434B" stroke-width="2" stroke-miterlimit="10" stroke-linecap="round" stroke-linejoin="round"/>
<path class="type-path" d="M20.5281 41.6915C23.058 41.6915 25.1089 39.6342 25.1089 37.0964C25.1089 34.5586 23.058 32.5013 20.5281 32.5013C17.9982 32.5013 15.9473 34.5586 15.9473 37.0964C15.9473 39.6342 17.9982 41.6915 20.5281 41.6915Z" stroke="#3B434B" stroke-width="2" stroke-miterlimit="10" stroke-linecap="round" stroke-linejoin="round"/>
<path class="type-path" d="M10.3276 51.3191C11.22 48.8049 12.1929 46.6894 13.0286 45.0217L13.0449 44.9971" stroke="#3B434B" stroke-width="2" stroke-miterlimit="10" stroke-linecap="round" stroke-linejoin="round"/>
<path class="type-path" d="M1 51.3191C3.82248 41.9946 8.48628 35.6732 10.3194 33.3379" stroke="#3B434B" stroke-width="2" stroke-miterlimit="10" stroke-linecap="round" stroke-linejoin="round"/>
<path class="type-path" d="M29.7776 51.319C29.0396 48.9919 28.2449 47.0229 27.5308 45.4285" stroke="#3B434B" stroke-width="2" stroke-miterlimit="10" stroke-linecap="round" stroke-linejoin="round"/>
<path class="type-path" d="M31.0186 34.2247C32.8435 36.8286 36.688 42.8328 38.9998 51.319" stroke="#3B434B" stroke-width="2" stroke-miterlimit="10" stroke-linecap="round" stroke-linejoin="round"/>
</svg>
