<svg width="24" height="14" viewBox="0 0 24 14" fill="none" xmlns="http://www.w3.org/2000/svg">
<path class="social-icon" fill-rule="evenodd" clip-rule="evenodd" d="M11.7425 13.8828H13.1772C13.1772 13.8828 13.6102 13.8378 13.8314 13.6117C14.0357 13.4033 14.0289 13.013 14.0289 13.013C14.0289 13.013 14.0009 11.1858 14.8941 10.9162C15.7746 10.6507 16.9059 12.6823 18.1041 13.4636C19.0109 14.055 19.6998 13.9255 19.6998 13.9255L22.9048 13.8828C22.9048 13.8828 24.581 13.7847 23.7861 12.5335C23.7208 12.4313 23.3225 11.6074 21.4031 9.91526C19.393 8.14429 19.6625 8.43074 22.0836 5.36675C23.5573 3.50164 24.1471 2.3623 23.9623 1.8747C23.7869 1.40963 22.7031 1.53274 22.7031 1.53274L19.0939 1.55366C19.0939 1.55366 18.8261 1.51906 18.6278 1.63171C18.4346 1.74194 18.31 1.99942 18.31 1.99942C18.31 1.99942 17.738 3.4429 16.9771 4.67075C15.3703 7.26162 14.7271 7.39841 14.4644 7.23749C13.8535 6.86253 14.006 5.73204 14.006 4.92823C14.006 2.41701 14.4077 1.37021 13.2255 1.09905C12.8332 1.00974 12.5442 0.950195 11.5408 0.940539C10.2536 0.927665 9.16383 0.943758 8.54691 1.23101C8.13591 1.4217 7.81897 1.84734 8.01219 1.87148C8.25031 1.90206 8.79097 2.00988 9.07739 2.38C9.44687 2.85795 9.43416 3.9305 9.43416 3.9305C9.43416 3.9305 9.64686 6.88587 8.93757 7.25358C8.45115 7.50462 7.78423 6.99127 6.35124 4.64018C5.61738 3.43647 5.06316 2.10563 5.06316 2.10563C5.06316 2.10563 4.95639 1.857 4.76572 1.72343C4.53437 1.56251 4.2115 1.51101 4.2115 1.51101L0.781993 1.53274C0.781993 1.53274 0.267609 1.54642 0.0786339 1.75884C-0.0900028 1.94792 0.0650752 2.33897 0.0650752 2.33897C0.0650752 2.33897 2.7497 8.3028 5.7894 11.3081C8.57742 14.0639 11.7425 13.8828 11.7425 13.8828Z" fill="#262626"/>
</svg>
