<svg width="20" height="15" viewBox="0 0 20 15" fill="none" xmlns="http://www.w3.org/2000/svg">
<path class="social-icon" fill-rule="evenodd" clip-rule="evenodd" d="M7.93495 10.5194L7.93433 4.92676L13.3381 7.73273L7.93495 10.5194ZM19.8 3.95745C19.8 3.95745 19.6044 2.58588 19.005 1.98189C18.2444 1.1888 17.3919 1.18507 17.0012 1.13904C14.2025 0.9375 10.0044 0.9375 10.0044 0.9375H9.99562C9.99562 0.9375 5.7975 0.9375 2.99875 1.13904C2.6075 1.18507 1.75563 1.1888 0.994375 1.98189C0.395 2.58588 0.2 3.95745 0.2 3.95745C0.2 3.95745 0 5.5685 0 7.17894V8.68922C0 10.3003 0.2 11.9107 0.2 11.9107C0.2 11.9107 0.395 13.2823 0.994375 13.8863C1.75563 14.6794 2.755 14.6545 3.2 14.7372C4.8 14.8902 10 14.9375 10 14.9375C10 14.9375 14.2025 14.9313 17.0012 14.7297C17.3919 14.6831 18.2444 14.6794 19.005 13.8863C19.6044 13.2823 19.8 11.9107 19.8 11.9107C19.8 11.9107 20 10.3003 20 8.68922V7.17894C20 5.5685 19.8 3.95745 19.8 3.95745Z" fill="#262626"/>
</svg>
