<svg xmlns="http://www.w3.org/2000/svg"><defs>
<clipPath id="clip0">
<rect width="47" height="14" fill="white" transform="translate(81 8.9375)"/>
</clipPath>
</defs><symbol id="accordeon__info-icon" viewBox="0 0 180 196">
<g opacity="0.5">
<path d="M66.1174 64.5807L78.034 62.618C78.902 62.475 79.7815 62.4035 80.6657 62.4035H80.6864C85.9914 62.4035 91.0171 64.9382 93.6488 69.2373C95.334 71.9888 96.6429 75.6929 96.6429 80.5617C96.6429 84.75 95.4702 88.8669 93.2448 92.5018L89.8351 98.0671C88.2191 100.706 87.208 103.637 86.9287 106.665C86.28 113.681 83.9969 120.499 80.2178 126.634L77.9485 130.32C77.3691 131.261 76.2933 131.842 75.1298 131.842C73.3338 131.842 71.8771 130.481 71.8771 128.804V122.985C71.8771 120.019 71.3092 117.076 70.2035 114.297L69.3031 112.035C68.793 110.755 67.4863 109.908 66.025 109.908C64.5314 109.908 63.204 110.794 62.7192 112.113L61.8166 114.565C60.8563 117.173 60.3669 119.911 60.3669 122.667V128.807C60.3669 130.483 58.9102 131.844 57.1142 131.844C55.9507 131.844 54.8749 131.263 54.2955 130.322L52.0262 126.636C48.2471 120.501 45.964 113.686 45.3153 106.668C45.036 103.639 44.0249 100.708 42.4089 98.0694L38.9992 92.5041C36.7715 88.8692 35.6011 84.7524 35.6011 80.564C35.6011 75.686 36.9146 71.975 38.6045 69.2212C41.2385 64.929 46.2572 62.4058 51.5552 62.4058H51.576C52.4579 62.4058 53.3374 62.4773 54.2077 62.6203L66.1174 64.5807Z" stroke="#E8F3FF" stroke-width="10" stroke-miterlimit="10" stroke-linecap="round" stroke-linejoin="round"/>
<path d="M89.4351 190.258V167.916C89.4351 157.191 98.0481 148.464 108.78 148.307C121.639 148.12 138.521 147.495 149.083 147.064C155.062 146.819 159.51 141.506 158.755 135.576C158.298 131.989 157.483 128.308 156.13 125.799C155.168 124.016 154.838 122.072 154.817 120.291C154.78 117.222 156.594 114.429 159.358 113.084L159.457 113.036C160.477 112.54 160.965 111.536 161.152 110.392C161.652 107.339 159.889 104.354 157.125 102.964L141.04 94.8659C141.04 94.8659 163.933 85.6058 162.714 82.9811C161.495 80.3564 157.903 71.3062 157.903 71.3062C157.899 70.3283 164.755 66.5066 164.755 66.5066C173.08 61.6309 175.076 56.8936 174.998 53.3787C174.991 53.0835 174.961 52.7167 174.89 52.2947C174.458 49.7646 172.798 47.6243 170.549 46.3811C167.463 44.6744 163.488 42.3403 159.025 39.3582C149.611 33.0687 144.835 29.8121 141.4 24.3252C139.537 21.3499 136.356 15.0627 136.672 5" stroke="#E8F3FF" stroke-width="10" stroke-miterlimit="10" stroke-linecap="round" stroke-linejoin="round"/>
<path d="M20.6519 84.5933C20.8642 88.2743 21.8338 92.2251 23.6206 96.0952C25.2389 99.6032 27.3373 102.638 29.6943 105.076" stroke="#E8F3FF" stroke-width="10" stroke-miterlimit="10" stroke-linecap="round" stroke-linejoin="round"/>
<path d="M6.25201 78.7096C4.04045 85.4074 4.70299 94.3492 8.68519 102.975C12.6812 111.626 19.0597 117.934 25.5951 120.603" stroke="#E8F3FF" stroke-width="10" stroke-miterlimit="10" stroke-linecap="round" stroke-linejoin="round"/>
<path d="M110.606 84.5933C110.394 88.2743 109.424 92.2251 107.637 96.0952C106.019 99.6032 103.918 102.638 101.563 105.076" stroke="#E8F3FF" stroke-width="10" stroke-miterlimit="10" stroke-linecap="round" stroke-linejoin="round"/>
<path d="M125.004 78.7096C127.216 85.4074 126.553 94.3492 122.571 102.975C118.575 111.626 112.197 117.934 105.661 120.603" stroke="#E8F3FF" stroke-width="10" stroke-miterlimit="10" stroke-linecap="round" stroke-linejoin="round"/>
</g>
</symbol><symbol id="all-services-icon" viewBox="0 0 24 12">
<path d="M0 6L23 6" stroke="#5596DF" stroke-width="1.5" stroke-linejoin="round"/>
<path d="M18 1L23 6L18 11" stroke="#5596DF" stroke-width="1.5" stroke-linejoin="round"/>
</symbol><symbol id="calendar-icon" viewBox="0 0 21 22">
<path d="M17.5024 3H3.50244C2.39787 3 1.50244 3.89543 1.50244 5V19C1.50244 20.1046 2.39787 21 3.50244 21H17.5024C18.607 21 19.5024 20.1046 19.5024 19V5C19.5024 3.89543 18.607 3 17.5024 3Z" stroke="white" stroke-width="2" stroke-linecap="round" stroke-linejoin="round"/>
<path d="M14.5024 1V5" stroke="white" stroke-width="2" stroke-linecap="round" stroke-linejoin="round"/>
<path d="M6.50244 1V5" stroke="white" stroke-width="2" stroke-linecap="round" stroke-linejoin="round"/>
<path d="M1.50244 9H19.5024" stroke="white" stroke-width="2" stroke-linecap="round" stroke-linejoin="round"/>
</symbol><symbol id="check-icon" viewBox="0 0 22 22">
<circle cx="11" cy="11" r="11" fill="white"/>
<path d="M6.15991 10.56L9.35219 14.1691L16.2799 7.03999" stroke="#5596DF" stroke-width="2"/>
</symbol><symbol id="close-search-icon" viewBox="0 0 21 20">
<path d="M19.7688 1L1.5 19.2688" stroke="#818B96" stroke-width="1.5"/>
<path d="M1.50001 1L19.7688 19.2688" stroke="#818B96" stroke-width="1.5"/>
</symbol><symbol id="experience-icon" viewBox="0 0 80 87">
<path d="M29.3945 65.3457H28.123L27.9473 64.209C27.7793 64.041 27.5664 63.9082 27.3086 63.8105C27.0547 63.7129 26.7539 63.6641 26.4062 63.6641C25.6641 63.6641 25.0918 63.9336 24.6895 64.4727C24.291 65.0117 24.0918 65.7148 24.0918 66.582V66.8809C24.0918 67.748 24.291 68.4531 24.6895 68.9961C25.0879 69.5391 25.6504 69.8105 26.377 69.8105C26.7129 69.8105 27.0195 69.7617 27.2969 69.6641C27.5781 69.5664 27.7949 69.4336 27.9473 69.2656L28.123 68.1289H29.3945V69.8164C29.0508 70.2148 28.6113 70.5332 28.0762 70.7715C27.5449 71.0059 26.9492 71.123 26.2891 71.123C25.1445 71.123 24.207 70.7266 23.4766 69.9336C22.7461 69.1406 22.3809 68.123 22.3809 66.8809V66.5938C22.3809 65.3555 22.7441 64.3379 23.4707 63.541C24.1973 62.7441 25.1367 62.3457 26.2891 62.3457C26.9492 62.3457 27.5449 62.4668 28.0762 62.709C28.6074 62.9473 29.0469 63.2637 29.3945 63.6582V65.3457ZM37.5215 62.4688V64.7422H36.209L36.1387 63.7871H34.5684V69.7988L35.4824 69.9746V71H31.9434V69.9746L32.8574 69.7988V63.7871H31.293L31.2227 64.7422H29.916V62.4688H37.5215ZM36.9414 69.9746L37.5508 69.8867L40.1465 62.4688H41.8984L44.4766 69.8867L45.0859 69.9746V71H42.1797V69.9746L42.7715 69.8691L42.3965 68.6973H39.6309L39.2559 69.8691L39.8477 69.9746V71H36.9414V69.9746ZM40.0352 67.4375H41.9922L41.0312 64.4316H40.9961L40.0352 67.4375ZM49.7383 67.5078L48.4492 69.9102L48.7773 69.9746V71H45.5547V69.9746L46.4043 69.8516L48.4316 66.3652L47.3477 64.6191C47.1562 64.3418 46.9922 64.1523 46.8555 64.0508C46.7188 63.9492 46.5684 63.8984 46.4043 63.8984C46.3184 63.8984 46.2422 63.9062 46.1758 63.9219C46.1133 63.9336 46.043 63.9492 45.9648 63.9688L45.7129 62.6855C45.8496 62.5957 46.0059 62.5234 46.1816 62.4688C46.3613 62.4141 46.5547 62.3867 46.7617 62.3867C47.1836 62.3867 47.5234 62.4805 47.7812 62.668C48.0391 62.8516 48.3086 63.1797 48.5898 63.6523L49.9141 65.9551H50.7988V63.6758L49.8848 63.5V62.4688H52.5039H53.418V63.5L52.5039 63.6758V65.9551H53.3887L54.6895 63.6523C54.959 63.1797 55.2227 62.8516 55.4805 62.668C55.7383 62.4805 56.0801 62.3867 56.5059 62.3867C56.709 62.3867 56.8984 62.4141 57.0742 62.4688C57.25 62.5234 57.4121 62.5957 57.5605 62.6855L57.3203 63.9688C57.2383 63.9492 57.1641 63.9336 57.0977 63.9219C57.0312 63.9062 56.959 63.8984 56.8809 63.8984C56.7129 63.8984 56.5605 63.9492 56.4238 64.0508C56.2871 64.1523 56.127 64.3418 55.9434 64.6191L54.8535 66.3887L56.834 69.8516L57.7188 69.9746V71H54.4551V69.9746L54.7949 69.9102L53.5293 67.5078H52.5039V69.7988L53.418 69.9746V71H49.8848V69.9746L50.7988 69.7988V67.5078H49.7383ZM18.9941 77.4688C19.9707 77.4688 20.7402 77.7207 21.3027 78.2246C21.8691 78.7246 22.1523 79.3809 22.1523 80.1934C22.1523 81.0098 21.8691 81.666 21.3027 82.1621C20.7402 82.6582 19.9707 82.9062 18.9941 82.9062H17.5527V84.7988L18.4668 84.9746V86H14.9336V84.9746L15.8418 84.7988V78.6758L14.9336 78.5V77.4688H15.8418H18.9941ZM17.5527 81.5879H18.9941C19.4707 81.5879 19.8301 81.459 20.0723 81.2012C20.3184 80.9395 20.4414 80.6074 20.4414 80.2051C20.4414 79.7949 20.3184 79.457 20.0723 79.1914C19.8301 78.9219 19.4707 78.7871 18.9941 78.7871H17.5527V81.5879ZM21.2324 84.9746L21.8418 84.8867L24.4375 77.4688H26.1895L28.7676 84.8867L29.377 84.9746V86H26.4707V84.9746L27.0625 84.8691L26.6875 83.6973H23.9219L23.5469 84.8691L24.1387 84.9746V86H21.2324V84.9746ZM24.3262 82.4375H26.2832L25.3223 79.4316H25.2871L24.3262 82.4375ZM29.9922 84.9746L30.9004 84.7988V78.6758L29.9922 78.5V77.4688H36.4609V79.6309H35.1484L35.0781 78.7871H32.6348V80.627H34.0996C35.0879 80.627 35.8691 80.8691 36.4434 81.3535C37.0176 81.834 37.3047 82.4766 37.3047 83.2812C37.3047 84.0977 37.0156 84.7559 36.4375 85.2559C35.8594 85.752 35.0801 86 34.0996 86H29.9922V84.9746ZM32.6348 81.9453V84.6875H34.0996C34.5801 84.6875 34.9492 84.5547 35.207 84.2891C35.4688 84.0195 35.5996 83.6797 35.5996 83.2695C35.5996 82.8789 35.4707 82.5605 35.2129 82.3145C34.9551 82.0684 34.584 81.9453 34.0996 81.9453H32.6348ZM45.7598 81.7988C45.7598 83.0488 45.4023 84.082 44.6875 84.8984C43.9727 85.7148 43.0371 86.123 41.8809 86.123C40.7285 86.123 39.7969 85.7148 39.0859 84.8984C38.3789 84.082 38.0254 83.0488 38.0254 81.7988V81.6699C38.0254 80.4277 38.3789 79.3965 39.0859 78.5762C39.793 77.7559 40.7227 77.3457 41.875 77.3457C43.0312 77.3457 43.9668 77.7559 44.6816 78.5762C45.4004 79.3965 45.7598 80.4277 45.7598 81.6699V81.7988ZM44.0547 81.6582C44.0547 80.7754 43.8711 80.0586 43.5039 79.5078C43.1367 78.957 42.5938 78.6816 41.875 78.6816C41.1562 78.6816 40.6191 78.9551 40.2637 79.502C39.9121 80.0488 39.7363 80.7676 39.7363 81.6582V81.7988C39.7363 82.6973 39.9141 83.4219 40.2695 83.9727C40.6289 84.5195 41.166 84.793 41.8809 84.793C42.6035 84.793 43.1465 84.5195 43.5098 83.9727C43.873 83.4219 44.0547 82.6973 44.0547 81.7988V81.6582ZM53.793 77.4688V79.7422H52.4805L52.4102 78.7871H50.8398V84.7988L51.7539 84.9746V86H48.2148V84.9746L49.1289 84.7988V78.7871H47.5645L47.4941 79.7422H46.1875V77.4688H53.793ZM56.9336 77.4688V80.627H58.3984C59.3867 80.627 60.168 80.8691 60.7422 81.3535C61.3164 81.834 61.6035 82.4766 61.6035 83.2812C61.6035 84.0977 61.3145 84.7559 60.7363 85.2559C60.1582 85.752 59.3789 86 58.3984 86H54.3086V84.9746L55.2227 84.7988V78.6758L54.3086 78.5V77.4688H55.2227H56.9336ZM61.5977 84.9746L62.5117 84.7988V78.6758L61.5977 78.5V77.4688H65.1309V78.5L64.2168 78.6758V84.7988L65.1309 84.9746V86H61.5977V84.9746ZM56.9336 81.9453V84.6875H58.3984C58.8789 84.6875 59.248 84.5547 59.5059 84.2891C59.7676 84.0195 59.8984 83.6797 59.8984 83.2695C59.8984 82.8789 59.7695 82.5605 59.5117 82.3145C59.2539 82.0684 58.8828 81.9453 58.3984 81.9453H56.9336ZM57.8477 77.4688V78.5L56.9336 78.6758V77.4688H57.8477Z" fill="white"/>
<path d="M27.8594 36.2656L31.7031 35.7969V20.3906H27.8125V17.7812L36.25 16.25V35.7969L40.0938 36.2656V39H27.8594V36.2656ZM42.0156 36.2656L45.8594 35.7969V20.3906H41.9688V17.7812L50.4062 16.25V35.7969L54.25 36.2656V39H42.0156V36.2656Z" fill="white"/>
<path d="M13.9745 14.6158C9.65489 24.6277 12.7203 43.9551 29.5766 49.4424" stroke="#73B2F9" stroke-width="2" stroke-miterlimit="10" stroke-linecap="round" stroke-linejoin="round"/>
<path d="M14.1601 15.0026L17.0621 12.1346C19.4785 9.74535 19.7956 6.02593 18.0082 3.28762L15.108 6.15435C13.7721 7.47654 13.0309 9.23681 13.0186 11.1169C13.008 12.5171 13.4087 13.8576 14.1601 15.0026Z" fill="#73B2F9"/>
<path d="M11.7331 23.5297L11.0416 19.5082C10.4657 16.1593 7.59614 13.7701 4.32666 13.6682L5.0177 17.6867C5.33659 19.5383 6.35649 21.1547 7.89182 22.2406C9.03592 23.0501 10.3645 23.4898 11.7331 23.5297Z" fill="#73B2F9"/>
<path d="M6.06505 42.3719L9.48233 44.5998C12.3286 46.4543 16.0312 45.9765 18.3282 43.65L14.9132 41.4239C13.3385 40.3986 11.4606 40.0468 9.62119 40.434C8.25008 40.7204 7.02517 41.3954 6.06505 42.3719Z" fill="#73B2F9"/>
<path d="M2.3983 29.8147L5.00671 32.9513C7.17926 35.5632 10.8582 36.1985 13.739 34.6519L11.1319 31.5171C9.92954 30.0735 8.23888 29.1834 6.36702 29.0111C4.97356 28.8809 3.60401 29.1641 2.3983 29.8147Z" fill="#73B2F9"/>
<path d="M14.5913 54.76L18.6688 54.8929C22.0645 55.0034 24.9821 52.6749 25.7401 49.4943L21.6657 49.361C19.7882 49.3009 17.9999 49.9739 16.6268 51.2589C15.6031 52.2157 14.9056 53.428 14.5913 54.76Z" fill="#73B2F9"/>
<path d="M66.162 14.616C70.4816 24.628 67.4162 43.9555 50.5598 49.4429" stroke="#73B2F9" stroke-width="2" stroke-miterlimit="10" stroke-linecap="round" stroke-linejoin="round"/>
<path d="M65.9764 15.0019L63.0744 12.1338C60.658 9.74461 60.3409 6.02519 62.1283 3.28689L65.0285 6.15362C66.3644 7.4758 67.1056 9.23608 67.1179 11.1162C67.1285 12.5164 66.7278 13.8569 65.9764 15.0019Z" fill="#73B2F9"/>
<path d="M68.4036 23.5297L69.0951 19.5082C69.671 16.1593 72.5406 13.7701 75.8101 13.6682L75.119 17.6867C74.8001 19.5383 73.7802 21.1547 72.2449 22.2406C71.1008 23.0501 69.7721 23.4898 68.4036 23.5297Z" fill="#73B2F9"/>
<path d="M74.0714 42.3715L70.6542 44.5993C67.8079 46.4539 64.1053 45.976 61.8083 43.6495L65.2233 41.4234C66.7981 40.3981 68.6759 40.0463 70.5153 40.4335C71.8864 40.7199 73.1113 41.3949 74.0714 42.3715Z" fill="#73B2F9"/>
<path d="M77.7382 29.8142L75.1298 32.9508C72.9572 35.5627 69.2783 36.198 66.3975 34.6514L69.0046 31.5167C70.207 30.0731 71.8976 29.1829 73.7695 29.0106C75.1629 28.8805 76.5325 29.1636 77.7382 29.8142Z" fill="#73B2F9"/>
<path d="M65.5452 54.7603L61.4677 54.8931C58.072 55.0037 55.1544 52.6751 54.3963 49.4945L58.4708 49.3612C60.3483 49.3012 62.1366 49.9741 63.5096 51.2592C64.5334 52.2159 65.2309 53.4283 65.5452 54.7603Z" fill="#73B2F9"/>
</symbol><symbol id="fb-icon" viewBox="0 0 8 18">
<path class="social-icon" fill-rule="evenodd" clip-rule="evenodd" d="M6.03294 3.86174C6.3457 3.86174 7.95475 3.86174 7.95475 3.86174V0.948014L5.3076 0.9375C2.36766 0.9375 1.69955 3.11261 1.69955 4.50047V6.44295H0V9.44341H1.69955C1.69955 13.2968 1.69955 17.9375 1.69955 17.9375H5.27433C5.27433 17.9375 5.27433 13.2521 5.27433 9.44341H7.68724L8 6.44295H5.27433V4.67921C5.27433 4.01682 5.72018 3.86174 6.03294 3.86174Z" fill="#262626"/>
</symbol><symbol id="full-logo-icon" viewBox="0 0 291 62">
<path fill-rule="evenodd" clip-rule="evenodd" d="M43.7517 8.11698H42.6967C42.2965 8.58868 41.9691 9.38695 41.4962 9.42324C40.5504 9.56838 40.7323 8.51611 41.3143 7.60899C27.4908 4.66991 25.0171 11.9632 24.5442 13.8137C24.0712 15.6643 21.4884 22.7761 34.8755 30.7951C48.2625 38.8141 56.1565 32.7908 56.1565 32.7908C56.1565 32.7908 56.3748 33.6253 55.5381 36.1653C54.4831 39.3221 50.0814 40.7009 46.8438 47.8127C45.425 44.6922 36.4033 38.5964 33.0202 37.2175C29.6371 35.8387 22.798 34.1333 18.942 28.9446C12.3576 20.0185 20.6154 9.31438 20.6154 9.31438L22.3615 7.86298C21.3793 6.19387 19.7423 4.41591 21.925 1.47683C24.144 -1.46226 29.2369 0.569702 31.0194 2.52909L34.7663 2.05739C38.4405 2.09367 40.9142 2.38395 44.1154 3.65393C45.2795 4.08935 45.7888 5.06904 45.8616 5.90359C45.9343 5.86731 45.4614 7.68156 43.7517 8.11698ZM36.5852 7.8267C36.5852 7.8267 28.0001 6.95586 25.6719 13.6323C23.3801 20.2724 28.2911 24.3001 30.3646 25.6063C30.5465 24.3364 30.8739 21.3247 31.4196 21.0707C35.2029 19.4016 38.8043 19.6556 42.0783 20.8167C42.0055 19.0388 41.5326 17.3696 42.1874 15.7005C43.0241 13.596 41.8236 12.1809 41.4235 10.4755C40.0411 10.2215 38.9498 9.85866 36.5852 7.8267ZM42.1146 10.4392C42.7695 12.0358 43.6425 13.5234 43.0241 15.5917C42.442 17.6236 42.5512 19.075 42.9877 20.9256C44.4792 24.8081 53.7192 27.7834 55.9746 27.6746C58.23 27.5294 58.8121 26.2232 59.9034 24.9169C60.9948 23.6107 61.7587 21.0344 61.6132 19.4016C61.8314 18.2042 59.3577 18.6396 57.9754 17.8776C54.9197 16.1722 53.028 13.7049 50.2997 11.3101C48.4808 9.89494 46.7346 9.13296 44.5883 8.33469C43.788 8.98782 42.9513 9.71352 42.1146 10.4392ZM46.8438 6.73815L45.1704 8.00812C47.6805 8.87896 49.7904 9.96751 51.9003 11.7818C54.0102 13.6323 55.9746 16.136 58.4847 17.8051C58.5574 17.3696 57.9754 16.8979 58.7393 16.4988C59.5033 16.0634 60.3399 18.3493 61.2494 18.2768C61.7223 18.2405 61.9406 17.4785 61.9406 16.9705C61.9406 13.5234 57.1751 11.1649 54.4104 9.71352C52.0094 8.40726 49.5357 7.75413 46.8438 6.73815ZM43.9699 32.7182C47.2075 31.9562 49.9723 29.9243 52.9552 27.7472C51.1727 27.4206 49.8268 27.0215 48.2989 26.1869C47.2439 28.7268 45.8252 30.9039 43.9699 32.7182ZM5.4458 12.326C7.11918 15.3377 11.8483 15.374 14.6494 17.4785C16.9776 11.5641 18.3235 10.3666 20.6517 8.04441C19.3421 6.30273 19.1602 5.10533 19.0875 2.85566C13.6308 4.77876 9.99302 7.64527 5.4458 12.326ZM0.389277 25.6063C4.39084 28.1826 9.66562 24.8081 15.8862 25.9329C14.904 23.5744 14.6494 21.2159 14.904 19.1476C10.0658 15.8457 7.81035 19.1476 3.37226 16.0271C1.55337 19.075 0.49841 22.3044 0.389277 25.6063ZM0.0254983 30.2871C-0.156391 33.1173 0.643921 36.129 2.13541 38.8866C5.22753 40.1929 8.3924 39.7938 11.7392 38.3787C9.0472 40.5558 6.28249 41.8983 2.79021 42.6603C3.84517 44.4745 4.93651 46.2162 6.50075 47.9579C10.5023 46.8693 14.1037 44.3657 17.8506 43.3497C14.4675 46.4339 12.3212 50.1713 8.68342 50.9695C11.4118 54.4529 14.2856 56.4849 17.9598 58.3717C22.9799 57.2468 23.562 50.3164 27.2725 46.9782C24.0712 50.9695 25.5264 56.2309 22.2524 60.0771C33.0566 63.887 42.915 60.6213 52.0094 57.646C41.4599 35.4396 19.7423 38.1609 16.2136 27.4206C9.73838 26.078 5.26391 31.6659 0.0254983 30.2871Z" fill="#5596DF"/>
<path d="M77.2192 19.3628H84.2402V27.3092H87.8779L95.8083 19.3628H105.448L94.0985 30.1757L106.94 42.0409H96.7905L87.8779 33.1511H84.2038V42.0046H77.1829V19.3628H77.2192Z" fill="#5596DF"/>
<path d="M108.541 19.2903H125.674C129.421 19.2903 131.859 19.762 133.059 20.6691C134.551 21.7939 135.278 24.1887 135.278 27.8898C135.278 31.5546 134.551 33.9494 133.096 35.0742C131.895 36.0176 129.421 36.4893 125.674 36.4893H115.525V42.0409H108.504V19.2903H108.541ZM115.525 30.5749H125.638C126.475 30.5749 127.093 30.3935 127.53 30.0306C128.039 29.5952 128.294 28.8695 128.294 27.8535C128.294 26.8375 128.039 26.1118 127.53 25.6764C127.093 25.3136 126.475 25.1321 125.638 25.1321H115.525V30.5749Z" fill="#5596DF"/>
<path d="M146.119 19.3628H158.16L169.437 42.0409H161.252L159.069 38.231H145.173L142.99 42.0409H134.805L146.119 19.3628ZM152.703 24.479H151.612L147.829 32.3528H156.45L152.703 24.479Z" fill="#5596DF"/>
<path d="M170.019 19.3629H177.04V27.3093H192.173V19.3629H199.194V42.041H192.173V33.1874H177.04V42.041H170.019V19.3629Z" fill="#5596DF"/>
<path d="M227.86 20.8868C229.133 22.0117 229.788 25.2773 229.788 30.6838C229.788 36.0902 229.097 39.3922 227.751 40.5896C226.369 41.787 222.44 42.3675 215.892 42.3675C210.399 42.3675 206.797 42.041 205.124 41.3879C203.014 40.5533 201.923 38.7028 201.923 35.8725V33.3326H208.944C208.944 34.8928 209.271 35.8363 209.926 36.0902C210.581 36.3805 212.545 36.4894 215.892 36.4894C219.238 36.4894 221.203 36.3442 221.858 36.054C222.512 35.7637 222.84 34.784 222.84 33.1512H212.29V28.2527H222.803C222.803 26.6199 222.476 25.6765 221.821 25.3499C221.166 25.0596 219.166 24.9145 215.855 24.9145C212.545 24.9145 210.544 25.0596 209.889 25.3499C209.235 25.6402 208.907 26.5473 208.907 28.1076H201.886V25.6039C201.886 22.7374 202.941 20.8868 205.087 20.0523C206.761 19.3992 210.362 19.0726 215.855 19.0726C222.44 19.0363 226.441 19.6531 227.86 20.8868Z" fill="#5596DF"/>
<path d="M231.934 19.3629H238.955V27.3093H242.629L250.56 19.3629H260.2L248.85 30.1758L261.691 42.041H251.542L242.666 33.1874H238.991V42.041H231.934V19.3629Z" fill="#5596DF"/>
<path d="M276.497 19C283.009 19 286.974 19.5443 288.502 20.6328C289.811 21.5762 290.466 24.0436 290.466 28.0712H283.445C283.445 26.765 283.081 25.9304 282.39 25.5676C281.517 25.1322 279.553 24.9144 276.497 24.9144C273.077 24.9144 271.077 25.1684 270.495 25.7127C269.913 26.257 269.585 27.9261 269.585 30.72C269.585 33.514 269.876 35.1831 270.495 35.6911C271.077 36.2354 273.077 36.4893 276.497 36.4893C279.589 36.4893 281.517 36.3079 282.317 35.9451C283.081 35.5822 283.481 34.7114 283.481 33.3326H290.502C290.502 37.3602 289.848 39.8638 288.574 40.771C287.083 41.8595 283.045 42.4038 276.497 42.4038C269.949 42.4038 266.02 41.8232 264.638 40.6258C263.255 39.4284 262.601 36.1265 262.601 30.72C262.601 25.3136 263.255 22.0479 264.565 20.9231C265.984 19.6168 269.949 19 276.497 19Z" fill="#5596DF"/>
</symbol><symbol id="insta-icon" viewBox="0 0 18 19">
<path class="social-icon" fill-rule="evenodd" clip-rule="evenodd" d="M12.9373 4.81981C12.9373 5.45106 13.4501 5.96283 14.0828 5.96283C14.7155 5.96283 15.2284 5.45106 15.2284 4.81981C15.2284 4.18853 14.7155 3.67676 14.0828 3.67676C13.4501 3.67676 12.9373 4.18853 12.9373 4.81981ZM5.80469 9.90445C5.80469 8.15086 7.22942 6.72933 8.98686 6.72933C10.7443 6.72933 12.169 8.15086 12.169 9.90445C12.169 11.658 10.7443 13.0795 8.98686 13.0795C7.22942 13.0795 5.80469 11.658 5.80469 9.90445ZM8.98717 14.7964C6.27975 14.7964 4.08496 12.6064 4.08496 9.90502C4.08496 7.20359 6.27975 5.01367 8.98717 5.01367C11.6946 5.01367 13.8894 7.20359 13.8894 9.90502C13.8894 12.6064 11.6946 14.7964 8.98717 14.7964ZM16.7368 2.20069C16.3527 1.81654 15.9869 1.57863 15.4745 1.37951C15.0877 1.22914 14.5064 1.05033 13.436 1.00149C12.2784 0.948678 11.9312 0.9375 8.99998 0.9375C6.06873 0.9375 5.72152 0.948678 4.56389 1.00149C3.49358 1.05033 2.9123 1.22914 2.52547 1.37951C2.01303 1.57863 1.64735 1.81654 1.26319 2.20069C0.879044 2.58485 0.641133 2.95057 0.441966 3.46297C0.291639 3.8498 0.112825 4.43112 0.0639851 5.50143C0.0111784 6.65902 0 7.00623 0 9.93748C0 12.8688 0.0111784 13.2159 0.0639851 14.3736C0.112825 15.4439 0.291639 16.0252 0.441966 16.412C0.641133 16.9244 0.879044 17.2902 1.26319 17.6743C1.64735 18.0585 2.01303 18.2964 2.52547 18.4955C2.9123 18.6458 3.49358 18.8247 4.56393 18.8735C5.72136 18.9263 6.06853 18.9375 8.99998 18.9375C11.9314 18.9375 12.2786 18.9263 13.436 18.8735C14.5064 18.8247 15.0877 18.6458 15.4745 18.4955C15.9869 18.2964 16.3527 18.0585 16.7368 17.6743C17.1209 17.2902 17.3589 16.9244 17.558 16.412C17.7083 16.0252 17.8872 15.4439 17.936 14.3736C17.9888 13.2159 18 12.8688 18 9.93748C18 7.00623 17.9888 6.65902 17.936 5.50143C17.8872 4.43112 17.7083 3.8498 17.558 3.46297C17.3589 2.95057 17.1209 2.58485 16.7368 2.20069Z" fill="#262626"/>
</symbol><symbol id="logo-icon" viewBox="0 0 62 62">
<path class="logo" d="M43.7517 8.11698H42.6967C42.2965 8.58868 41.9691 9.38695 41.4962 9.42324C40.5504 9.56838 40.7323 8.51611 41.3143 7.60899C27.4908 4.66991 25.0171 11.9632 24.5442 13.8137C24.0712 15.6643 21.4884 22.7761 34.8755 30.7951C48.2625 38.8141 56.1565 32.7908 56.1565 32.7908C56.1565 32.7908 56.3748 33.6253 55.5381 36.1653C54.4831 39.3221 50.0814 40.7009 46.8438 47.8127C45.425 44.6922 36.4033 38.5964 33.0202 37.2175C29.6371 35.8387 22.798 34.1333 18.942 28.9446C12.3576 20.0185 20.6154 9.31438 20.6154 9.31438L22.3615 7.86298C21.3793 6.19387 19.7423 4.41591 21.925 1.47683C24.144 -1.46226 29.2369 0.569702 31.0194 2.52909L34.7663 2.05739C38.4405 2.09367 40.9142 2.38395 44.1154 3.65393C45.2795 4.08935 45.7888 5.06904 45.8616 5.90359C45.9343 5.86731 45.4614 7.68156 43.7517 8.11698ZM36.5852 7.8267C36.5852 7.8267 28.0001 6.95586 25.6719 13.6323C23.3801 20.2724 28.2911 24.3001 30.3646 25.6063C30.5465 24.3364 30.8739 21.3247 31.4196 21.0707C35.2029 19.4016 38.8043 19.6556 42.0783 20.8167C42.0055 19.0388 41.5326 17.3696 42.1874 15.7005C43.0241 13.596 41.8236 12.1809 41.4235 10.4755C40.0411 10.2215 38.9498 9.85866 36.5852 7.8267ZM42.1146 10.4392C42.7695 12.0358 43.6425 13.5234 43.0241 15.5917C42.442 17.6236 42.5512 19.075 42.9877 20.9256C44.4792 24.8081 53.7192 27.7834 55.9746 27.6746C58.23 27.5294 58.8121 26.2232 59.9034 24.9169C60.9948 23.6107 61.7587 21.0344 61.6132 19.4016C61.8314 18.2042 59.3577 18.6396 57.9754 17.8776C54.9197 16.1722 53.028 13.7049 50.2997 11.3101C48.4808 9.89494 46.7346 9.13296 44.5883 8.33469C43.788 8.98782 42.9513 9.71352 42.1146 10.4392ZM46.8438 6.73815L45.1704 8.00812C47.6805 8.87896 49.7904 9.96751 51.9003 11.7818C54.0102 13.6323 55.9746 16.136 58.4847 17.8051C58.5574 17.3696 57.9754 16.8979 58.7393 16.4988C59.5033 16.0634 60.3399 18.3493 61.2494 18.2768C61.7223 18.2405 61.9406 17.4785 61.9406 16.9705C61.9406 13.5234 57.1751 11.1649 54.4104 9.71352C52.0094 8.40726 49.5357 7.75413 46.8438 6.73815ZM43.9699 32.7182C47.2075 31.9562 49.9723 29.9243 52.9552 27.7472C51.1727 27.4206 49.8268 27.0215 48.2989 26.1869C47.2439 28.7268 45.8252 30.9039 43.9699 32.7182ZM5.4458 12.326C7.11918 15.3377 11.8483 15.374 14.6494 17.4785C16.9776 11.5641 18.3235 10.3666 20.6517 8.04441C19.3421 6.30273 19.1602 5.10533 19.0875 2.85566C13.6308 4.77876 9.99302 7.64527 5.4458 12.326ZM0.389277 25.6063C4.39084 28.1826 9.66562 24.8081 15.8862 25.9329C14.904 23.5744 14.6494 21.2159 14.904 19.1476C10.0658 15.8457 7.81035 19.1476 3.37226 16.0271C1.55337 19.075 0.49841 22.3044 0.389277 25.6063ZM0.0254983 30.2871C-0.156391 33.1173 0.643921 36.129 2.13541 38.8866C5.22753 40.1929 8.3924 39.7938 11.7392 38.3787C9.0472 40.5558 6.28249 41.8983 2.79021 42.6603C3.84517 44.4745 4.93651 46.2162 6.50075 47.9579C10.5023 46.8693 14.1037 44.3657 17.8506 43.3497C14.4675 46.4339 12.3212 50.1713 8.68342 50.9695C11.4118 54.4529 14.2856 56.4849 17.9598 58.3717C22.9799 57.2468 23.562 50.3164 27.2725 46.9782C24.0712 50.9695 25.5264 56.2309 22.2524 60.0771C33.0566 63.887 42.915 60.6213 52.0094 57.646C41.4599 35.4396 19.7423 38.1609 16.2136 27.4206C9.73838 26.078 5.26391 31.6659 0.0254983 30.2871Z" fill="#5596DF"/>
</symbol><symbol id="menu-arrow-icon" viewBox="0 0 10 7">
<path d="M1 1L5 5L9 1" stroke="white" stroke-width="2"/>
</symbol><symbol id="menu-icon" viewBox="0 0 18 18">
<path d="M0 16H18M0 2H18M0 8.78788H18" stroke="white" stroke-width="2.5"/>
</symbol><symbol id="news__logo-icon" viewBox="0 0 440 441">
<path fill-rule="evenodd" clip-rule="evenodd" d="M310.793 58.7264H303.3C300.457 62.0847 298.131 67.7679 294.772 68.0262C288.053 69.0596 289.345 61.568 293.48 55.1098C195.283 34.1851 177.711 86.1093 174.351 99.284C170.992 112.459 152.645 163.091 247.741 220.182C342.837 277.273 398.912 234.39 398.912 234.39C398.912 234.39 400.463 240.332 394.519 258.415C387.025 280.889 355.757 290.706 332.759 341.338C322.681 319.122 258.594 275.723 234.562 265.906C210.529 256.09 161.948 243.948 134.556 207.007C87.7831 143.458 146.443 67.2512 146.443 67.2512L158.847 56.9181C151.87 45.035 140.241 32.3768 155.746 11.4522C171.509 -9.47246 207.687 4.99396 220.349 18.9437L246.965 15.5854C273.065 15.8438 290.637 17.9104 313.378 26.9519C321.647 30.0519 325.265 37.0267 325.781 42.9683C326.298 42.71 322.939 55.6264 310.793 58.7264ZM259.886 56.6598C259.886 56.6598 198.901 50.4599 182.362 97.9924C166.082 145.267 200.968 173.941 215.698 183.241C216.99 174.199 219.315 152.758 223.192 150.95C250.066 139.067 275.649 140.875 298.907 149.142C298.39 136.483 295.03 124.6 299.682 112.717C305.625 97.7341 297.098 87.6592 294.255 75.5178C284.435 73.7095 276.683 71.1262 259.886 56.6598ZM299.165 75.2594C303.816 86.6259 310.018 97.2174 305.625 111.942C301.491 126.409 302.266 136.742 305.367 149.917C315.962 177.558 381.599 198.741 397.62 197.966C413.642 196.932 417.776 187.633 425.529 178.333C433.281 169.033 438.708 150.692 437.674 139.067C439.225 130.542 421.653 133.642 411.833 128.217C390.126 116.075 376.689 98.5091 357.308 81.4593C344.387 71.3845 331.983 65.9596 316.737 60.2764C311.052 64.9263 305.108 70.0929 299.165 75.2594ZM332.759 48.9099L320.872 57.9514C338.702 64.1513 353.69 71.9012 368.678 84.8176C383.666 97.9924 397.62 115.817 415.451 127.7C415.968 124.6 411.833 121.242 417.26 118.4C422.686 115.3 428.63 131.575 435.09 131.059C438.45 130.8 440 125.375 440 121.759C440 97.2174 406.148 80.426 386.509 70.0929C369.453 60.793 351.881 56.1431 332.759 48.9099ZM312.344 233.873C335.343 228.449 354.982 213.982 376.172 198.482C363.51 196.157 353.948 193.316 343.095 187.374C335.601 205.457 325.523 220.957 312.344 233.873ZM38.6847 88.6926C50.5717 110.134 84.1653 110.392 104.063 125.375C120.602 83.2676 130.163 74.7428 146.701 58.2097C137.398 45.8099 136.106 37.2851 135.59 21.2687C96.8276 34.9601 70.9863 55.3681 38.6847 88.6926ZM2.76526 183.241C31.1907 201.582 68.6606 177.558 112.849 185.566C105.872 168.775 104.063 151.983 105.872 137.258C71.5031 113.75 55.4815 137.258 23.9551 115.042C11.0345 136.742 3.5405 159.733 2.76526 183.241ZM0.181129 216.565C-1.11094 236.715 4.57415 258.156 15.1691 277.789C37.1342 287.089 59.6161 284.248 83.3901 274.173C64.2675 289.673 44.6282 299.231 19.8205 304.656C27.3145 317.572 35.0669 329.972 46.1786 342.372C74.6041 334.622 100.187 316.797 126.803 309.564C102.771 331.522 87.5247 358.13 61.6834 363.813C81.0644 388.613 101.479 403.079 127.579 416.512C163.24 408.504 167.374 359.163 193.732 335.397C170.992 363.813 181.329 401.271 158.071 428.654C234.82 455.778 304.85 432.528 369.453 411.345C294.513 253.248 140.241 272.623 115.175 196.157C69.1774 186.599 37.3926 226.382 0.181129 216.565Z" fill="#F8FBFE"/>
</symbol><symbol id="od-icon" viewBox="0 0 12 19">
<path class="social-icon" fill-rule="evenodd" clip-rule="evenodd" d="M10.6749 4.48393C11.3343 7.17153 9.28373 9.34017 7.04784 9.80958C1.11347 11.0601 -1.44775 2.77027 4.88436 1.10077C7.78735 0.336744 10.1584 2.38736 10.6749 4.48393ZM8.27198 4.89919C7.97946 3.87749 6.83159 2.94408 5.39989 3.32068C2.32023 4.12255 3.60519 8.31839 6.60472 7.56787C7.66184 7.30389 8.64559 6.20921 8.27198 4.89919ZM2.76048 10.5678C4.74928 11.6229 7.35721 11.6012 9.32112 10.5189C9.42529 10.462 9.52508 10.3959 9.62591 10.3291C9.93266 10.1258 10.2492 9.91608 10.7286 9.93926C11.5856 9.98364 13.3176 11.3503 10.2707 12.7768C9.16107 13.2951 8.7536 13.3729 8.22265 13.4743C7.95298 13.5258 7.65145 13.5834 7.20989 13.7078C7.3764 14.0122 8.72395 15.2062 9.69474 16.0664C10.0413 16.3735 10.3399 16.6381 10.5196 16.8044C11.6553 17.855 10.6888 19.0487 9.52418 18.9291C8.7846 18.8521 6.46334 16.5662 6.04229 16.0961C5.62141 16.2918 5.05748 16.8445 4.48033 17.4102C3.75938 18.1168 3.0178 18.8436 2.50864 18.9201C1.29824 19.1021 0.288913 17.8233 1.51922 16.7183L4.79009 13.7287C4.6162 13.6429 4.22948 13.5672 3.85255 13.4933C3.58866 13.4416 3.32957 13.3909 3.15167 13.3383C-1.61627 11.9191 0.0828667 9.8179 1.44855 9.94379C1.80732 9.97749 2.13959 10.1867 2.43996 10.3758C2.55127 10.4459 2.6582 10.5132 2.76048 10.5678Z" fill="#262626"/>
</symbol><symbol id="payments-icon" viewBox="0 0 209 31">
<rect y="0.9375" width="55" height="30" rx="3" fill="white"/>
<rect y="0.9375" width="55" height="30" rx="3" fill="white"/>
<rect y="0.9375" width="55" height="30" rx="3" fill="white"/>
<path d="M30.8694 9.69336H23.1338V22.6018H30.8694V9.69336Z" fill="#FF5F00"/>
<path d="M23.9306 16.1491C23.9296 14.9062 24.2054 13.6793 24.7371 12.5613C25.2688 11.4433 26.0424 10.4635 26.9994 9.69605C25.8141 8.74433 24.3906 8.15251 22.8917 7.98824C21.3927 7.82396 19.8788 8.09385 18.5228 8.76707C17.1669 9.44028 16.0237 10.4897 15.2239 11.7953C14.4241 13.1009 14 14.61 14 16.1503C14 17.6905 14.4241 19.1997 15.2239 20.5053C16.0237 21.8109 17.1669 22.8603 18.5228 23.5335C19.8788 24.2067 21.3927 24.4766 22.8917 24.3123C24.3906 24.148 25.8141 23.5562 26.9994 22.6045C26.0421 21.8368 25.2683 20.8567 24.7366 19.7383C24.2049 18.6198 23.9293 17.3925 23.9306 16.1491Z" fill="#EB001B"/>
<path d="M40.0001 16.1485C40.0001 17.6888 39.5758 19.1981 38.7759 20.5037C37.976 21.8094 36.8326 22.8587 35.4765 23.5318C34.1204 24.205 32.6063 24.4747 31.1073 24.3102C29.6082 24.1457 28.1847 23.5535 26.9995 22.6015C27.9562 21.8334 28.7296 20.8534 29.2614 19.7353C29.7932 18.6172 30.0695 17.3904 30.0695 16.1473C30.0695 14.9042 29.7932 13.6774 29.2614 12.5593C28.7296 11.4413 27.9562 10.4612 26.9995 9.6931C28.1847 8.74108 29.6082 8.14897 31.1073 7.98446C32.6063 7.81994 34.1204 8.08966 35.4765 8.76278C36.8326 9.4359 37.976 10.4853 38.7759 11.7909C39.5758 13.0966 40.0001 14.6058 40.0001 16.1462V16.1485Z" fill="#F79E1B"/>
<rect x="77" y="0.9375" width="55" height="30" rx="3" fill="white"/>
<rect x="77" y="0.9375" width="55" height="30" rx="3" fill="white"/>
<rect x="77" y="0.9375" width="55" height="30" rx="3" fill="white"/>
<g clip-path="url(#clip0)">
<path d="M97.5576 22.7358L99.9369 9.17285H103.742L101.361 22.7358H97.5576Z" fill="#0058A0"/>
<path d="M115.162 9.50701C114.408 9.23239 113.227 8.9375 111.752 8.9375C107.992 8.9375 105.343 10.777 105.321 13.4136C105.3 15.3624 107.211 16.4495 108.655 17.0985C110.136 17.7633 110.634 18.1871 110.627 18.781C110.618 19.6901 109.444 20.1055 108.35 20.1055C106.827 20.1055 106.018 19.9 104.768 19.3937L104.278 19.178L103.744 22.2139C104.633 22.5925 106.276 22.9206 107.983 22.9375C111.983 22.9375 114.58 21.1191 114.609 18.3037C114.623 16.7607 113.61 15.5866 111.414 14.6186C110.084 13.9911 109.269 13.5726 109.278 12.9371C109.278 12.3733 109.968 11.7705 111.457 11.7705C112.702 11.7518 113.603 12.0152 114.305 12.2901L114.646 12.4468L115.162 9.50701Z" fill="#0058A0"/>
<path d="M124.92 9.18652H121.98C121.069 9.18652 120.387 9.42815 119.987 10.3113L114.336 22.7409H118.331C118.331 22.7409 118.985 21.0696 119.133 20.7027C119.569 20.7027 123.451 20.7084 124.006 20.7084C124.12 21.1831 124.469 22.7407 124.469 22.7407H128L124.92 9.18652ZM120.228 17.9284C120.543 17.1469 121.744 14.137 121.744 14.137C121.722 14.1731 122.056 13.3518 122.249 12.8426L122.506 14.012C122.506 14.012 123.235 17.2495 123.387 17.9284H120.228Z" fill="#0058A0"/>
<path d="M94.366 9.18262L90.6404 18.4317L90.2436 16.5522C89.5501 14.3854 87.3893 12.038 84.9736 10.8626L88.3801 22.724L92.4063 22.7196L98.3967 9.18262H94.366Z" fill="#0058A0"/>
<path d="M87.1845 9.1748H81.0487L81 9.45696C85.7739 10.5796 88.9325 13.2928 90.2437 16.5527L88.9095 10.3198C88.6789 9.46112 88.0109 9.20468 87.1845 9.1748Z" fill="#FAA61A"/>
</g>
<rect x="154" y="0.9375" width="55" height="30" rx="3" fill="white"/>
<rect x="154" y="0.9375" width="55" height="30" rx="3" fill="white"/>
<rect x="154" y="0.9375" width="55" height="30" rx="3" fill="white"/>
<path d="M187.074 7.23996L187.933 8.05732L177.086 14.5451L171.834 11.3779L172.325 10.356L177.086 13.1915L187.074 7.23996ZM184.89 5.9375L186.043 6.55089L177.086 11.9146L172.914 9.43696L173.626 8.54292L177.086 10.6116L184.89 5.9375ZM188.693 8.90024L189.331 9.79427L177.086 17.1249L171.172 13.5999L171.442 12.4759L177.086 15.8475L188.693 8.90024Z" fill="#006236"/>
<path d="M190.46 12.1949C190.82 13.2508 191 14.3573 191 15.5155C191 16.6736 190.82 17.7971 190.46 18.8866L190.215 19.5772C189.708 20.8195 188.996 21.9265 188.079 22.8977C187.147 23.8504 186.084 24.5831 184.889 25.0942C183.63 25.6565 182.329 25.9371 180.987 25.9371C179.629 25.9371 178.329 25.6555 177.085 25.0942C175.924 24.5831 174.869 23.8504 173.92 22.8977C172.987 21.9265 172.275 20.82 171.785 19.5772C171.262 18.2652 171 16.9116 171 15.5155V14.8254L177.086 18.4271L189.92 10.7646L190.46 12.1949Z" fill="#006236"/>

</symbol><symbol id="phone-icon" viewBox="0 0 15 14">
<path d="M12.579 10.2163V11.8838C12.5797 12.0386 12.5479 12.1918 12.4857 12.3337C12.4236 12.4755 12.3325 12.6028 12.2182 12.7075C12.1039 12.8121 11.9689 12.8918 11.822 12.9414C11.6751 12.991 11.5194 13.0094 11.3649 12.9955C9.65107 12.8096 8.00483 12.2252 6.55845 11.2891C5.21278 10.4357 4.07188 9.29702 3.21678 7.95401C2.27553 6.50394 1.68978 4.85297 1.50696 3.13487C1.49304 2.98116 1.51135 2.82624 1.56071 2.67998C1.61007 2.53372 1.6894 2.39932 1.79366 2.28533C1.89792 2.17135 2.02481 2.08028 2.16627 2.01792C2.30772 1.95556 2.46064 1.92328 2.61528 1.92313H4.28612C4.5564 1.92048 4.81844 2.016 5.02338 2.1919C5.22832 2.3678 5.36218 2.61207 5.40001 2.87918C5.47053 3.41283 5.60131 3.9368 5.78987 4.4411C5.8648 4.64004 5.88102 4.85626 5.8366 5.06413C5.79218 5.27199 5.68898 5.46279 5.53924 5.61392L4.83192 6.31984C5.62476 7.71141 6.77925 8.86361 8.17359 9.65489L8.88091 8.94897C9.03234 8.79952 9.22352 8.69653 9.43179 8.6522C9.64007 8.60787 9.85672 8.62405 10.0561 8.69884C10.5614 8.88702 11.0864 9.01755 11.6211 9.08793C11.8916 9.12602 12.1387 9.26202 12.3153 9.47007C12.492 9.67811 12.5858 9.94369 12.579 10.2163Z" stroke="#818B96" stroke-width="1.5" stroke-linecap="round" stroke-linejoin="round"/>
<path d="M8.88696 3.32221C9.45401 3.43284 9.97514 3.71016 10.3837 4.11869C10.7922 4.52721 11.0695 5.04834 11.1801 5.61538M8.88696 1C10.0651 1.13088 11.1636 1.65845 12.0023 2.49609C12.841 3.33372 13.37 4.43165 13.5023 5.60958" stroke="#5596DF" stroke-width="1.5" stroke-linecap="round" stroke-linejoin="round"/>
</symbol><symbol id="pin-icon" viewBox="0 0 11 13">
<path d="M10 5.5C10 9 5.5 12 5.5 12C5.5 12 1 9 1 5.5C1 4.30653 1.47411 3.16193 2.31802 2.31802C3.16193 1.47411 4.30653 1 5.5 1C6.69347 1 7.83807 1.47411 8.68198 2.31802C9.52589 3.16193 10 4.30653 10 5.5Z" stroke="#3B434B" stroke-linecap="round" stroke-linejoin="round"/>
<path d="M5.5 7C6.32843 7 7 6.32843 7 5.5C7 4.67157 6.32843 4 5.5 4C4.67157 4 4 4.67157 4 5.5C4 6.32843 4.67157 7 5.5 7Z" stroke="#5596DF" stroke-linecap="round" stroke-linejoin="round"/>
</symbol><symbol id="search-icon" viewBox="0 0 25 25">
<path d="M10.75 19.5C15.5825 19.5 19.5 15.5825 19.5 10.75C19.5 5.91751 15.5825 2 10.75 2C5.91751 2 2 5.91751 2 10.75C2 15.5825 5.91751 19.5 10.75 19.5Z" stroke="white" stroke-width="3" stroke-linecap="round" stroke-linejoin="round"/>
<path d="M23.0003 23L16.9336 16.9333" stroke="white" stroke-width="3" stroke-linecap="round" stroke-linejoin="round"/>
</symbol><symbol id="service-icon" viewBox="0 0 20 23">
<path class="service_path" d="M5.7649 4.33996L7.62559 4.03349C7.76113 4.01116 7.89846 4 8.03652 4H8.03976C8.86809 4 9.65281 4.39578 10.0637 5.06705C10.3269 5.49668 10.5312 6.07504 10.5312 6.83527C10.5312 7.48925 10.3481 8.13208 10.0007 8.69963L9.46826 9.56862C9.21594 9.9806 9.05805 10.4383 9.01444 10.9112C8.91315 12.0067 8.55666 13.0712 7.96659 14.0291L7.61225 14.6046C7.52178 14.7515 7.35381 14.8423 7.17214 14.8423C6.8917 14.8423 6.66425 14.6298 6.66425 14.368V13.4594C6.66425 12.9963 6.57558 12.5368 6.40292 12.1028L6.26234 11.7495C6.18268 11.5497 5.97866 11.4175 5.75049 11.4175C5.51727 11.4175 5.31001 11.5558 5.23431 11.7618L5.09337 12.1446C4.94342 12.5519 4.867 12.9794 4.867 13.4097V14.3684C4.867 14.6302 4.63955 14.8427 4.35911 14.8427C4.17744 14.8427 4.00947 14.7519 3.919 14.605L3.56466 14.0295C2.97459 13.0716 2.6181 12.0074 2.51681 10.9115C2.47319 10.4387 2.31531 9.98096 2.06299 9.56898L1.53059 8.69999C1.18275 8.13244 1 7.48961 1 6.83563C1 6.07396 1.2051 5.49452 1.46896 5.06453C1.88024 4.39434 2.66388 4.00036 3.49113 4.00036H3.49437C3.63207 4.00036 3.7694 4.01152 3.9053 4.03385L5.7649 4.33996Z" stroke="#033067" stroke-width="1.5" stroke-miterlimit="10" stroke-linecap="round" stroke-linejoin="round"/>
<path class="service_path" d="M8.5708 22V19.4674C8.5708 18.2517 9.54714 17.2624 10.7637 17.2446C12.2213 17.2235 14.135 17.1526 15.3322 17.1037C16.0099 17.076 16.5142 16.4737 16.4286 15.8015C16.3768 15.395 16.2844 14.9777 16.1311 14.6932C16.022 14.4911 15.9846 14.2708 15.9822 14.0689C15.978 13.7209 16.1837 13.4043 16.4969 13.2519L16.5082 13.2464C16.6238 13.1902 16.6791 13.0765 16.7003 12.9468C16.757 12.6007 16.5571 12.2624 16.2439 12.1047L14.4205 11.1868C14.4205 11.1868 17.0156 10.1371 16.8774 9.83959C16.7392 9.54207 16.3321 8.51617 16.3321 8.51617C16.3315 8.40532 17.1087 7.97211 17.1087 7.97211C18.0524 7.41943 18.2787 6.88243 18.2698 6.48399C18.269 6.45053 18.2656 6.40896 18.2575 6.36111C18.2086 6.07431 18.0204 5.83169 17.7656 5.69078C17.4157 5.49731 16.9651 5.23273 16.4592 4.89469C15.3921 4.18174 14.8507 3.81258 14.4613 3.19062C14.2501 2.85336 13.8895 2.14067 13.9254 1" stroke="#3B434B" stroke-width="1.5" stroke-miterlimit="10" stroke-linecap="round" stroke-linejoin="round"/>
</symbol><symbol id="stars-icon" viewBox="0 0 115 19">
<path d="M9.50018 0L12.4355 5.92516L19 6.87556L14.2499 11.4874L15.3712 18L9.50018 14.9253L3.62879 18L4.75009 11.4874L0 6.87556L6.56448 5.92516L9.50018 0Z" fill="#FFD749"/>
<path d="M33.5002 0.21582L36.4355 6.14098L43 7.09138L38.2499 11.7032L39.3712 18.2158L33.5002 15.1412L27.6288 18.2158L28.7501 11.7032L24 7.09138L30.5645 6.14098L33.5002 0.21582Z" fill="#FFD749"/>
<path d="M57.5002 0.21582L60.4355 6.14098L67 7.09138L62.2499 11.7032L63.3712 18.2158L57.5002 15.1412L51.6288 18.2158L52.7501 11.7032L48 7.09138L54.5645 6.14098L57.5002 0.21582Z" fill="#FFD749"/>
<path d="M81.5002 0.431641L84.4355 6.3568L91 7.3072L86.2499 11.919L87.3712 18.4316L81.5002 15.357L75.6288 18.4316L76.7501 11.919L72 7.3072L78.5645 6.3568L81.5002 0.431641Z" fill="#FFD749"/>
<path d="M105.5 0.21582L108.436 6.14098L115 7.09138L110.25 11.7032L111.371 18.2158L105.5 15.1412L99.6288 18.2158L100.75 11.7032L96 7.09138L102.564 6.14098L105.5 0.21582Z" fill="#EAEAEA"/>
</symbol><symbol id="tooth-icon" viewBox="0 0 36 34">
<path d="M13.1463 23.254C12.9469 23.4246 12.791 23.6475 12.7017 23.9072L12.3124 25.0367C11.8982 26.2384 11.6871 27.5001 11.6871 28.7706V31.6005C11.6871 32.3735 11.0586 33 10.2839 33C9.7816 33 9.31774 32.7323 9.06739 32.298L8.08801 30.5996C6.45771 27.773 5.47271 24.6311 5.19232 21.3974C5.07135 20.0014 4.63553 18.651 3.93815 17.4349L2.46687 14.8699C1.50551 13.1955 1 11.2986 1 9.36846C1 7.12033 1.5672 5.41036 2.29623 4.14147C3.43263 2.16342 5.59889 1 7.88412 1H7.89293C8.27347 1 8.65321 1.03316 9.02813 1.09908L14.1702 2.00401" stroke="#818B96" stroke-width="1.5" stroke-miterlimit="10" stroke-linecap="round" stroke-linejoin="round"/>
<path d="M14.1702 2.00401L19.3122 1.09908C19.6872 1.03316 20.0669 1 20.4474 1H20.4562C22.7451 1 24.9133 2.16781 26.0489 4.14986C26.7756 5.41835 27.3404 7.12553 27.3404 9.36846" stroke="#818B96" stroke-width="1.5" stroke-miterlimit="10" stroke-linecap="round" stroke-linejoin="round"/>
<path d="M12.933 5.01007L9.82221 4.32808C8.45588 4.02844 6.99502 4.44634 6.09095 5.51108C6.02605 5.58739 5.96277 5.66769 5.90068 5.75279C5.36993 6.47913 5.13159 7.37566 5.13159 8.2742" stroke="#818B96" stroke-width="1.5" stroke-miterlimit="10" stroke-linecap="round" stroke-linejoin="round"/>
<path d="M34.9996 25.6803V22.2224H31.9661C31.3428 22.2224 30.7676 21.898 30.4372 21.3702C28.0674 17.5544 26.8152 16.9431 25.8102 16.3857C25.195 16.0453 24.6846 15.2119 24.3594 14.5607C24.131 14.0997 24.0049 13.6014 23.9296 13.0921C23.787 12.1004 23.3251 11.6825 22.9057 11.5111C22.5324 11.3585 22.0998 11.4065 21.7397 11.5914C21.0086 11.9638 20.665 12.4248 20.5039 12.6849C19.6147 14.1428 20.1574 16.512 22.0409 18.4385C22.2023 18.6047 22.2989 18.8216 22.2989 19.0522C22.2989 19.5344 21.9091 19.9255 21.4256 19.9255H17.1941C16.173 20.0786 15.3695 20.8392 15.2004 21.7961C14.9773 23.037 15.9499 23.9024 15.9984 23.9428C15.9339 23.9883 15.2461 24.4733 15.2409 25.3363C15.2329 25.9795 15.6062 26.5772 16.1974 26.8773C15.7596 27.3731 15.6222 28.0643 15.8373 28.6779C16.1546 29.5733 17.0462 29.8142 17.1135 29.833C17.0731 29.8785 16.5359 30.511 16.7562 31.304C16.9281 31.9313 17.5033 32.3947 18.1911 32.4563H30.3462C30.6819 32.4563 31.0152 32.3919 31.3216 32.2713C31.628 32.1506 31.9128 31.9712 32.16 31.7407H35V30.3779" stroke="#818B96" stroke-width="1.5" stroke-miterlimit="10" stroke-linecap="round" stroke-linejoin="round"/>
<path d="M15.9163 23.8732H17.5133" stroke="#818B96" stroke-width="1.5" stroke-miterlimit="10" stroke-linecap="round" stroke-linejoin="round"/>
<path d="M16.0818 26.7838H17.8727" stroke="#818B96" stroke-width="1.5" stroke-miterlimit="10" stroke-linecap="round" stroke-linejoin="round"/>
<path d="M16.9771 29.819H18.5224" stroke="#818B96" stroke-width="1.5" stroke-miterlimit="10" stroke-linecap="round" stroke-linejoin="round"/>
<path d="M31.9663 22.2224V25.6803" stroke="#818B96" stroke-width="1.5" stroke-miterlimit="10" stroke-linecap="round" stroke-linejoin="round"/>
<path d="M32.1599 31.7415V29.819" stroke="#818B96" stroke-width="1.5" stroke-miterlimit="10" stroke-linecap="round" stroke-linejoin="round"/>
</symbol><symbol id="top-arrow-icon" viewBox="0 0 32 19">
<path d="M30 16.9375L16 2.9375L2 16.9375" stroke="white" stroke-width="4" stroke-linejoin="round"/>
</symbol><symbol id="treatment_eight-icon" viewBox="0 0 52 52">
<path class="type-path" d="M18.3401 39.5222C19.1008 42.2087 20.1919 44.8031 21.5959 47.2441L23.092 49.8445C23.4742 50.5089 24.1831 50.9188 24.9498 50.9188C26.1336 50.9188 27.0929 49.9595 27.0929 48.7757V44.6689C27.0929 42.5758 27.4666 40.4995 28.196 38.5382L28.79 36.9416C29.1258 36.0389 29.987 35.4407 30.9499 35.4407C31.9339 35.4407 32.8095 36.0654 33.1291 36.9958L33.7237 38.7254C34.3562 40.5651 34.6788 42.497 34.6788 44.4426V48.7757C34.6788 49.9595 35.6381 50.9188 36.8218 50.9188C37.5885 50.9188 38.2969 50.5089 38.6796 49.8445L40.1757 47.2441C42.6655 42.9158 44.17 38.1055 44.5979 33.1544C44.7826 31.0167 45.4476 28.9495 46.5135 27.0869L48.76 23.16C50.2279 20.5945 51 17.6908 51 14.7352C51 11.2929 50.134 8.67496 49.02 6.7317C47.285 3.70337 43.9768 1.922 40.4863 1.922H40.473C39.8917 1.922 39.3121 1.97255 38.7392 2.07365L32.1247 3.24118C31.3008 3.38681 30.4655 3.45963 29.6283 3.45963C28.6793 3.45963 27.7332 3.36575 26.8028 3.17919L22.6232 2.34086" stroke="#3B434B" stroke-width="2" stroke-miterlimit="10" stroke-linecap="round" stroke-linejoin="round"/>
<path class="type-path" d="M32.7747 8.06168L37.526 7.01753C39.6125 6.55894 41.8434 7.19867 43.2246 8.82899C43.3233 8.94574 43.4208 9.06911 43.5152 9.19911C44.3253 10.3113 44.69 11.6834 44.6894 13.0597" stroke="#3B434B" stroke-width="2" stroke-miterlimit="10" stroke-linecap="round" stroke-linejoin="round"/>
<path class="type-path" d="M20.5006 24.4167L20.4928 26.3437L7.68433 23.7673L7.7078 9.12636L20.5319 6.87317L20.5241 8.82907L17.8231 10.7236L20.5162 12.9003L20.5084 18.7018" stroke="#509FF3" stroke-width="2" stroke-miterlimit="10" stroke-linecap="round" stroke-linejoin="round"/>
<path class="type-path" d="M7.71143 7.69941C7.71143 7.69941 15.0542 5.56898 17.8231 1" stroke="#509FF3" stroke-width="2" stroke-miterlimit="10" stroke-linecap="round" stroke-linejoin="round"/>
<path class="type-path" d="M7.67896 25.3795C7.67896 25.3795 15.9756 28.8406 17.4795 32.6248" stroke="#509FF3" stroke-width="2" stroke-miterlimit="10" stroke-linecap="round" stroke-linejoin="round"/>
<path class="type-path" d="M1 50.9886L1.07703 4.99306C1.08064 3.17257 2.5575 1.69812 4.37799 1.69812C6.20089 1.69812 7.67894 3.17618 7.67894 4.99908V9.12452" stroke="#509FF3" stroke-width="2" stroke-miterlimit="10" stroke-linecap="round" stroke-linejoin="round"/>
<path class="type-path" d="M7.68178 23.7637L7.63965 50.8736" stroke="#509FF3" stroke-width="2" stroke-miterlimit="10" stroke-linecap="round" stroke-linejoin="round"/>
<path class="type-path" d="M17.8231 10.7235L14.1279 11.5733" stroke="#509FF3" stroke-width="2" stroke-miterlimit="10" stroke-linecap="round" stroke-linejoin="round"/>
<path class="type-path" d="M20.5005 24.4166L16.6038 21.2577L20.5083 18.7018" stroke="#509FF3" stroke-width="2" stroke-miterlimit="10" stroke-linecap="round" stroke-linejoin="round"/>
<path class="type-path" d="M16.6039 21.2577L10.8301 20.7684" stroke="#509FF3" stroke-width="2" stroke-miterlimit="10" stroke-linecap="round" stroke-linejoin="round"/>
<path class="type-path" d="M23.3906 35.8035C24.9694 35.8035 26.2492 34.5237 26.2492 32.9449C26.2492 31.3662 24.9694 30.0863 23.3906 30.0863C21.8118 30.0863 20.532 31.3662 20.532 32.9449C20.532 34.5237 21.8118 35.8035 23.3906 35.8035Z" stroke="#509FF3" stroke-width="2" stroke-miterlimit="10" stroke-linecap="round" stroke-linejoin="round"/>
<path class="type-path" d="M29.7944 29.6554C32.4866 29.6554 34.6691 27.4729 34.6691 24.7807C34.6691 22.0885 32.4866 19.906 29.7944 19.906C27.1022 19.906 24.9197 22.0885 24.9197 24.7807C24.9197 27.4729 27.1022 29.6554 29.7944 29.6554Z" stroke="#509FF3" stroke-width="2" stroke-miterlimit="10" stroke-linecap="round" stroke-linejoin="round"/>
</symbol><symbol id="treatment_fifth-icon" viewBox="0 0 66 53">
<path class="type-path" d="M27.1679 4.69629L21.8982 5.59409" stroke="#3B434B" stroke-width="2" stroke-miterlimit="10" stroke-linecap="round" stroke-linejoin="round"/>
<path class="type-path" d="M21.8982 5.59414L14.0949 4.26503C13.5259 4.16821 12.9496 4.11951 12.3722 4.11951H12.3588C8.88539 4.11951 5.59497 5.83472 3.87165 8.74584C2.76836 10.6083 1.91187 13.1157 1.91187 16.41C1.91187 19.2449 2.679 22.031 4.13729 24.492L6.37001 28.2587C7.42832 30.0449 8.08969 32.0283 8.27327 34.0786C8.69878 38.8282 10.1935 43.4428 12.6676 47.5944L14.1538 50.0889C14.5338 50.7267 15.2377 51.1199 16 51.1199C17.1762 51.1199 18.1293 50.1998 18.1293 49.0643V45.1245C18.1293 43.1171 18.5007 41.1255 19.2253 39.2436L19.8156 37.7121C20.1493 36.8465 21.0052 36.2721 21.9614 36.2721C22.9388 36.2721 23.8087 36.8712 24.1266 37.7637L24.7175 39.4226C25.346 41.1871 25.6664 43.0408 25.6664 44.9068V49.0637C25.6664 50.1992 26.6201 51.1193 27.7957 51.1193C28.558 51.1193 29.2619 50.7261 29.6419 50.0889L31.1281 47.5944C31.7889 46.4847 32.3803 45.3422 32.9001 44.1733" stroke="#3B434B" stroke-width="2" stroke-miterlimit="10" stroke-linecap="round" stroke-linejoin="round"/>
<path class="type-path" d="M64.0883 5.38464V29.3478C64.0883 35.5949 60.9711 41.4987 55.6273 45.3628L47.6635 51.1205L39.7052 45.3622C34.3614 41.4981 31.24 35.5943 31.24 29.3472V5.38464C34.3432 3.99451 40.2554 1.82217 47.9814 1.88144C55.3574 1.9407 61.0185 4.008 64.0883 5.38464Z" stroke="#3B434B" stroke-width="2" stroke-miterlimit="10" stroke-linecap="round" stroke-linejoin="round"/>
<path class="type-path" d="M35.3164 29.1589V8.57334C39.2378 7.08286 43.4698 6.30066 47.6708 6.30066L47.9383 6.30183C52.0457 6.33469 56.1811 7.11631 60.0119 8.57275V29.1589C60.0119 34.1244 57.5628 38.7437 53.2925 41.8314L50.6057 43.7737" stroke="#509FF3" stroke-width="2" stroke-miterlimit="10" stroke-linecap="round" stroke-linejoin="round"/>
<path class="type-path" d="M44.0224 20.9172C42.4316 20.9172 41.1423 22.1618 41.1423 23.6975V26.5224C41.1423 26.9959 41.1946 27.4618 41.2949 27.9037C41.5295 28.9705 42.0365 29.9299 42.7301 30.6904C43.7477 31.8129 45.175 32.5095 46.7518 32.5095H48.5748C51.6719 32.5095 54.1842 29.8266 54.1842 26.5224V23.6975C54.1842 22.1618 52.895 20.9172 51.3041 20.9172H44.0224Z" stroke="#509FF3" stroke-width="2" stroke-miterlimit="10" stroke-linecap="round" stroke-linejoin="round"/>
<path class="type-path" d="M42.9787 20.9179C42.7598 17.988 44.9603 15.4712 47.6283 15.4712C50.2962 15.4712 52.4967 17.988 52.2779 20.9179" stroke="#509FF3" stroke-width="2" stroke-miterlimit="10" stroke-linecap="round" stroke-linejoin="round"/>
<path class="type-path" d="M49.4246 26.2736L48.8811 27.3955L49.6464 29.3343H45.6807L46.446 27.3955L45.9013 26.2712C45.3074 25.0454 46.1822 23.5808 47.5833 23.5526C47.5973 23.5526 47.6119 23.552 47.6259 23.552C47.6532 23.552 47.6806 23.552 47.7079 23.552C49.1243 23.5684 50.0251 25.0348 49.4246 26.2736Z" stroke="#509FF3" stroke-width="2" stroke-miterlimit="10" stroke-linecap="round" stroke-linejoin="round"/>
</symbol><symbol id="treatment_first-icon" viewBox="0 0 49 53">
<path class="type-path" d="M17.7366 17.3158L20.9999 16.7783C21.2376 16.7392 21.4784 16.7196 21.7205 16.7196H21.7262C23.179 16.7196 24.5552 17.4137 25.2759 18.591C25.7374 19.3445 26.0958 20.3588 26.0958 21.6921C26.0958 22.8391 25.7747 23.9665 25.1653 24.9618L24.2315 26.4859C23.789 27.2084 23.5121 28.0112 23.4356 28.8404C23.258 30.7617 22.6328 32.6287 21.5979 34.3087L20.9765 35.318C20.8178 35.5757 20.5232 35.7349 20.2046 35.7349C19.7128 35.7349 19.3139 35.3622 19.3139 34.9031V33.3095C19.3139 32.4973 19.1583 31.6914 18.8555 30.9304L18.609 30.3108C18.4693 29.9602 18.1115 29.7284 17.7113 29.7284C17.3023 29.7284 16.9388 29.971 16.806 30.3322L16.5588 31.0036C16.2959 31.7179 16.1618 32.4676 16.1618 33.2224V34.9037C16.1618 35.3628 15.7629 35.7355 15.2711 35.7355C14.9525 35.7355 14.6579 35.5763 14.4992 35.3186L13.8778 34.3094C12.8429 32.6293 12.2177 30.763 12.0401 28.8411C11.9636 28.0118 11.6867 27.209 11.2442 26.4865L10.3104 24.9625C9.70039 23.9671 9.37988 22.8397 9.37988 21.6927C9.37988 20.3569 9.73959 19.3407 10.2023 18.5866C10.9237 17.4112 12.298 16.7202 13.7488 16.7202H13.7545C13.996 16.7202 14.2369 16.7398 14.4752 16.779L17.7366 17.3158Z" stroke="#5596DF" stroke-width="2" stroke-miterlimit="10" stroke-linecap="round" stroke-linejoin="round"/>
<path class="type-path" d="M24.1221 51.7317V45.6135C24.1221 42.6767 26.4807 40.2867 29.4197 40.2438C32.9409 40.1926 37.564 40.0215 40.4562 39.9033C42.0935 39.8364 43.3117 38.3812 43.105 36.7574C42.9798 35.7753 42.7567 34.7673 42.3862 34.0801C42.1226 33.5919 42.0322 33.0595 42.0265 32.5719C42.0164 31.7312 42.5133 30.9664 43.27 30.5981L43.2972 30.5849C43.5766 30.4491 43.71 30.1744 43.7612 29.8611C43.8984 29.0249 43.4154 28.2076 42.6587 27.8267L38.2537 25.6092C38.2537 25.6092 44.523 23.0734 44.1892 22.3547C43.8554 21.6359 42.8717 19.1575 42.8717 19.1575C42.8705 18.8898 44.748 17.8432 44.748 17.8432C47.0276 16.508 47.5745 15.2107 47.553 14.2482C47.5511 14.1674 47.5429 14.0669 47.5233 13.9514C47.405 13.2585 46.9505 12.6724 46.3348 12.332C45.4895 11.8646 44.4009 11.2254 43.179 10.4088C40.6009 8.68644 39.293 7.79463 38.3523 6.29208C37.8421 5.47733 36.971 3.75562 37.0576 1" stroke="#3B434B" stroke-width="2" stroke-miterlimit="10" stroke-linecap="round" stroke-linejoin="round"/>
<path class="type-path" d="M5.28589 22.7961C5.34405 23.8042 5.60956 24.8861 6.09886 25.9459C6.54202 26.9065 7.11666 27.7377 7.76211 28.4053" stroke="#5596DF" stroke-width="2" stroke-miterlimit="10" stroke-linecap="round" stroke-linejoin="round"/>
<path class="type-path" d="M1.34285 21.1849C0.737232 23.0191 0.918666 25.4677 2.00917 27.8299C3.10346 30.199 4.85015 31.9264 6.63984 32.6571" stroke="#5596DF" stroke-width="2" stroke-miterlimit="10" stroke-linecap="round" stroke-linejoin="round"/>
<path class="type-path" d="M29.9196 22.7961C29.8614 23.8042 29.5959 24.8861 29.1066 25.9459C28.6635 26.9065 28.0882 27.7377 27.4434 28.4053" stroke="#5596DF" stroke-width="2" stroke-miterlimit="10" stroke-linecap="round" stroke-linejoin="round"/>
<path class="type-path" d="M33.8624 21.1849C34.468 23.0191 34.2866 25.4677 33.1961 27.8299C32.1018 30.199 30.3551 31.9264 28.5654 32.6571" stroke="#5596DF" stroke-width="2" stroke-miterlimit="10" stroke-linecap="round" stroke-linejoin="round"/>
</symbol><symbol id="treatment_fourth-icon" viewBox="0 0 50 50">
<path class="type-path" d="M20.1917 2.99223L12.7557 1.67422C12.2135 1.57821 11.6643 1.52991 11.114 1.52991H11.1013C7.79657 1.52991 4.66389 3.22441 3.02051 6.10483C1.96624 7.95353 1.146 10.4441 1.146 13.7184C1.146 16.5296 1.87703 19.2925 3.26669 21.733L5.39434 25.4682C6.40285 27.2395 7.03309 29.2064 7.20803 31.2395C7.61294 35.9494 9.03793 40.5255 11.3956 44.6425L12.8119 47.1162C13.1739 47.7487 13.8447 48.1386 14.5711 48.1386C15.692 48.1386 16.6003 47.2256 16.6003 46.1002V41.978C16.6003 40.1275 16.9061 38.2893 17.5045 36.5395L18.0676 34.8945C18.3705 34.0094 19.1994 33.4153 20.1309 33.4153C21.0427 33.4153 21.8583 33.9849 22.1763 34.8433L22.7382 36.362C23.4293 38.2282 23.7826 40.2032 23.7826 42.1938V46.1007C23.7826 47.2267 24.6915 48.1391 25.8118 48.1391C26.5382 48.1391 27.209 47.7493 27.571 47.1167L28.9873 44.6431C29.84 43.154 30.571 41.6044 31.1752 40.0105" stroke="#3B434B" stroke-width="2" stroke-miterlimit="10" stroke-linecap="round" stroke-linejoin="round"/>
<path class="type-path" d="M20.1917 2.99223L27.6277 1.67422C28.1699 1.57821 28.7191 1.52991 29.2694 1.52991H29.2821C30.0398 1.52991 30.7888 1.61894 31.5129 1.79118" stroke="#3B434B" stroke-width="2" stroke-miterlimit="10" stroke-linecap="round" stroke-linejoin="round"/>
<path class="type-path" d="M18.4022 7.37057L13.9036 6.37726C11.9277 5.94084 9.81511 6.54951 8.50771 8.10028C8.41387 8.21142 8.32234 8.32838 8.23255 8.45233C7.46503 9.51023 7.12036 10.8154 7.12036 12.1247" stroke="#3B434B" stroke-width="2" stroke-miterlimit="10" stroke-linecap="round" stroke-linejoin="round"/>
<path class="type-path" d="M35.825 1.14575C33.4697 4.47133 23.4988 18.9363 23.4988 25.0451C23.4988 31.8749 29.0262 37.4274 35.825 37.4274C42.6192 37.4274 48.146 31.8749 48.146 25.0451C48.146 18.9363 38.1757 4.47133 35.825 1.14575ZM42.7281 26.064H37.5078V31.1591H34.1382V26.064H28.9178V22.6738H34.1382V17.2906H37.5078V22.6738H42.7281V26.064Z" stroke="#509FF3" stroke-width="2" stroke-miterlimit="10" stroke-linecap="round" stroke-linejoin="round"/>
<path class="type-path" d="M42.7284 22.6738V26.064H37.508V31.1591H34.1378V26.064H28.9175V22.6738H34.1378V17.2906H37.508V22.6738H42.7284Z" stroke="#509FF3" stroke-width="2" stroke-miterlimit="10" stroke-linecap="round" stroke-linejoin="round"/>
<path class="type-path" d="M42.7284 22.6738V26.064H37.508V31.1591H34.1378V26.064H28.9175V22.6738H34.1378V17.2906H37.508V22.6738H42.7284Z" stroke="#509FF3" stroke-width="2" stroke-miterlimit="10" stroke-linecap="round" stroke-linejoin="round"/>
</symbol><symbol id="treatment_nineth-icon" viewBox="0 0 50 58">
<path class="type-path" d="M36.7572 33.8764C36.1392 35.3089 35.7473 36.8321 35.6126 38.3918C35.186 43.3234 33.6873 48.1148 31.2069 52.4255L29.7168 55.0156C29.3358 55.6779 28.6301 56.0855 27.8658 56.0855C26.6865 56.0855 25.7309 55.1301 25.7309 53.9511V49.8604C25.7309 47.776 25.3585 45.7081 24.6321 43.7542L24.0403 42.1639C23.7057 41.2652 22.8476 40.6687 21.8889 40.6687C20.9089 40.6687 20.0368 41.2908 19.718 42.2175L19.1257 43.94C18.4955 45.7721 18.1743 47.6968 18.1743 49.6344V53.9499C18.1743 55.1289 17.2181 56.0843 16.0394 56.0843C15.2751 56.0843 14.5694 55.676 14.1885 55.0144L12.6984 52.4243C10.2179 48.1136 8.71923 43.3222 8.29261 38.3906C8.10855 36.2618 7.44547 34.2024 6.38441 32.3477L4.14588 28.4361C2.68319 25.8826 1.91406 22.9903 1.91406 20.0463C1.91406 16.6178 2.77705 14.0101 3.88626 12.075C5.61467 9.05903 8.91121 7.28479 12.3881 7.28479H12.4015C12.9805 7.28479 13.5583 7.33536 14.1287 7.43589L21.9523 8.81592" stroke="#3B434B" stroke-width="2" stroke-miterlimit="10" stroke-linecap="round" stroke-linejoin="round"/>
<path class="type-path" d="M20.0696 13.4002L15.3359 12.3602C13.2571 11.9032 11.0344 12.5405 9.65886 14.1643C9.56013 14.2806 9.46384 14.4031 9.36937 14.5329C8.56184 15.6406 8.19922 17.0078 8.19922 18.3781" stroke="#3B434B" stroke-width="2" stroke-miterlimit="10" stroke-linecap="round" stroke-linejoin="round"/>
<path class="type-path" d="M36.8745 23.2286V7.98975" stroke="#509FF3" stroke-width="2" stroke-miterlimit="10" stroke-linecap="round" stroke-linejoin="round"/>
<path class="type-path" d="M30.2998 11.7551L43.4494 19.4632" stroke="#509FF3" stroke-width="2" stroke-miterlimit="10" stroke-linecap="round" stroke-linejoin="round"/>
<path class="type-path" d="M43.4494 11.7551L30.2998 19.4632" stroke="#509FF3" stroke-width="2" stroke-miterlimit="10" stroke-linecap="round" stroke-linejoin="round"/>
<path class="type-path" d="M33.5029 5.45813L36.875 7.98971L40.1838 5.45813" stroke="#509FF3" stroke-width="2" stroke-miterlimit="10" stroke-linecap="round" stroke-linejoin="round"/>
<path class="type-path" d="M26.2617 12.9603L30.3 11.7466L30.2226 7.58154" stroke="#509FF3" stroke-width="2" stroke-miterlimit="10" stroke-linecap="round" stroke-linejoin="round"/>
<path class="type-path" d="M47.609 12.9603L43.5708 11.7466L43.6482 7.58154" stroke="#509FF3" stroke-width="2" stroke-miterlimit="10" stroke-linecap="round" stroke-linejoin="round"/>
<path class="type-path" d="M30.2644 23.6867L30.3437 19.6807V19.5229L30.1943 19.479L26.3018 18.3019" stroke="#509FF3" stroke-width="2" stroke-miterlimit="10" stroke-linecap="round" stroke-linejoin="round"/>
<path class="type-path" d="M47.6492 18.3055L43.6104 19.5192L43.6878 23.6843" stroke="#509FF3" stroke-width="2" stroke-miterlimit="10" stroke-linecap="round" stroke-linejoin="round"/>
<path class="type-path" d="M33.5029 26.362L36.875 23.8304L40.1838 26.362" stroke="#509FF3" stroke-width="2" stroke-miterlimit="10" stroke-linecap="round" stroke-linejoin="round"/>
<path class="type-path" d="M36.8748 2.78644C37.1158 2.78644 37.3112 2.59112 37.3112 2.35019C37.3112 2.10926 37.1158 1.91394 36.8748 1.91394C36.6338 1.91394 36.4385 2.10926 36.4385 2.35019C36.4385 2.59112 36.6338 2.78644 36.8748 2.78644Z" stroke="#509FF3" stroke-width="2" stroke-miterlimit="10" stroke-linecap="round" stroke-linejoin="round"/>
<path class="type-path" d="M47.6092 9.21319C47.8502 9.21319 48.0456 9.01788 48.0456 8.77695C48.0456 8.53601 47.8502 8.3407 47.6092 8.3407C47.3682 8.3407 47.1729 8.53601 47.1729 8.77695C47.1729 9.01788 47.3682 9.21319 47.6092 9.21319Z" stroke="#509FF3" stroke-width="2" stroke-miterlimit="10" stroke-linecap="round" stroke-linejoin="round"/>
<path class="type-path" d="M47.6493 22.6984C47.8903 22.6984 48.0856 22.5031 48.0856 22.2622C48.0856 22.0212 47.8903 21.8259 47.6493 21.8259C47.4083 21.8259 47.2129 22.0212 47.2129 22.2622C47.2129 22.5031 47.4083 22.6984 47.6493 22.6984Z" stroke="#509FF3" stroke-width="2" stroke-miterlimit="10" stroke-linecap="round" stroke-linejoin="round"/>
<path class="type-path" d="M36.9554 29.5523C37.1964 29.5523 37.3918 29.357 37.3918 29.1161C37.3918 28.8751 37.1964 28.6798 36.9554 28.6798C36.7144 28.6798 36.519 28.8751 36.519 29.1161C36.519 29.357 36.7144 29.5523 36.9554 29.5523Z" stroke="#509FF3" stroke-width="2" stroke-miterlimit="10" stroke-linecap="round" stroke-linejoin="round"/>
<path class="type-path" d="M25.8656 22.6984C26.1066 22.6984 26.3019 22.5031 26.3019 22.2622C26.3019 22.0212 26.1066 21.8259 25.8656 21.8259C25.6246 21.8259 25.4292 22.0212 25.4292 22.2622C25.4292 22.5031 25.6246 22.6984 25.8656 22.6984Z" stroke="#509FF3" stroke-width="2" stroke-miterlimit="10" stroke-linecap="round" stroke-linejoin="round"/>
<path class="type-path" d="M26.2611 9.21319C26.5021 9.21319 26.6974 9.01788 26.6974 8.77695C26.6974 8.53601 26.5021 8.3407 26.2611 8.3407C26.0201 8.3407 25.8247 8.53601 25.8247 8.77695C25.8247 9.01788 26.0201 9.21319 26.2611 9.21319Z" stroke="#509FF3" stroke-width="2" stroke-miterlimit="10" stroke-linecap="round" stroke-linejoin="round"/>
</symbol><symbol id="treatment_second-icon" viewBox="0 0 53 47">
<path class="type-path" d="M15.4304 4.27454L11.8017 3.64603C11.2972 3.55874 10.7863 3.51483 10.2743 3.51483H10.2624C7.18285 3.51483 4.2655 5.06123 2.73758 7.68583C1.75992 9.36555 1 11.6262 1 14.5962C1 17.152 1.68016 19.6639 2.9731 21.8822L4.95267 25.2787C5.89152 26.8891 6.47736 28.6773 6.64012 30.5258C7.01739 34.8073 8.34267 38.9678 10.5362 42.7113L11.8539 44.9603C12.1908 45.5353 12.8149 45.8898 13.4907 45.8898C14.5336 45.8898 15.3787 45.0603 15.3787 44.0365V40.4845C15.3787 38.6741 15.708 36.8791 16.3504 35.1824L16.8732 33.8016C17.1691 33.0213 17.9279 32.5034 18.7757 32.5034C19.6423 32.5034 20.4136 33.0435 20.6954 33.8482L21.2193 35.3438C21.7766 36.9352 22.0606 38.6059 22.0606 40.2883V44.0355C22.0606 45.0592 22.9062 45.8887 23.9485 45.8887C24.6244 45.8887 25.2485 45.5343 25.5853 44.9592L26.9031 42.7102C29.0966 38.9672 30.4219 34.8068 30.7991 30.5247C30.9619 28.6762 31.5477 26.8881 32.4866 25.2776" stroke="#3B434B" stroke-width="2" stroke-miterlimit="10" stroke-linecap="round" stroke-linejoin="round"/>
<path class="type-path" d="M40.7589 19.7776L41.3092 20.2538L44.5219 23.0371L47.0064 25.1861L50.6632 28.3545C51.7007 29.2539 51.9001 30.8061 51.0432 31.8753C50.9866 31.951 50.9214 32.0245 50.8529 32.0954L50.8254 32.1261C49.8515 33.117 48.2347 33.1355 47.1816 32.2234L43.5496 29.0762L41.0677 26.9245L37.855 24.1412L37.2832 23.646L37.8583 23.0048L40.1159 20.495L40.7589 19.7776Z" stroke="#5596db" stroke-width="2" stroke-miterlimit="10" stroke-linecap="round" stroke-linejoin="round"/>
<path class="type-path" d="M39.0042 13.5005C39.1756 12.1964 39.1093 10.8733 38.8091 9.59195C38.6118 8.7386 38.309 7.908 37.9042 7.11443C37.2774 5.87805 36.4054 4.73637 35.2827 3.76769C34.1299 2.76727 32.8278 2.0393 31.4503 1.58908C29.4879 0.933594 27.3774 0.826727 25.3741 1.26054C23.1149 1.74885 20.9973 2.91646 19.3546 4.74113C17.9592 6.29124 17.0888 8.12438 16.7321 10.0231C16.6571 10.4009 16.6049 10.7828 16.5731 11.1664C16.5057 11.9779 16.5316 12.7916 16.6469 13.5947C17.0037 16.1331 18.2465 18.5598 20.3468 20.3818C22.7953 22.5007 25.9239 23.3863 28.9355 23.0879C31.6766 22.825 34.3218 21.5838 36.2803 19.4026C37.8277 17.6826 38.7288 15.621 39.0042 13.5005Z" stroke="#5596db" stroke-width="2" stroke-miterlimit="10" stroke-linecap="round" stroke-linejoin="round"/>
<path class="type-path" d="M22.4847 18.0006C21.05 16.7563 20.1139 15.0364 19.8498 13.1604C19.7657 12.5768 19.7485 11.9954 19.7954 11.4225C19.818 11.1489 19.8557 10.8807 19.9053 10.63C20.1726 9.20629 20.8172 7.90801 21.7765 6.84305C22.9143 5.57916 24.398 4.72052 26.0682 4.36024C26.64 4.23644 27.2264 4.17401 27.8128 4.17401C28.701 4.17401 29.5741 4.31527 30.4084 4.59354" stroke="#5596db" stroke-width="2" stroke-miterlimit="10" stroke-linecap="round" stroke-linejoin="round"/>
<path class="type-path" d="M33.1415 6.14575C33.9214 6.81923 34.5482 7.61914 35.009 8.52804C35.2995 9.09783 35.5156 9.6893 35.6552 10.2935C35.8729 11.2214 35.9198 12.1605 35.7969 13.0937C35.5932 14.6629 34.9222 16.1156 33.8567 17.2996C32.5088 18.8011 30.6505 19.7332 28.6213 19.9279C28.3405 19.956 28.0667 19.9692 27.7962 19.9692H27.7957" stroke="#5596db" stroke-width="2" stroke-miterlimit="10" stroke-linecap="round" stroke-linejoin="round"/>
<path class="type-path" d="M36.2539 19.4925L38.9751 21.8346" stroke="#5596db" stroke-width="2" stroke-miterlimit="10" stroke-linecap="round" stroke-linejoin="round"/>
<path class="type-path" d="M30.0269 9.52477C30.5835 9.52477 31.0347 9.08184 31.0347 8.53546C31.0347 7.98907 30.5835 7.54614 30.0269 7.54614C29.4703 7.54614 29.019 7.98907 29.019 8.53546C29.019 9.08184 29.4703 9.52477 30.0269 9.52477Z" stroke="#5596db" stroke-width="2" stroke-miterlimit="10" stroke-linecap="round" stroke-linejoin="round"/>
<path class="type-path" d="M27.4712 16.9473C28.0278 16.9473 28.4791 16.5043 28.4791 15.9579C28.4791 15.4116 28.0278 14.9686 27.4712 14.9686C26.9146 14.9686 26.4634 15.4116 26.4634 15.9579C26.4634 16.5043 26.9146 16.9473 27.4712 16.9473Z" stroke="#5596db" stroke-width="2" stroke-miterlimit="10" stroke-linecap="round" stroke-linejoin="round"/>
<path class="type-path" d="M30.0269 13.4307C30.0436 13.3445 30.223 12.5033 31.0563 12.1203C31.9789 11.696 32.8321 12.2351 32.8768 12.2642" stroke="#5596db" stroke-width="2" stroke-miterlimit="10" stroke-linecap="round" stroke-linejoin="round"/>
<path class="type-path" d="M24.876 8.2778C24.9654 8.27621 25.8407 8.2741 26.3953 8.99466C27.0097 9.79299 26.6491 10.7236 26.6292 10.7728" stroke="#5596db" stroke-width="2" stroke-miterlimit="10" stroke-linecap="round" stroke-linejoin="round"/>
<path class="type-path" d="M11.806 7.92177C9.96763 7.52498 8.00207 8.07837 6.78566 9.48827C6.69835 9.58932 6.6132 9.69566 6.52966 9.80834C5.81555 10.7701 5.49487 11.9568 5.49487 13.1472" stroke="#3b434b" stroke-width="2" stroke-miterlimit="10" stroke-linecap="round" stroke-linejoin="round"/>
</symbol><symbol id="treatment_seventh-icon" viewBox="0 0 59 53">
<path class="type-path" d="M17.3252 24.4131L14.6647 23.8675C13.4959 23.628 12.2465 23.9623 11.4732 24.8141C11.4176 24.8752 11.3632 24.9394 11.3101 25.0074C10.8566 25.5886 10.6523 26.3058 10.6523 27.0248" stroke="#509FF3" stroke-width="2" stroke-miterlimit="10" stroke-linecap="round" stroke-linejoin="round"/>
<path class="type-path" d="M19.8546 20.3043L25.3456 19.4001C25.746 19.334 26.1514 19.3009 26.5574 19.3009H26.5668C29.0112 19.3009 31.3262 20.4677 32.5387 22.4476C33.3146 23.7148 33.918 25.4203 33.918 27.6609C33.918 29.5891 33.3783 31.4842 32.3519 33.1579L30.7809 35.7203C30.0356 36.9351 29.5709 38.2846 29.4416 39.6789C29.1423 42.9092 28.0904 46.0478 26.3494 48.8721L25.3037 50.5689C25.0363 51.0023 24.541 51.2698 24.005 51.2698C23.1773 51.2698 22.5064 50.6437 22.5064 49.8717V47.1921C22.5064 45.8264 22.2453 44.4719 21.7349 43.1923L21.3195 42.1509C21.0846 41.5622 20.4824 41.1718 19.8097 41.1718C19.1219 41.1718 18.5097 41.5797 18.2861 42.1864L17.8707 43.3152C17.4284 44.5156 17.2029 45.7759 17.2029 47.0455V49.873C17.2029 50.645 16.532 51.2711 15.7043 51.2711C15.1683 51.2711 14.6729 51.0035 14.4056 50.5701L13.3599 48.8733C11.6189 46.0497 10.5669 42.9104 10.2677 39.6802C10.1384 38.2858 9.67363 36.9363 8.92839 35.7216L7.35733 33.1592C6.33098 31.4854 5.79126 29.5903 5.79126 27.6621C5.79126 25.4166 6.3972 23.7085 7.17555 22.4401C8.38867 20.4645 10.7019 19.3022 13.1425 19.3022H13.1518C13.5585 19.3022 13.9639 19.3352 14.3643 19.4013L19.8546 20.3043Z" stroke="#509FF3" stroke-width="2" stroke-miterlimit="10" stroke-linecap="round" stroke-linejoin="round"/>
<path class="type-path" d="M25.871 13.8194C23.1037 13.6236 20.9248 11.3069 20.9248 8.5013C20.9248 5.68449 23.1037 3.36781 25.871 3.172" stroke="#3B434B" stroke-width="2" stroke-miterlimit="10" stroke-linecap="round" stroke-linejoin="round"/>
<path class="type-path" d="M40.2979 12.1226L43.5307 3.23873L55.2883 12.125C54.1321 12.2298 52.1868 12.5971 50.2509 13.8917C46.0631 16.6904 45.4322 21.5096 45.3447 22.3228C43.2333 20.215 41.1132 18.0985 39.0017 15.9908H29.8377C27.6476 15.9908 25.8691 14.2154 25.8691 12.029V4.96174C25.8691 2.77539 27.6476 1 29.8377 1H39.9656C41.5423 1 42.9004 1.90983 43.5313 3.23873" stroke="#3B434B" stroke-width="2" stroke-miterlimit="10" stroke-linecap="round" stroke-linejoin="round"/>
<path class="type-path" d="M45.3421 22.3209C45.1173 23.3611 43.9373 52 43.9373 52" stroke="#3B434B" stroke-width="2" stroke-miterlimit="10" stroke-linecap="round" stroke-linejoin="round"/>
<path class="type-path" d="M55.2852 12.1226L57.8713 50.9124" stroke="#3B434B" stroke-width="2" stroke-miterlimit="10" stroke-linecap="round" stroke-linejoin="round"/>
<path class="type-path" d="M20.9247 8.50134H1" stroke="#3B434B" stroke-width="2" stroke-miterlimit="10" stroke-linecap="round" stroke-linejoin="round"/>
<path class="type-path" d="M17.0317 6.94727V10.3434" stroke="#3B434B" stroke-width="2" stroke-miterlimit="10" stroke-linecap="round" stroke-linejoin="round"/>
</symbol><symbol id="treatment_sixth-icon" viewBox="0 0 59 50">
<path class="type-path" d="M16.7773 27.1973V22.8903H23.6708V26.9129" stroke="#509FF3" stroke-width="2" stroke-miterlimit="10" stroke-linecap="round" stroke-linejoin="round"/>
<path class="type-path" d="M35.6914 26.9622V22.8951H42.5835V26.9164" stroke="#509FF3" stroke-width="2" stroke-miterlimit="10" stroke-linecap="round" stroke-linejoin="round"/>
<path class="type-path" d="M23.683 32.1656C25.2958 32.2432 26.6426 33.4338 27.0828 34.9885L29.0624 41.9815C29.4709 43.5878 29.5888 44.9308 29.5718 45.9943C29.5457 47.6344 28.1975 48.9414 26.5579 48.9414H20.3622C18.7226 48.9414 17.3743 47.6344 17.3482 45.9943C17.3313 44.9301 17.4498 43.5871 17.8576 41.9815L19.8803 34.8368C20.3092 33.323 21.6532 32.2489 23.2237 32.1656C23.3817 32.1578 23.5348 32.1585 23.683 32.1656Z" stroke="#3B434B" stroke-width="2" stroke-miterlimit="10" stroke-linecap="round" stroke-linejoin="round"/>
<path class="type-path" d="M18.8447 38.496C17.8478 36.1021 13.8123 33.1212 12.893 33.2418C12.0189 33.3562 11.3261 34.0379 11.0404 34.8721C10.5021 36.4458 9.40501 39.786 9.11857 41.6746C8.82579 43.6089 8.98029 45.947 9.06989 46.9407C9.11293 47.422 9.33305 47.8758 9.71896 48.1672C10.3673 48.657 17.3469 48.6669 17.3469 48.6669" stroke="#3B434B" stroke-width="2" stroke-miterlimit="10" stroke-linecap="round" stroke-linejoin="round"/>
<path class="type-path" d="M9.94743 38.2836C8.80592 36.9025 4.3436 33.6533 2.60312 33.6992C2.60312 33.6992 0.993152 34.1593 1.07005 36.8432L1.4609 44.602C1.52087 45.7897 1.94488 46.9506 2.75198 47.8243C2.79784 47.8744 2.85216 47.9245 2.91142 47.9739C3.61693 48.5618 10.866 48.4164 10.866 48.4164" stroke="#3B434B" stroke-width="2" stroke-miterlimit="10" stroke-linecap="round" stroke-linejoin="round"/>
<path class="type-path" d="M40.2339 38.2546C42.5832 34.5305 45.1957 33.1212 46.115 33.2418C46.9891 33.3562 47.6819 34.0379 47.9676 34.8721C48.5059 36.4458 49.603 39.786 49.8894 41.6746C50.1822 43.609 50.0277 45.947 49.9381 46.9407C49.8951 47.422 49.675 47.8758 49.289 48.1672C48.64 48.657 41.8001 48.6669 41.8001 48.6669" stroke="#3B434B" stroke-width="2" stroke-miterlimit="10" stroke-linecap="round" stroke-linejoin="round"/>
<path class="type-path" d="M49.103 38.4283C50.2445 37.0472 54.6645 33.6541 56.4056 33.6999C56.4056 33.6999 58.0156 34.1601 57.9387 36.8439L57.5479 44.602C57.4879 45.7897 57.0639 46.9506 56.2568 47.8243C56.2109 47.8744 56.1566 47.9245 56.0973 47.9739C55.3918 48.5618 48.4102 48.4214 48.4102 48.4214" stroke="#3B434B" stroke-width="2" stroke-miterlimit="10" stroke-linecap="round" stroke-linejoin="round"/>
<path class="type-path" d="M35.4641 32.1656C33.8514 32.2432 32.5045 33.4338 32.0643 34.9885L30.0847 41.9815C29.6769 43.5878 29.5584 44.9308 29.5753 45.9943C29.6014 47.6344 30.9496 48.9414 32.5892 48.9414H38.7849C40.4245 48.9414 41.7728 47.6344 41.7989 45.9943C41.8158 44.9301 41.6973 43.5871 41.2895 41.9815L39.2668 34.8368C38.8379 33.323 37.4939 32.2489 35.9234 32.1656C35.7654 32.1578 35.613 32.1585 35.4641 32.1656Z" stroke="#3B434B" stroke-width="2" stroke-miterlimit="10" stroke-linecap="round" stroke-linejoin="round"/>
<path class="type-path" d="M1.11736 35.9412L1.08984 35.6293C0.741325 32.0484 3.3016 28.8353 6.87217 28.3674C13.8934 27.4584 21.8324 26.843 30.5517 26.8705C38.2707 26.898 45.3744 27.4309 51.7529 28.2199C55.1943 28.6419 57.6269 31.589 57.5994 34.8946V34.9038" stroke="#3B434B" stroke-width="2" stroke-miterlimit="10" stroke-linecap="round" stroke-linejoin="round"/>
<path class="type-path" d="M22.7955 10.4476V15.5197C22.7955 15.8246 22.6714 16.1153 22.452 16.3263L20.9986 17.7208C20.5661 18.1358 19.8839 18.1358 19.4514 17.7208L17.9981 16.3263C17.7787 16.1153 17.6538 15.8239 17.6538 15.5197V10.4476" stroke="#509FF3" stroke-width="2" stroke-miterlimit="10" stroke-linecap="round" stroke-linejoin="round"/>
<path class="type-path" d="M41.7086 10.4476V15.5197C41.7086 15.8246 41.5845 16.1153 41.365 16.3263L39.9117 17.7208C39.4792 18.1358 38.7963 18.1358 38.3638 17.7208L36.9105 16.3263C36.6911 16.1153 36.5669 15.8239 36.5669 15.5197V10.4476" stroke="#509FF3" stroke-width="2" stroke-miterlimit="10" stroke-linecap="round" stroke-linejoin="round"/>
<path class="type-path" d="M1.06885 1.05859V7.17936C1.06885 10.4511 4.08629 12.888 7.28082 12.1837C13.2226 10.8731 20.4646 9.83077 28.7176 9.78067C37.5047 9.72774 45.1806 10.8138 51.3996 12.1858C54.5892 12.8894 57.601 10.4462 57.601 7.17936V1.05859" stroke="#3B434B" stroke-width="2" stroke-miterlimit="10" stroke-linecap="round" stroke-linejoin="round"/>
</symbol><symbol id="treatment_third-icon" viewBox="0 0 40 53">
<path class="type-path" d="M20.5791 20.2906L17.3189 20.8299C17.0811 20.8691 16.8403 20.8891 16.599 20.8891H16.5931C15.1422 20.8891 13.7671 20.1933 13.0472 19.0121C12.5861 18.2559 12.2285 17.2389 12.2285 15.9018C12.2285 14.7512 12.5493 13.621 13.1582 12.6221L14.0909 11.0934C14.5332 10.3688 14.8091 9.56343 14.8862 8.73164C15.0638 6.80426 15.6885 4.932 16.7223 3.2473L17.3435 2.23497C17.5024 1.97646 17.7963 1.81702 18.1148 1.81702C18.6063 1.81702 19.0042 2.19042 19.0042 2.65116V4.24968C19.0042 5.06447 19.1591 5.87223 19.4624 6.63603L19.709 7.25738C19.848 7.60851 20.2057 7.84181 20.6054 7.84181C21.0138 7.84181 21.3773 7.59854 21.51 7.23628L21.7566 6.56334C22.0195 5.84703 22.1539 5.09495 22.1539 4.33761V2.65116C22.1539 2.19042 22.5525 1.81702 23.0433 1.81702C23.3618 1.81702 23.6557 1.97646 23.8147 2.23555L24.4359 3.24789C25.4696 4.93258 26.0943 6.80485 26.2719 8.73222C26.3485 9.56402 26.6249 10.3688 27.0673 11.094L27.9999 12.6227C28.6094 13.6216 28.9296 14.7517 28.9296 15.9024C28.9296 17.2424 28.5702 18.2612 28.1074 19.018C27.3869 20.1968 26.0137 20.8903 24.565 20.8903H24.5592C24.3178 20.8903 24.0771 20.8703 23.8392 20.831L20.5791 20.2906Z" stroke="#509FF3" stroke-width="2" stroke-miterlimit="10" stroke-linecap="round" stroke-linejoin="round"/>
<path class="type-path" d="M10.1205 33.1661C10.1205 33.1661 6.27187 31.5494 4.40424 26.1506C3.60834 23.8493 3.40089 21.3733 3.71586 18.9582C4.03434 16.5156 4.91439 13.3431 7.25535 11.3536C7.25535 11.3536 9.75058 11.1954 9.85402 14.9469C9.93291 17.8028 9.70325 21.0139 11.9098 24.4994" stroke="#3B434B" stroke-width="2" stroke-miterlimit="10" stroke-linecap="round" stroke-linejoin="round"/>
<path class="type-path" d="M31.0705 33.1661C31.0705 33.1661 34.9191 31.5495 36.7867 26.1507C37.5826 23.8494 37.7901 21.3733 37.4751 18.9582C37.1566 16.5156 36.2766 13.3432 33.9356 11.3537C33.9356 11.3537 31.4404 11.1954 31.337 14.947C31.2557 17.8767 31.4994 21.1799 29.1064 24.7685" stroke="#3B434B" stroke-width="2" stroke-miterlimit="10" stroke-linecap="round" stroke-linejoin="round"/>
<path class="type-path" d="M13.0424 45.0011C14.9334 46.7925 17.483 47.9262 20.285 47.9895C26.2771 48.1243 31.2518 43.3528 31.3862 37.3426C31.5206 31.3319 26.7638 26.3417 20.7718 26.2069C16.0133 26.0996 11.8824 29.1009 10.3257 33.3443" stroke="#3B434B" stroke-width="2" stroke-miterlimit="10" stroke-linecap="round" stroke-linejoin="round"/>
<path class="type-path" d="M20.5281 41.6915C23.058 41.6915 25.1089 39.6342 25.1089 37.0964C25.1089 34.5586 23.058 32.5013 20.5281 32.5013C17.9982 32.5013 15.9473 34.5586 15.9473 37.0964C15.9473 39.6342 17.9982 41.6915 20.5281 41.6915Z" stroke="#3B434B" stroke-width="2" stroke-miterlimit="10" stroke-linecap="round" stroke-linejoin="round"/>
<path class="type-path" d="M10.3276 51.3191C11.22 48.8049 12.1929 46.6894 13.0286 45.0217L13.0449 44.9971" stroke="#3B434B" stroke-width="2" stroke-miterlimit="10" stroke-linecap="round" stroke-linejoin="round"/>
<path class="type-path" d="M1 51.3191C3.82248 41.9946 8.48628 35.6732 10.3194 33.3379" stroke="#3B434B" stroke-width="2" stroke-miterlimit="10" stroke-linecap="round" stroke-linejoin="round"/>
<path class="type-path" d="M29.7776 51.319C29.0396 48.9919 28.2449 47.0229 27.5308 45.4285" stroke="#3B434B" stroke-width="2" stroke-miterlimit="10" stroke-linecap="round" stroke-linejoin="round"/>
<path class="type-path" d="M31.0186 34.2247C32.8435 36.8286 36.688 42.8328 38.9998 51.319" stroke="#3B434B" stroke-width="2" stroke-miterlimit="10" stroke-linecap="round" stroke-linejoin="round"/>
</symbol><symbol id="vk-icon" viewBox="0 0 24 14">
<path class="social-icon" fill-rule="evenodd" clip-rule="evenodd" d="M11.7425 13.8828H13.1772C13.1772 13.8828 13.6102 13.8378 13.8314 13.6117C14.0357 13.4033 14.0289 13.013 14.0289 13.013C14.0289 13.013 14.0009 11.1858 14.8941 10.9162C15.7746 10.6507 16.9059 12.6823 18.1041 13.4636C19.0109 14.055 19.6998 13.9255 19.6998 13.9255L22.9048 13.8828C22.9048 13.8828 24.581 13.7847 23.7861 12.5335C23.7208 12.4313 23.3225 11.6074 21.4031 9.91526C19.393 8.14429 19.6625 8.43074 22.0836 5.36675C23.5573 3.50164 24.1471 2.3623 23.9623 1.8747C23.7869 1.40963 22.7031 1.53274 22.7031 1.53274L19.0939 1.55366C19.0939 1.55366 18.8261 1.51906 18.6278 1.63171C18.4346 1.74194 18.31 1.99942 18.31 1.99942C18.31 1.99942 17.738 3.4429 16.9771 4.67075C15.3703 7.26162 14.7271 7.39841 14.4644 7.23749C13.8535 6.86253 14.006 5.73204 14.006 4.92823C14.006 2.41701 14.4077 1.37021 13.2255 1.09905C12.8332 1.00974 12.5442 0.950195 11.5408 0.940539C10.2536 0.927665 9.16383 0.943758 8.54691 1.23101C8.13591 1.4217 7.81897 1.84734 8.01219 1.87148C8.25031 1.90206 8.79097 2.00988 9.07739 2.38C9.44687 2.85795 9.43416 3.9305 9.43416 3.9305C9.43416 3.9305 9.64686 6.88587 8.93757 7.25358C8.45115 7.50462 7.78423 6.99127 6.35124 4.64018C5.61738 3.43647 5.06316 2.10563 5.06316 2.10563C5.06316 2.10563 4.95639 1.857 4.76572 1.72343C4.53437 1.56251 4.2115 1.51101 4.2115 1.51101L0.781993 1.53274C0.781993 1.53274 0.267609 1.54642 0.0786339 1.75884C-0.0900028 1.94792 0.0650752 2.33897 0.0650752 2.33897C0.0650752 2.33897 2.7497 8.3028 5.7894 11.3081C8.57742 14.0639 11.7425 13.8828 11.7425 13.8828Z" fill="#262626"/>
</symbol><symbol id="watch-icon" viewBox="0 0 15 14">
<path d="M7.50244 13C10.8161 13 13.5024 10.3137 13.5024 7C13.5024 3.68629 10.8161 1 7.50244 1C4.18873 1 1.50244 3.68629 1.50244 7C1.50244 10.3137 4.18873 13 7.50244 13Z" fill="white" stroke="#818B96" stroke-width="1.5" stroke-linecap="round" stroke-linejoin="round"/>
<path d="M7.50244 4V7.33333L9.50244 9" stroke="#5596DF" stroke-width="1.5" stroke-linecap="round" stroke-linejoin="round"/>
</symbol><symbol id="yt-icon" viewBox="0 0 20 15">
<path class="social-icon" fill-rule="evenodd" clip-rule="evenodd" d="M7.93495 10.5194L7.93433 4.92676L13.3381 7.73273L7.93495 10.5194ZM19.8 3.95745C19.8 3.95745 19.6044 2.58588 19.005 1.98189C18.2444 1.1888 17.3919 1.18507 17.0012 1.13904C14.2025 0.9375 10.0044 0.9375 10.0044 0.9375H9.99562C9.99562 0.9375 5.7975 0.9375 2.99875 1.13904C2.6075 1.18507 1.75563 1.1888 0.994375 1.98189C0.395 2.58588 0.2 3.95745 0.2 3.95745C0.2 3.95745 0 5.5685 0 7.17894V8.68922C0 10.3003 0.2 11.9107 0.2 11.9107C0.2 11.9107 0.395 13.2823 0.994375 13.8863C1.75563 14.6794 2.755 14.6545 3.2 14.7372C4.8 14.8902 10 14.9375 10 14.9375C10 14.9375 14.2025 14.9313 17.0012 14.7297C17.3919 14.6831 18.2444 14.6794 19.005 13.8863C19.6044 13.2823 19.8 11.9107 19.8 11.9107C19.8 11.9107 20 10.3003 20 8.68922V7.17894C20 5.5685 19.8 3.95745 19.8 3.95745Z" fill="#262626"/>
</symbol></svg>